<svg width="25" height="25" viewBox="0 0 25 25" fill="none" xmlns="http://www.w3.org/2000/svg">
<path opacity="0.5" fill-rule="evenodd" clip-rule="evenodd" d="M2.77778 0H22.2222C23.75 0 25 1.25 25 2.77778V22.2222C25 23.75 23.75 25 22.2222 25H2.77778C1.23611 25 0 23.75 0 22.2222V2.77778C0 1.25 1.23611 0 2.77778 0ZM13.8889 13.889H18.0555C18.8194 13.889 19.4444 13.264 19.4444 12.5001C19.4444 11.7362 18.8194 11.1112 18.0555 11.1112H13.8889V6.94455C13.8889 6.18066 13.2639 5.55566 12.5 5.55566C11.7361 5.55566 11.1111 6.18066 11.1111 6.94455V11.1112H6.94442C6.18053 11.1112 5.55553 11.7362 5.55553 12.5001C5.55553 13.264 6.18053 13.889 6.94442 13.889H11.1111V18.0557C11.1111 18.8195 11.7361 19.4445 12.5 19.4445C13.2639 19.4445 13.8889 18.8195 13.8889 18.0557V13.889Z" fill="#6C7693"/>
</svg>
