<svg width="165" height="165" viewBox="0 0 165 165" fill="none" xmlns="http://www.w3.org/2000/svg">
<path d="M165 155C165 160.523 160.523 165 155 165L10 165C4.47716 165 3.70928e-06 160.523 3.87334e-06 155L8.18078e-06 9.99975C8.34485e-06 4.4769 4.47716 -0.000247089 10 -0.000246085L155 -0.000219732C160.523 -0.000218728 165 4.47693 165 9.99978L165 155Z" fill="white"/>
<path d="M155 164.5L10 164.5C4.7533 164.5 0.5 160.246 0.5 155L0.500005 9.99976C0.500005 4.75305 4.7533 0.499757 10 0.499758L155 0.499785C160.247 0.499786 164.5 4.75308 164.5 9.99979L164.5 155C164.5 160.246 160.247 164.5 155 164.5Z" stroke="#8F9BBA" stroke-opacity="0.2"/>
<path d="M64.984 13.4C66.088 13.4 66.922 13.67 67.486 14.21C68.062 14.75 68.35 15.536 68.35 16.568C68.35 17.108 68.218 17.6 67.954 18.044C67.702 18.476 67.324 18.818 66.82 19.07C66.328 19.322 65.71 19.454 64.966 19.466L65.002 18.8C65.398 18.8 65.824 18.854 66.28 18.962C66.748 19.07 67.186 19.256 67.594 19.52C68.002 19.784 68.338 20.144 68.602 20.6C68.866 21.044 68.998 21.602 68.998 22.274C68.998 23.006 68.878 23.618 68.638 24.11C68.398 24.59 68.08 24.968 67.684 25.244C67.288 25.52 66.85 25.718 66.37 25.838C65.902 25.946 65.44 26 64.984 26H60.376C60.124 26 59.908 25.916 59.728 25.748C59.548 25.568 59.458 25.346 59.458 25.082V14.318C59.458 14.054 59.548 13.838 59.728 13.67C59.908 13.49 60.124 13.4 60.376 13.4H64.984ZM64.732 15.164H61.186L61.402 14.876V18.746L61.204 18.548H64.768C65.2 18.536 65.578 18.392 65.902 18.116C66.238 17.828 66.406 17.408 66.406 16.856C66.406 16.292 66.256 15.872 65.956 15.596C65.656 15.308 65.248 15.164 64.732 15.164ZM64.858 20.312H61.276L61.402 20.186V24.434L61.258 24.272H64.966C65.59 24.272 66.094 24.11 66.478 23.786C66.862 23.45 67.054 22.946 67.054 22.274C67.054 21.71 66.94 21.29 66.712 21.014C66.484 20.738 66.202 20.552 65.866 20.456C65.53 20.36 65.194 20.312 64.858 20.312ZM78.4353 16.388C78.6993 16.388 78.9153 16.478 79.0833 16.658C79.2513 16.826 79.3353 17.042 79.3353 17.306V25.082C79.3353 25.346 79.2513 25.568 79.0833 25.748C78.9153 25.916 78.6993 26 78.4353 26C78.1833 26 77.9673 25.916 77.7873 25.748C77.6193 25.568 77.5353 25.346 77.5353 25.082V23.786L77.9133 23.84C77.9133 24.056 77.8233 24.296 77.6433 24.56C77.4753 24.824 77.2413 25.082 76.9413 25.334C76.6413 25.574 76.2873 25.778 75.8793 25.946C75.4713 26.102 75.0333 26.18 74.5653 26.18C73.7373 26.18 72.9933 25.97 72.3333 25.55C71.6733 25.118 71.1513 24.53 70.7673 23.786C70.3833 23.042 70.1913 22.196 70.1913 21.248C70.1913 20.276 70.3833 19.424 70.7673 18.692C71.1513 17.948 71.6673 17.366 72.3153 16.946C72.9753 16.526 73.7073 16.316 74.5113 16.316C75.0273 16.316 75.5013 16.4 75.9333 16.568C76.3773 16.736 76.7613 16.952 77.0853 17.216C77.4093 17.48 77.6553 17.762 77.8233 18.062C78.0033 18.35 78.0933 18.626 78.0933 18.89L77.5353 18.944V17.306C77.5353 17.054 77.6193 16.838 77.7873 16.658C77.9673 16.478 78.1833 16.388 78.4353 16.388ZM74.7633 24.524C75.3273 24.524 75.8253 24.38 76.2573 24.092C76.6893 23.804 77.0253 23.414 77.2653 22.922C77.5053 22.418 77.6253 21.86 77.6253 21.248C77.6253 20.624 77.5053 20.066 77.2653 19.574C77.0253 19.082 76.6893 18.692 76.2573 18.404C75.8253 18.116 75.3273 17.972 74.7633 17.972C74.2113 17.972 73.7193 18.116 73.2873 18.404C72.8673 18.692 72.5313 19.082 72.2793 19.574C72.0393 20.066 71.9193 20.624 71.9193 21.248C71.9193 21.86 72.0393 22.418 72.2793 22.922C72.5313 23.414 72.8673 23.804 73.2873 24.092C73.7193 24.38 74.2113 24.524 74.7633 24.524ZM85.691 16.316C86.339 16.316 86.915 16.388 87.419 16.532C87.923 16.664 88.313 16.856 88.589 17.108C88.877 17.348 89.021 17.63 89.021 17.954C89.021 18.158 88.961 18.35 88.841 18.53C88.721 18.698 88.541 18.782 88.301 18.782C88.133 18.782 87.989 18.752 87.869 18.692C87.761 18.632 87.659 18.56 87.563 18.476C87.467 18.392 87.347 18.308 87.203 18.224C87.071 18.152 86.873 18.092 86.609 18.044C86.357 17.996 86.129 17.972 85.925 17.972C85.289 17.972 84.737 18.116 84.269 18.404C83.813 18.692 83.453 19.082 83.189 19.574C82.937 20.066 82.811 20.624 82.811 21.248C82.811 21.872 82.937 22.43 83.189 22.922C83.453 23.414 83.807 23.804 84.251 24.092C84.707 24.38 85.235 24.524 85.835 24.524C86.195 24.524 86.489 24.5 86.717 24.452C86.945 24.392 87.143 24.32 87.311 24.236C87.491 24.128 87.641 24.02 87.761 23.912C87.893 23.792 88.073 23.732 88.301 23.732C88.565 23.732 88.763 23.816 88.895 23.984C89.039 24.14 89.111 24.338 89.111 24.578C89.111 24.842 88.949 25.1 88.625 25.352C88.313 25.592 87.893 25.79 87.365 25.946C86.837 26.102 86.255 26.18 85.619 26.18C84.683 26.18 83.867 25.964 83.171 25.532C82.487 25.1 81.953 24.512 81.569 23.768C81.197 23.024 81.011 22.184 81.011 21.248C81.011 20.3 81.209 19.46 81.605 18.728C82.001 17.984 82.553 17.396 83.261 16.964C83.969 16.532 84.779 16.316 85.691 16.316ZM99.543 21.266C99.543 22.226 99.333 23.078 98.913 23.822C98.493 24.554 97.923 25.13 97.203 25.55C96.483 25.97 95.673 26.18 94.773 26.18C93.873 26.18 93.063 25.97 92.343 25.55C91.623 25.13 91.047 24.554 90.615 23.822C90.195 23.078 89.985 22.226 89.985 21.266C89.985 20.294 90.195 19.442 90.615 18.71C91.047 17.966 91.623 17.384 92.343 16.964C93.063 16.532 93.873 16.316 94.773 16.316C95.673 16.316 96.483 16.532 97.203 16.964C97.923 17.384 98.493 17.966 98.913 18.71C99.333 19.442 99.543 20.294 99.543 21.266ZM97.743 21.266C97.743 20.606 97.611 20.036 97.347 19.556C97.083 19.064 96.723 18.68 96.267 18.404C95.823 18.116 95.325 17.972 94.773 17.972C94.221 17.972 93.717 18.116 93.261 18.404C92.805 18.68 92.445 19.064 92.181 19.556C91.917 20.036 91.785 20.606 91.785 21.266C91.785 21.902 91.917 22.466 92.181 22.958C92.445 23.45 92.805 23.834 93.261 24.11C93.717 24.386 94.221 24.524 94.773 24.524C95.325 24.524 95.823 24.386 96.267 24.11C96.723 23.834 97.083 23.45 97.347 22.958C97.611 22.466 97.743 21.902 97.743 21.266ZM106.098 16.316C106.95 16.316 107.61 16.496 108.078 16.856C108.546 17.204 108.87 17.678 109.05 18.278C109.242 18.866 109.338 19.526 109.338 20.258V25.082C109.338 25.346 109.248 25.568 109.068 25.748C108.9 25.916 108.69 26 108.438 26C108.174 26 107.958 25.916 107.79 25.748C107.622 25.568 107.538 25.346 107.538 25.082V20.276C107.538 19.844 107.478 19.46 107.358 19.124C107.238 18.776 107.028 18.5 106.728 18.296C106.44 18.08 106.032 17.972 105.504 17.972C105.012 17.972 104.58 18.08 104.208 18.296C103.836 18.5 103.542 18.776 103.326 19.124C103.122 19.46 103.02 19.844 103.02 20.276V25.082C103.02 25.346 102.93 25.568 102.75 25.748C102.582 25.916 102.372 26 102.12 26C101.856 26 101.64 25.916 101.472 25.748C101.304 25.568 101.22 25.346 101.22 25.082V17.45C101.22 17.186 101.304 16.97 101.472 16.802C101.64 16.622 101.856 16.532 102.12 16.532C102.372 16.532 102.582 16.622 102.75 16.802C102.93 16.97 103.02 17.186 103.02 17.45V18.458L102.696 18.638C102.78 18.374 102.924 18.11 103.128 17.846C103.344 17.57 103.602 17.318 103.902 17.09C104.202 16.85 104.538 16.664 104.91 16.532C105.282 16.388 105.678 16.316 106.098 16.316Z" fill="#6C7693"/>
<rect x="9" y="40" width="145" height="118" rx="10" fill="#FFB68C" fill-opacity="0.5"/>
<g filter="url(#filter0_d_229_2132)">
<path d="M142 96.5808C137.599 100.565 134.722 105.401 128.601 107.887C125.571 109.115 122.581 108.633 119.319 109.037C114.824 109.592 111.907 112.354 109.94 115.617C106.87 120.709 103.224 125.047 95.6116 124.57C87.8904 124.087 81.9653 125.333 78.5583 131.671C76.6208 135.284 74.3567 139.503 69.1029 140.058C67.0456 140.276 56.2802 141.202 51.7375 145.294L36.4404 125.868C36.4695 125.657 45.7798 117.161 48.9873 116.031C52.4415 114.813 56.0626 115.206 59.5893 114.585C64.64 113.695 67.6878 111.769 70.732 108.31C73.7217 104.915 75.4198 100.666 81.1671 99.9915C85.8296 99.4436 89.9658 100.423 94.3271 98.1846C98.3473 96.12 99.396 92.3792 102.466 89.6434C106.021 86.4759 111.373 86.4468 116.271 85.8735C121.184 85.3003 128.92 80.7068 132.534 78C134.722 84.7415 139.663 91.1129 142 96.5808" fill="#CC5552"/>
<path d="M73.4443 114.293C73.4874 113.657 73.5627 113.137 73.6774 112.817C74.1005 111.658 74.4914 110.539 74.8571 109.488C76.8185 107.531 78.9126 105.734 81.7059 104.709C86.6973 102.873 92.3772 104.415 96.7088 100.678C98.0964 99.4769 99.4268 98.3008 100.822 97.1103C102.055 96.0561 104.189 93.7899 106.01 93.7899C106.132 93.7899 106.254 93.8007 106.372 93.8222C106.146 94.5573 105.203 95.0629 104.995 95.7764C105.121 95.7944 105.246 95.8015 105.368 95.8015C106.394 95.8015 107.28 95.1955 108.058 94.5286C108.929 93.7863 108.875 93.1481 109.395 92.2803C109.951 91.3516 111.69 90.6452 113.067 90.6452C113.472 90.6452 113.842 90.7062 114.146 90.8424C114.347 90.9321 114.25 91.4341 114.573 91.5775C114.756 91.6564 114.917 91.6887 115.075 91.6887C115.398 91.6887 115.695 91.5596 116.058 91.4663C117.32 91.1436 118.553 90.5233 119.697 89.9352C121.802 88.8523 123.638 86.8443 125.814 86.0662C126.159 86.6363 126.309 86.9124 126.661 86.9124C126.869 86.9124 127.145 86.8192 127.571 86.6327C128.927 86.0447 130.11 84.9761 131.397 84.2052C132.021 83.8287 133.065 83.0147 134.245 82.2294C134.503 82.7816 134.775 83.3267 135.058 83.8717C133.689 84.5602 132.297 85.1913 130.996 85.8152C129.386 86.5825 128.134 87.6977 126.657 88.6587C125.488 89.4153 124.818 89.0962 123.706 89.7918C122.494 90.552 121.404 91.5201 120.049 92.0437C118.553 92.621 116.925 92.7823 115.405 93.3022C114.326 93.668 113.293 94.1485 112.206 94.5071C111.4 94.7724 110.729 94.6326 110.016 94.7617C108.976 94.9517 107.52 96.0203 107.319 97.1964C107.168 98.0928 107.649 98.3761 108.298 98.3761C108.929 98.3761 109.718 98.1108 110.256 97.8813C113.58 96.4685 116.8 95.1956 120.21 94.0409C120.906 93.8043 125.018 91.7245 126.496 91.7245C126.743 91.7245 126.919 91.7855 126.991 91.9217C127.865 93.6501 120.36 95.9521 119.521 96.2928C116.219 97.641 112.891 99.2044 109.481 100.241C108.631 100.499 107.907 100.649 107.194 100.649C106.555 100.649 105.924 100.531 105.214 100.255C104.752 100.076 104.303 99.9969 103.873 99.9969C101.632 99.9969 99.832 102.173 97.8741 103.601C95.0665 105.648 92.4704 105.368 89.3006 106.089C86.4176 106.742 83.5777 107.305 81.1035 108.986C79.7051 109.94 78.5182 111.174 77.0982 112.088C75.9006 112.861 74.6599 113.555 73.4443 114.293" fill="#E6867B"/>
<path d="M73.4397 130.102C72.8435 130.102 72.2509 130.015 71.6618 129.928C71.0764 129.84 70.491 129.753 69.902 129.753C69.7972 129.753 69.6888 129.756 69.584 129.762C70.2308 128.315 71.2752 126.79 72.1135 125.27C72.7857 124.448 73.1795 123.508 73.9637 122.707C76.8329 119.775 80.2081 119.079 84.0999 119.079C84.1252 119.079 84.1506 119.079 84.1759 119.079C84.1795 119.079 84.1831 119.079 84.1831 119.079C84.9456 119.079 85.6791 118.845 86.3982 118.611C87.1137 118.376 87.8184 118.142 88.5158 118.142C88.5447 118.142 88.57 118.143 88.5989 118.143C89.9721 118.179 91.0888 119.393 92.6029 119.433C92.6318 119.433 92.6607 119.434 92.6896 119.434C94.135 119.434 96.2671 118.476 96.7044 116.973C97.1633 115.38 95.9455 114.419 94.4711 114.398C94.4711 114.398 94.4711 114.398 94.4675 114.398C94.2904 114.398 93.5713 114.505 92.686 114.612C91.8006 114.719 90.7454 114.826 89.8998 114.826C88.6025 114.826 87.7895 114.576 88.8013 113.693C89.8457 112.784 92.4836 112.209 94.7602 112.209C96.09 112.209 97.2934 112.405 97.9836 112.845C98.8508 113.398 99.252 114.558 100.419 114.634C100.47 114.638 100.52 114.639 100.571 114.639C102.309 114.639 103.596 112.635 103.693 111.121C103.791 109.558 103.867 108.603 105.406 107.728C107.065 106.785 109.414 106.525 111.275 106.236C116.59 105.408 120.641 101.516 125.693 100.006C128.544 99.1529 130.904 97.6677 133.318 95.9259C135.284 94.5021 136.61 92.5038 138.446 90.9572C138.525 90.8885 138.68 90.7801 138.883 90.65C139.128 91.0692 139.367 91.4848 139.602 91.9003C139.439 92.0051 139.291 92.1063 139.183 92.193C138.38 92.8146 137.538 93.4433 136.805 94.1516C134.149 96.7245 131.269 99.2252 127.98 101.057C124.316 103.099 120.471 104.483 116.54 105.881C114.487 106.611 112.521 107.677 110.508 108.548C109.085 109.163 107.498 109.786 106.385 110.888C105.366 111.896 105.916 112.616 105.54 113.787C105.196 114.846 103.82 115.608 102.754 115.831C102.548 115.874 102.356 115.891 102.165 115.891C101.825 115.891 101.5 115.837 101.178 115.783C100.86 115.73 100.535 115.676 100.195 115.676C100.112 115.676 100.033 115.679 99.9494 115.686C98.5401 115.799 98.7641 116.239 98.634 117.323C98.5039 118.402 97.3584 118.94 96.2852 119.693C95.2227 120.438 94.0844 120.981 92.8088 121.185C91.9307 121.326 91.0526 121.373 90.1745 121.373C88.4436 121.373 86.7054 121.19 84.942 121.186C84.9311 121.186 84.9239 121.186 84.913 121.186C82.846 121.186 80.92 121.746 79.0879 122.733C77.7689 123.444 73.7902 125.716 73.7252 127.39C73.6746 128.773 75.1743 128.054 75.9584 128.467C77.487 129.274 75.5176 129.739 74.6394 129.962C74.2347 130.064 73.8336 130.102 73.4397 130.102" fill="#E6867B"/>
<path d="M51.7345 145.25L49.4173 142.304C49.6344 142.141 49.8227 142.03 49.9791 141.991C51.1026 141.695 52.3793 142.09 53.4645 141.525C55.1402 140.651 56.5828 138.548 57.8244 137.185C58.7309 136.189 58.9352 135.917 59.998 135.917C60.1513 135.917 60.3204 135.924 60.5119 135.933C60.7609 135.946 61.013 135.956 61.2652 135.956C62.3408 135.956 63.3909 135.787 64.2303 135.001C65.2517 134.041 64.9293 133.144 65.4496 132.094C65.8645 131.261 67.2848 130.472 68.1179 130.105C68.6126 129.888 69.0978 129.789 69.5829 129.761C69.3818 130.207 69.2223 130.645 69.1106 131.072C68.5233 133.402 70.8373 139.831 69.101 140.016C67.0455 140.233 56.2796 141.158 51.7345 145.25V145.25ZM47.5629 139.952L47.0586 139.31C47.4959 138.911 47.9108 138.522 48.2906 138.149C48.0097 138.723 47.7831 139.317 47.6076 139.821C47.5916 139.863 47.5788 139.907 47.5629 139.952" fill="#B44B49"/>
<path d="M72.3599 106.276C72.3631 106.254 72.3696 106.234 72.376 106.212C73.8271 104.292 75.2038 102.379 77.3497 101.16C77.3562 101.164 77.3562 101.173 77.3594 101.193C75.2006 102.418 73.8174 104.347 72.3599 106.276" fill="#D7C1C1"/>
<path d="M53.382 137.083C52.8552 137.083 52.3478 136.924 51.8469 136.543C51.3039 136.129 50.9775 135.806 50.5799 135.806C50.4668 135.806 50.3505 135.832 50.2212 135.887C52.0634 132.729 52.364 129.103 53.6374 125.764C54.1965 124.307 54.8106 123.049 55.5119 121.938C56.7045 121.582 57.9165 121.356 59.1414 121.301C63.734 121.1 67.37 118.609 70.9866 115.923C71.7816 115.335 72.6058 114.801 73.4461 114.294C73.3071 116.349 73.4752 119.623 73.4428 121.359C73.4202 122.623 72.8449 123.945 72.1145 125.27C71.8721 125.567 71.5909 125.848 71.2419 126.104C69.8198 127.141 68.4785 127.244 66.9498 127.732C65.4049 128.224 64.5775 129.5 62.8808 129.61C61.6785 129.688 60.9287 129.539 59.93 130.305C57.7258 131.995 57.3638 135.657 54.8978 136.721C54.3742 136.944 53.8701 137.083 53.382 137.083ZM59.4355 117.655C60.1886 117.077 61.0095 116.534 61.908 116.007C65.8089 113.715 70.3014 112.849 72.0498 107.332C72.163 106.98 72.2632 106.628 72.3601 106.279C73.8178 104.346 75.201 102.417 77.36 101.195C77.389 101.576 76.4259 104.924 74.8552 109.488C72.7641 111.573 70.812 113.845 68.2976 115.571C65.5762 117.442 62.5091 117.461 59.4355 117.655" fill="#B44B49"/>
<path d="M55.5093 121.939C56.59 120.224 57.8669 118.861 59.4365 117.658C62.5082 117.461 65.5735 117.442 68.2946 115.573C70.8098 113.843 72.7622 111.572 74.8561 109.488C74.4926 110.54 74.1002 111.656 73.6789 112.817C73.5631 113.135 73.4891 113.656 73.444 114.293C72.6046 114.801 71.7779 115.332 70.9835 115.924C67.3714 118.61 63.7337 121.099 59.1406 121.302C57.9184 121.353 56.7026 121.582 55.5093 121.939Z" fill="#C66D65"/>
<path d="M49.417 142.304L47.5645 139.952C47.5805 139.908 47.5932 139.863 47.6092 139.821C47.7852 139.316 48.0124 138.721 48.2908 138.148C49.1739 137.278 49.8682 136.494 50.2137 135.899C50.2169 135.895 50.2201 135.892 50.2201 135.889C50.3513 135.831 50.4665 135.806 50.5785 135.806C50.9784 135.806 51.3016 136.129 51.8455 136.545C52.3447 136.926 52.8534 137.082 53.3813 137.082C53.8677 137.082 54.3732 136.945 54.898 136.721C57.3649 135.655 57.7232 131.998 59.9277 130.306C60.9292 129.538 61.6779 129.688 62.8778 129.611C64.5768 129.503 65.4055 128.223 66.9509 127.733C68.4771 127.244 69.8209 127.141 71.2383 126.105C71.5903 125.852 71.8719 125.567 72.115 125.269C71.2767 126.789 70.2337 128.316 69.5842 129.762C69.0978 129.791 68.6147 129.886 68.1219 130.104C67.2868 130.472 65.8662 131.262 65.4503 132.094C64.9287 133.144 65.2551 134.04 64.2312 134.999C63.3929 135.783 62.3434 135.953 61.2652 135.953C61.0156 135.953 60.7628 135.947 60.5133 135.934C60.3213 135.924 60.1517 135.918 59.9981 135.918C58.9358 135.918 58.7311 136.19 57.8256 137.182C56.5842 138.548 55.1411 140.65 53.4645 141.523C52.3798 142.09 51.1032 141.696 49.9802 141.991C49.8234 142.029 49.6346 142.141 49.417 142.304Z" fill="#C66D65"/>
<path d="M86.9022 48.2418C82.1578 51.8129 76.8607 53.7221 73.2693 59.2601C71.4855 62.007 71.3939 65.032 70.3799 68.1622C68.9827 72.4691 65.7203 74.8124 62.1459 76.1249C56.5639 78.1766 51.616 80.9371 50.6427 88.4996C49.6592 96.1741 47.3159 101.76 40.4485 103.903C36.5316 105.127 31.9636 106.548 30.4239 111.604C29.8203 113.582 26.8767 123.979 22 127.665L38.1798 146.359C38.3934 146.373 48.496 138.836 50.2154 135.9C52.0603 132.739 52.3621 129.107 53.6372 125.763C55.4685 120.971 57.934 118.343 61.9051 116.01C65.8085 113.717 70.2985 112.849 72.0484 107.335C73.4694 102.858 73.2863 98.6124 76.3113 94.7532C79.0989 91.1957 82.9684 90.8735 86.2375 88.3776C90.0188 85.4848 91.0599 80.2351 92.5487 75.5348C94.0409 70.8175 100.016 64.0892 103.357 61.0507C97.1473 57.6289 91.8263 51.5755 86.9022 48.2418" fill="#DB5F56"/>
<path d="M90.1529 50.7845C88.169 51.8146 86.5906 53.978 84.6765 55.1477C82.0512 56.7627 79.1402 57.085 77.4288 59.8C75.8071 62.3754 75.518 65.446 74.9398 68.3769C74.345 71.3777 72.7931 72.9462 70.2576 74.5479C68.7855 75.4817 66.9644 76.2361 65.7216 77.4756C64.831 78.3662 64.5917 79.5924 63.9669 80.6591C61.8003 84.3411 57.4869 85.5141 54.4862 88.2391C52.15 90.3625 52.1766 92.2467 51.9174 95.1744C51.6914 97.7431 50.4519 100.325 48.6109 102.076C47.1853 103.429 42.975 105.775 43.1544 108.001C44.0251 107.898 45.0386 106.978 45.8096 106.629C43.7459 113.302 34.4645 113.375 30.6131 118.456C29.0113 120.569 28.5328 123.284 27.3431 125.597C26.9211 126.415 25.4855 129.545 24.4487 130.668L27.7718 134.503C27.8815 134.221 27.9778 133.962 28.0676 133.736C29.0346 131.286 30.2974 128.359 32.7199 127.063C34.5642 126.073 36.6544 125.916 38.3359 124.531C39.7217 123.384 40.9479 122.022 42.3203 120.865C43.171 120.151 44.148 119.373 44.7794 118.426C45.3643 117.545 45.7498 116.459 44.1879 116.671C43.1843 116.808 42.3635 117.838 41.6191 118.403C40.8947 118.954 37.1828 122.769 37.1596 120.071C37.143 117.994 40.9047 116.02 42.1708 114.83C43.3472 113.727 44.4438 112.853 45.8495 112.089C46.6802 111.637 47.614 111.168 48.2587 110.481C49.6743 108.975 50.2526 106.852 50.8607 104.974C51.5552 102.831 53.3696 102.057 54.3964 100.179C55.0311 99.0159 54.6656 98.318 54.5958 97.135C54.5094 95.6595 55.277 94.6028 56.1743 93.4829C58.6168 90.4423 62.1625 88.6146 64.5518 85.667C66.2067 83.6233 67.6456 81.5896 69.9319 80.257C72.5339 78.7417 74.0692 76.575 75.4084 73.8202C76.8838 70.7829 78.7015 67.7489 79.2931 64.366C79.6985 62.0531 81.6392 61.0628 83.5067 59.7169C85.6335 58.185 87.6806 56.5301 89.7143 54.8885C90.4288 54.3136 91.5619 53.4729 92.2432 52.5823C91.5353 51.9675 90.8408 51.3627 90.1529 50.7845" fill="#FFB7A4"/>
<path d="M90.9913 61.0687C88.9372 62.4636 86.7267 62.72 85.5782 65.2767C84.4729 67.7469 85.1154 70.2637 83.1845 72.4443C81.7763 74.0356 79.6058 75.4238 78.6237 77.358C78.1376 78.3101 78.2175 79.3288 77.8913 80.2909C77.5917 81.1731 76.9824 82.0154 76.3965 82.7411C75.8738 83.387 71.6759 87.5883 71.9488 85.6941C72.1985 83.9496 75.9171 83.1173 75.9038 81.3363C75.8872 78.8228 72.0321 83.8264 71.5727 84.3491C70.1611 85.957 68.7196 87.3186 67.0018 88.5937C66.1795 89.2062 65.021 90.0019 65.0177 91.1404C65.0177 92.2557 66.2128 92.9382 66.1928 94.0667C66.1762 95.0422 65.6469 96.2273 65.1309 97.0196C63.9823 98.7807 62.6573 100.841 61.3057 102.403C60.5101 103.322 59.6678 103.158 58.8588 102.992C58.0266 102.822 57.2342 102.652 56.5618 103.661C56.0757 104.39 56.0757 105.419 55.6862 106.265C55.1702 107.373 54.3479 108.205 53.5489 109.101C51.951 110.899 50.8224 112.347 50.363 114.664C49.827 117.394 50.2032 119.834 48.8715 122.467C46.904 126.369 43.3153 128.599 39.2471 129.755C36.3309 130.584 33.8374 132.192 32.7454 135.168C32.256 136.496 32.2827 138.043 32.3293 139.535L34.5731 142.127C34.5831 140.91 34.3634 139.652 35.0259 138.529C36.9967 135.208 41.2346 133.144 44.4172 131.16C47.0505 129.515 48.7118 126.748 50.5394 124.312C51.6181 122.87 52.3638 121.179 52.7233 119.461C53.246 116.964 53.9617 114.614 55.7495 112.61C57.0778 111.118 59.4814 110.13 59.8642 108.135C60.034 107.27 59.9075 106.045 60.5933 105.356C61.2691 104.683 62.4809 104.687 63.2399 104.007C64.7547 102.649 65.9165 100.885 67.2448 99.3633C69.0392 97.3093 68.4566 96.0575 68.0338 93.7405C67.7409 92.1225 68.4766 89.8854 69.9614 88.9699C71.5926 87.9611 73.8098 88.5504 75.5509 87.4518C77.7415 86.0669 78.0977 83.1872 79.0931 80.9867C79.4992 80.0845 79.922 79.0825 80.6944 78.4399C81.4468 77.8174 82.2757 77.7808 82.9249 77.0051C84.2532 75.4238 84.9723 72.7572 85.3784 70.803C85.718 69.1651 86.1807 66.6916 87.1362 65.3033C88.1083 63.8885 90.0225 63.0362 91.4673 62.174C92.0199 61.8477 93.2218 61.2318 92.9854 60.3896C92.6392 59.1478 91.5439 60.6959 90.9913 61.0687" fill="#FFB7A4"/>
<path d="M74.6245 90.7002C73.0459 90.7002 71.1988 89.9109 69.5777 89.2494C69.6989 89.1479 69.8233 89.0529 69.9576 88.971C71.5918 87.9623 73.8057 88.5518 75.548 87.4514C76.0753 87.1173 76.5011 86.6949 76.8515 86.2167C77.3198 86.2069 77.7914 86.1971 78.263 86.1971C79.2684 86.1971 80.2738 86.2364 81.2793 86.3706C84.4036 86.7866 82.6843 88.5322 80.8142 89.4459C79.1178 90.2745 76.5174 90.6969 74.6376 90.7002C74.6343 90.7002 74.631 90.7002 74.6245 90.7002V90.7002ZM67.3114 88.3618C66.0472 87.8346 64.8093 87.2484 63.5222 86.8095C63.8825 86.446 64.2263 86.0694 64.5506 85.6698C65.1335 84.9493 65.6903 84.2288 66.2667 83.5411C66.9086 83.6164 67.6029 83.6524 68.3954 83.6983C68.0679 84.6709 67.4326 85.0836 68.5231 85.696C68.8572 85.8892 69.3714 86.0071 69.9347 86.0857C69.1127 86.8914 68.2546 87.6413 67.3114 88.3618V88.3618ZM56.7463 85.7975C56.0716 85.7975 55.4002 85.7386 54.8304 85.4078C52.8981 84.291 54.2409 81.2223 56.0781 81.2223C56.0912 81.2223 56.1076 81.2223 56.1207 81.2223L57.0574 80.6361C57.5093 80.5575 57.9482 80.5182 58.3772 80.5182C59.8018 80.5182 61.102 80.9636 62.3236 81.9298C62.4742 82.0477 62.6183 82.159 62.7657 82.2605C61.4131 83.7179 59.6806 84.7332 57.9678 85.7779C57.958 85.7779 57.9449 85.7779 57.9351 85.7779C57.7419 85.7779 57.5454 85.7811 57.3456 85.7877C57.1458 85.7942 56.9493 85.7975 56.7463 85.7975Z" fill="#E27166"/>
<path d="M63.5221 86.8086C62.9684 86.6219 62.4085 86.4606 61.8295 86.3403C60.6557 86.1031 59.5168 85.8468 58.3209 85.7835C58.2038 85.7804 58.0899 85.7772 57.9697 85.7772C59.6813 84.73 61.415 83.7176 62.7659 82.2591C63.9555 83.0943 65.009 83.3917 66.2682 83.5404C65.6924 84.227 65.1356 84.9483 64.5503 85.6665C64.2276 86.0683 63.8828 86.4448 63.5221 86.8086" fill="#FFB7A4"/>
<path d="M69.5778 89.2505C69.1806 89.0891 68.7964 88.9341 68.4348 88.8017C68.0571 88.6629 67.6858 88.5144 67.3145 88.3594C68.254 87.6394 69.1128 86.8903 69.9361 86.0832C70.9112 86.2188 72.0509 86.2252 72.7354 86.2543C73.1454 86.2704 73.5523 86.2737 73.9591 86.2737C74.6791 86.2737 75.3991 86.2543 76.1158 86.2349C76.3612 86.2285 76.6066 86.222 76.852 86.2155C76.5 86.6934 76.0771 87.1164 75.5476 87.4521C73.8073 88.5499 71.5925 87.9623 69.9587 88.9696C69.8264 89.0536 69.6972 89.1472 69.5778 89.2505" fill="#FFB7A4"/>
<path d="M92.7886 67.2456C92.3748 67.2456 91.9343 67.0153 91.4905 66.705C90.3792 65.9308 89.3481 65.0098 88.3036 64.1054C89.1612 63.438 90.1957 62.9041 91.1 62.3869C91.8776 62.8173 92.5917 63.2945 93.1323 63.9019C93.8231 64.6794 94.5205 65.4336 93.8932 66.4781C93.5595 67.0354 93.1857 67.2456 92.7886 67.2456V67.2456ZM87.2424 63.2011C86.9354 62.9475 86.6284 62.7039 86.318 62.4669C85.2969 61.6961 84.2691 61.0053 83.041 60.5948C82.8575 60.5314 82.664 60.4814 82.4704 60.438C82.8108 60.2044 83.1612 59.9641 83.5082 59.7172C84.209 59.21 84.8998 58.6927 85.5872 58.1655C86.2012 59.9575 88.04 60.8384 89.8553 61.7428C88.9343 62.2266 88.0266 62.6138 87.2424 63.2011V63.2011ZM78.0588 58.9597C76.9342 57.191 79.4737 54.0075 81.1689 53.4835L82.1033 52.8995C82.5638 52.6426 83.0377 52.4891 83.4915 52.4891C84.0655 52.4891 84.6095 52.7327 85.0566 53.3367C85.3503 53.7238 85.4671 54.1409 85.5005 54.5748C85.2302 54.785 84.9565 54.9752 84.6762 55.1487C82.3503 56.577 79.8007 56.9941 78.0588 58.9597" fill="#E27166"/>
<path d="M82.4681 60.4395C81.2931 60.1834 79.9605 60.2097 78.9101 59.6911C78.5196 59.4942 78.2406 59.2447 78.0601 58.9591C79.7997 56.9964 82.35 56.5762 84.6771 55.1485C84.9561 54.9778 85.2318 54.7841 85.4976 54.5773C85.56 55.3913 85.327 56.2611 85.3795 57.108C85.4057 57.492 85.4779 57.8465 85.5863 58.1681C84.9003 58.6933 84.2077 59.2119 83.5086 59.7174C83.1607 59.9668 82.8128 60.2031 82.4681 60.4395" fill="#FFB7A4"/>
<path d="M88.3052 64.1057C87.9537 63.8006 87.5989 63.4956 87.2407 63.2004C88.0266 62.6135 88.932 62.2288 89.8538 61.7414C90.275 61.9536 90.6961 62.1625 91.1007 62.388C90.1954 62.9053 89.1608 63.4359 88.3052 64.1057Z" fill="#FFB7A4"/>
<path d="M53.0378 118.085C53.3799 116.758 53.8276 115.483 54.521 114.298C56.6976 115.007 57.4065 116.667 55.0931 117.644C54.4277 117.924 53.7375 118.06 53.0378 118.085V118.085ZM50.0031 117.622C47.4503 116.841 44.8757 115.274 42.6245 114.416C43.6351 113.505 44.627 112.756 45.849 112.09C46.076 111.966 46.3092 111.842 46.5455 111.711C47.6089 112.143 47.8576 112.61 48.5075 113.403C48.9397 113.931 49.6611 114.096 50.4819 114.13C50.4384 114.304 50.398 114.481 50.3607 114.665C50.1617 115.682 50.0871 116.661 50.0031 117.622V117.622ZM34.9227 113.891C34.3257 113.891 33.738 113.807 33.1814 113.549C30.9644 112.526 33.3027 108.723 33.3027 108.723C33.7038 108.356 34.2106 108.216 34.7392 108.216C35.899 108.216 37.1614 108.897 37.606 109.332C39.198 110.903 40.4822 110.856 42.5313 111.03C41.1631 112.047 39.5401 112.833 37.9045 113.608C37.7739 113.614 37.6433 113.626 37.5128 113.639C36.6701 113.717 35.7871 113.891 34.9227 113.891" fill="#E27166"/>
<path d="M42.6231 114.415C42.4709 114.354 42.3188 114.3 42.1667 114.248C40.9191 113.822 39.7416 113.591 38.4911 113.591C38.2963 113.591 38.1016 113.597 37.9038 113.609C39.5408 112.833 41.1626 112.045 42.5318 111.029C42.6505 111.041 42.7752 111.05 42.8969 111.062C44.0471 111.172 45.1851 111.217 46.2957 111.616C46.3809 111.646 46.4661 111.68 46.5452 111.71C46.3109 111.841 46.0766 111.966 45.8484 112.091C44.6252 112.757 43.6363 113.502 42.6231 114.415" fill="#FFB7A4"/>
<path d="M52.7919 118.088C51.8799 118.088 50.9462 117.909 50.0063 117.621C50.0898 116.66 50.164 115.679 50.3619 114.662C50.4021 114.48 50.4423 114.301 50.4824 114.131C50.6185 114.134 50.7514 114.137 50.8906 114.137C51.2214 114.137 51.5584 114.124 51.8954 114.112C52.2385 114.097 52.5786 114.084 52.9063 114.084C53.435 114.084 53.939 114.118 54.3687 114.245C54.4213 114.26 54.4738 114.279 54.5233 114.294C53.8277 115.482 53.3824 116.755 53.0424 118.085C52.9589 118.085 52.8785 118.088 52.7919 118.088" fill="#FFB7A4"/>
</g>
<defs>
<filter id="filter0_d_229_2132" x="18" y="48.2419" width="128" height="106.117" filterUnits="userSpaceOnUse" color-interpolation-filters="sRGB">
<feFlood flood-opacity="0" result="BackgroundImageFix"/>
<feColorMatrix in="SourceAlpha" type="matrix" values="0 0 0 0 0 0 0 0 0 0 0 0 0 0 0 0 0 0 127 0" result="hardAlpha"/>
<feOffset dy="4"/>
<feGaussianBlur stdDeviation="2"/>
<feComposite in2="hardAlpha" operator="out"/>
<feColorMatrix type="matrix" values="0 0 0 0 0 0 0 0 0 0 0 0 0 0 0 0 0 0 0.25 0"/>
<feBlend mode="normal" in2="BackgroundImageFix" result="effect1_dropShadow_229_2132"/>
<feBlend mode="normal" in="SourceGraphic" in2="effect1_dropShadow_229_2132" result="shape"/>
</filter>
</defs>
</svg>
