<svg width="165" height="165" viewBox="0 0 165 165" fill="none" xmlns="http://www.w3.org/2000/svg">
<path d="M165 155C165 160.523 160.523 165 155 165L10 165C4.47716 165 3.70928e-06 160.523 3.87334e-06 155L8.18078e-06 9.99999C8.34485e-06 4.47715 4.47716 -2.94834e-06 10 -1.94459e-06L155 2.44086e-05C160.523 2.54123e-05 165 4.47718 165 10L165 155Z" fill="white"/>
<path d="M155 164.5L10 164.5C4.7533 164.5 0.5 160.247 0.5 155L0.500005 10C0.500005 4.7533 4.7533 0.500001 10 0.500002L155 0.500029C160.247 0.50003 164.5 4.75333 164.5 10L164.5 155C164.5 160.247 160.247 164.5 155 164.5Z" stroke="#8F9BBA" stroke-opacity="0.2"/>
<path d="M57.562 26C57.274 26 57.04 25.916 56.86 25.748C56.692 25.568 56.608 25.346 56.608 25.082V14.3H58.534V25.082C58.534 25.346 58.438 25.568 58.246 25.748C58.066 25.916 57.838 26 57.562 26ZM53.476 15.128C53.224 15.128 53.008 15.05 52.828 14.894C52.648 14.726 52.558 14.51 52.558 14.246C52.558 13.994 52.648 13.79 52.828 13.634C53.008 13.478 53.224 13.4 53.476 13.4H61.666C61.918 13.4 62.128 13.484 62.296 13.652C62.476 13.808 62.566 14.012 62.566 14.264C62.566 14.528 62.476 14.738 62.296 14.894C62.128 15.05 61.918 15.128 61.666 15.128H53.476ZM70.9544 21.266C70.9544 22.226 70.7444 23.078 70.3244 23.822C69.9044 24.554 69.3344 25.13 68.6144 25.55C67.8944 25.97 67.0844 26.18 66.1844 26.18C65.2844 26.18 64.4744 25.97 63.7544 25.55C63.0344 25.13 62.4584 24.554 62.0264 23.822C61.6064 23.078 61.3964 22.226 61.3964 21.266C61.3964 20.294 61.6064 19.442 62.0264 18.71C62.4584 17.966 63.0344 17.384 63.7544 16.964C64.4744 16.532 65.2844 16.316 66.1844 16.316C67.0844 16.316 67.8944 16.532 68.6144 16.964C69.3344 17.384 69.9044 17.966 70.3244 18.71C70.7444 19.442 70.9544 20.294 70.9544 21.266ZM69.1544 21.266C69.1544 20.606 69.0224 20.036 68.7584 19.556C68.4944 19.064 68.1344 18.68 67.6784 18.404C67.2344 18.116 66.7364 17.972 66.1844 17.972C65.6324 17.972 65.1284 18.116 64.6724 18.404C64.2164 18.68 63.8564 19.064 63.5924 19.556C63.3284 20.036 63.1964 20.606 63.1964 21.266C63.1964 21.902 63.3284 22.466 63.5924 22.958C63.8564 23.45 64.2164 23.834 64.6724 24.11C65.1284 24.386 65.6324 24.524 66.1844 24.524C66.7364 24.524 67.2344 24.386 67.6784 24.11C68.1344 23.834 68.4944 23.45 68.7584 22.958C69.0224 22.466 69.1544 21.902 69.1544 21.266ZM77.3838 16.37C78.2718 16.37 78.9558 16.592 79.4358 17.036C79.9158 17.468 80.2338 18.056 80.3898 18.8L80.1018 18.71L80.2278 18.422C80.3838 18.11 80.6178 17.798 80.9298 17.486C81.2538 17.162 81.6378 16.898 82.0818 16.694C82.5258 16.478 82.9998 16.37 83.5038 16.37C84.3318 16.37 84.9738 16.55 85.4298 16.91C85.8858 17.258 86.2038 17.732 86.3838 18.332C86.5638 18.92 86.6538 19.58 86.6538 20.312V25.082C86.6538 25.346 86.5698 25.568 86.4018 25.748C86.2338 25.916 86.0178 26 85.7538 26C85.5018 26 85.2858 25.916 85.1058 25.748C84.9378 25.568 84.8538 25.346 84.8538 25.082V20.33C84.8538 19.91 84.7938 19.526 84.6738 19.178C84.5658 18.83 84.3678 18.554 84.0798 18.35C83.8038 18.134 83.4198 18.026 82.9278 18.026C82.4598 18.026 82.0398 18.134 81.6678 18.35C81.3078 18.554 81.0258 18.83 80.8218 19.178C80.6178 19.526 80.5158 19.91 80.5158 20.33V25.082C80.5158 25.346 80.4318 25.568 80.2638 25.748C80.0958 25.916 79.8798 26 79.6158 26C79.3518 26 79.1358 25.916 78.9678 25.748C78.7998 25.568 78.7158 25.346 78.7158 25.082V20.312C78.7158 19.892 78.6558 19.508 78.5358 19.16C78.4278 18.812 78.2358 18.536 77.9598 18.332C77.6838 18.128 77.2998 18.026 76.8078 18.026C76.3398 18.026 75.9258 18.128 75.5658 18.332C75.2058 18.536 74.9238 18.812 74.7198 19.16C74.5278 19.508 74.4318 19.892 74.4318 20.312V25.082C74.4318 25.346 74.3418 25.568 74.1618 25.748C73.9938 25.916 73.7838 26 73.5318 26C73.2678 26 73.0518 25.916 72.8838 25.748C72.7158 25.568 72.6318 25.346 72.6318 25.082V17.45C72.6318 17.186 72.7158 16.97 72.8838 16.802C73.0518 16.622 73.2678 16.532 73.5318 16.532C73.7838 16.532 73.9938 16.622 74.1618 16.802C74.3418 16.97 74.4318 17.186 74.4318 17.45V18.512L74.0898 18.71C74.1738 18.446 74.3118 18.176 74.5038 17.9C74.6958 17.624 74.9358 17.372 75.2238 17.144C75.5238 16.916 75.8538 16.73 76.2138 16.586C76.5738 16.442 76.9638 16.37 77.3838 16.37ZM96.5708 16.388C96.8348 16.388 97.0508 16.478 97.2188 16.658C97.3868 16.826 97.4708 17.042 97.4708 17.306V25.082C97.4708 25.346 97.3868 25.568 97.2188 25.748C97.0508 25.916 96.8348 26 96.5708 26C96.3188 26 96.1028 25.916 95.9228 25.748C95.7548 25.568 95.6708 25.346 95.6708 25.082V23.786L96.0488 23.84C96.0488 24.056 95.9588 24.296 95.7788 24.56C95.6108 24.824 95.3768 25.082 95.0768 25.334C94.7768 25.574 94.4228 25.778 94.0148 25.946C93.6068 26.102 93.1688 26.18 92.7008 26.18C91.8728 26.18 91.1288 25.97 90.4688 25.55C89.8088 25.118 89.2868 24.53 88.9028 23.786C88.5188 23.042 88.3268 22.196 88.3268 21.248C88.3268 20.276 88.5188 19.424 88.9028 18.692C89.2868 17.948 89.8028 17.366 90.4508 16.946C91.1108 16.526 91.8428 16.316 92.6468 16.316C93.1628 16.316 93.6368 16.4 94.0688 16.568C94.5128 16.736 94.8968 16.952 95.2208 17.216C95.5448 17.48 95.7908 17.762 95.9588 18.062C96.1388 18.35 96.2288 18.626 96.2288 18.89L95.6708 18.944V17.306C95.6708 17.054 95.7548 16.838 95.9228 16.658C96.1028 16.478 96.3188 16.388 96.5708 16.388ZM92.8988 24.524C93.4628 24.524 93.9608 24.38 94.3928 24.092C94.8248 23.804 95.1608 23.414 95.4008 22.922C95.6408 22.418 95.7608 21.86 95.7608 21.248C95.7608 20.624 95.6408 20.066 95.4008 19.574C95.1608 19.082 94.8248 18.692 94.3928 18.404C93.9608 18.116 93.4628 17.972 92.8988 17.972C92.3468 17.972 91.8548 18.116 91.4228 18.404C91.0028 18.692 90.6668 19.082 90.4148 19.574C90.1748 20.066 90.0548 20.624 90.0548 21.248C90.0548 21.86 90.1748 22.418 90.4148 22.922C90.6668 23.414 91.0028 23.804 91.4228 24.092C91.8548 24.38 92.3468 24.524 92.8988 24.524ZM99.5065 16.64H103.737C103.977 16.64 104.175 16.724 104.331 16.892C104.499 17.048 104.583 17.246 104.583 17.486C104.583 17.714 104.499 17.906 104.331 18.062C104.175 18.218 103.977 18.296 103.737 18.296H99.5065C99.2665 18.296 99.0625 18.218 98.8945 18.062C98.7385 17.894 98.6605 17.696 98.6605 17.468C98.6605 17.228 98.7385 17.03 98.8945 16.874C99.0625 16.718 99.2665 16.64 99.5065 16.64ZM101.397 14.3C101.661 14.3 101.877 14.39 102.045 14.57C102.213 14.738 102.297 14.954 102.297 15.218V23.57C102.297 23.786 102.333 23.96 102.405 24.092C102.477 24.224 102.573 24.314 102.693 24.362C102.825 24.41 102.957 24.434 103.089 24.434C103.221 24.434 103.335 24.41 103.431 24.362C103.539 24.314 103.665 24.29 103.809 24.29C103.953 24.29 104.085 24.356 104.205 24.488C104.325 24.62 104.385 24.8 104.385 25.028C104.385 25.316 104.229 25.55 103.917 25.73C103.605 25.91 103.269 26 102.909 26C102.705 26 102.465 25.982 102.189 25.946C101.913 25.91 101.643 25.82 101.379 25.676C101.127 25.532 100.917 25.304 100.749 24.992C100.581 24.668 100.497 24.218 100.497 23.642V15.218C100.497 14.954 100.581 14.738 100.749 14.57C100.929 14.39 101.145 14.3 101.397 14.3ZM115.2 21.266C115.2 22.226 114.99 23.078 114.57 23.822C114.15 24.554 113.58 25.13 112.86 25.55C112.14 25.97 111.33 26.18 110.43 26.18C109.53 26.18 108.72 25.97 108 25.55C107.28 25.13 106.704 24.554 106.272 23.822C105.852 23.078 105.642 22.226 105.642 21.266C105.642 20.294 105.852 19.442 106.272 18.71C106.704 17.966 107.28 17.384 108 16.964C108.72 16.532 109.53 16.316 110.43 16.316C111.33 16.316 112.14 16.532 112.86 16.964C113.58 17.384 114.15 17.966 114.57 18.71C114.99 19.442 115.2 20.294 115.2 21.266ZM113.4 21.266C113.4 20.606 113.268 20.036 113.004 19.556C112.74 19.064 112.38 18.68 111.924 18.404C111.48 18.116 110.982 17.972 110.43 17.972C109.878 17.972 109.374 18.116 108.918 18.404C108.462 18.68 108.102 19.064 107.838 19.556C107.574 20.036 107.442 20.606 107.442 21.266C107.442 21.902 107.574 22.466 107.838 22.958C108.102 23.45 108.462 23.834 108.918 24.11C109.374 24.386 109.878 24.524 110.43 24.524C110.982 24.524 111.48 24.386 111.924 24.11C112.38 23.834 112.74 23.45 113.004 22.958C113.268 22.466 113.4 21.902 113.4 21.266Z" fill="#6C7693"/>
<rect x="10" y="39" width="145" height="118" rx="10" fill="#FFB68C" fill-opacity="0.5"/>
<g filter="url(#filter0_d_229_2134)">
<path d="M101.689 81.5906C102.019 81.7979 103.088 81.7198 104.637 81.6416C108.91 81.4255 116.821 81.2094 122.736 87.0461C125.349 89.6213 125.708 96.979 123.625 102.098C121.541 107.215 114.238 112.281 104.715 113.211C86.7902 114.959 74.6059 107.828 68.8902 103.641C59.9061 97.0567 57.8908 81.9922 63.3735 73.9134C64.6361 72.0491 67.3459 70.8141 69.5069 69.5253C83.7939 60.9876 93.2296 68.7842 96.6435 71.3386C101.699 75.1202 99.9312 80.4868 101.689 81.5906" fill="#E22727"/>
<path d="M103.434 77.1934C104.679 77.974 113.652 76.8909 121.702 84.8357C126.92 89.9868 125.505 106.957 106.454 108.813C88.5315 110.561 76.348 103.43 70.6332 99.2423C59.5733 91.14 58.0606 74.3355 69.5681 67.4607C83.8624 58.9221 94.971 64.3869 98.3853 66.9413C103.439 70.7228 101.673 76.0893 103.434 77.1934" fill="#FF6A5F"/>
<path d="M120.336 89.4141C115.917 86.6368 111.63 85.6095 108.041 85.4199C105.924 84.7345 103.84 84.3298 102.388 84.3298C101.911 84.3298 101.501 84.3742 101.182 84.4688C100.247 84.7461 95.9394 86.2143 91.3863 87.9922C90.3107 87.0511 89.1483 86.3928 87.9907 86.0913C87.383 85.9346 86.7897 85.8024 86.2061 85.6929C89.1531 83.9377 91.7528 82.0234 92.8815 80.4269C95.1966 77.1509 94.1404 71.7141 90.0406 69.52C88.8541 68.8838 87.1322 68.523 85.2173 68.523C80.5243 68.523 74.6688 70.6872 72.672 76.2692C71.1285 80.5831 71.225 84.5329 71.8376 87.2556C70.0578 87.968 68.8664 88.5975 68.3455 88.5975C68.3359 88.5975 68.331 88.5975 68.3214 88.597C67.3808 88.5628 66.6236 87.4153 65.495 86.099C64.3711 79.9802 66.3873 73.5257 71.8134 69.4703C76.41 66.0357 80.64 65.2186 84.2719 65.016C84.706 64.9919 85.1305 64.9803 85.5501 64.9803C91.4297 64.9803 95.978 67.2511 97.8061 69.1332C101.694 73.1408 99.1807 78.4324 100.743 79.4072C101.848 80.0965 111.157 78.5106 118.305 85.5168C119.255 86.4477 119.964 87.8151 120.336 89.4141" fill="#FA4C44"/>
<path d="M94.5639 91.1162C93.676 89.9406 92.7027 88.9621 91.7247 88.3003C91.6107 88.1944 91.5015 88.0913 91.3828 87.9921C95.936 86.2145 100.247 84.746 101.182 84.4683C101.501 84.3743 101.909 84.3296 102.388 84.3296C103.836 84.3296 105.926 84.7346 108.043 85.4197C107.606 85.3965 107.184 85.386 106.771 85.386C103.737 85.386 101.315 85.9615 99.9052 86.4704C96.9995 87.5183 95.5372 89.4008 94.5639 91.1162Z" fill="#F94840"/>
<path d="M71.8403 87.2544C71.224 84.5323 71.1306 80.5823 72.676 76.2686C74.6697 70.6863 80.5248 68.5221 85.2172 68.5221C87.1361 68.5221 88.859 68.8831 90.0449 69.519C94.1444 71.713 95.1996 77.1501 92.8838 80.4259C91.7539 82.0222 89.1532 83.937 86.207 85.6921C84.5869 85.3872 83.0554 85.2598 81.622 85.2598C77.9568 85.2598 74.9359 86.0941 72.6854 86.928C72.3912 87.0378 72.1111 87.147 71.8403 87.2544V87.2544ZM74.0394 84.4455C73.3344 84.4455 72.6574 84.6094 72.4426 84.9857C72.0317 85.6935 72.6667 85.9639 73.5072 85.9639C74.3756 85.9639 75.4588 85.6725 75.8137 85.2771L75.893 85.017C75.6783 84.6607 74.8425 84.4455 74.0394 84.4455V84.4455ZM73.9227 81.6973C73.227 81.6973 72.6154 81.9144 72.564 82.4892C72.522 83.0322 73.0682 83.225 73.7266 83.225C74.483 83.225 75.3981 82.9706 75.7483 82.6993L75.9444 82.3794C75.6876 82.0027 74.7491 81.6973 73.9227 81.6973ZM73.6612 78.7553C73.143 78.7553 72.7368 78.9234 72.6574 79.3945C72.5267 80.2065 73.5072 80.587 74.4783 80.587C75.2441 80.587 76.0098 80.3521 76.2292 79.9086L76.3973 79.6751C76.1312 79.3973 74.6791 78.7553 73.6612 78.7553ZM92.6223 77.7785C92.4775 77.7785 92.2908 77.8201 92.0573 77.9238C91.455 78.1876 90.5913 78.7745 90.8901 79.5234C90.9461 79.5309 91.0021 79.5346 91.0581 79.5346C91.7492 79.5346 92.5756 79.0121 92.9211 78.4476C93.0705 78.4266 93.1779 77.7785 92.6223 77.7785ZM74.2542 76.0407C73.7873 76.0407 73.4745 76.2466 73.5539 76.8247C73.6566 77.5544 74.5157 77.8486 75.3748 77.8486C76.0331 77.8486 76.6868 77.6768 77.0043 77.3966L76.8875 77.1702C76.8922 77.1655 76.8969 77.1632 76.9109 77.1632C76.9249 77.1632 76.9529 77.1753 76.9716 77.187C76.9949 77.1991 77.0136 77.2113 77.023 77.2113C77.0323 77.2113 77.0323 77.1935 77.0043 77.1379C76.6401 76.8018 75.16 76.0407 74.2542 76.0407V76.0407ZM92.3515 74.4453C91.6184 74.4453 90.4605 75.4641 90.4932 76.0981C90.5119 76.4973 90.75 76.658 91.0768 76.658C91.8519 76.658 93.1125 75.7284 92.9491 74.951L92.9211 75.0378C92.8744 74.6115 92.6456 74.4453 92.3515 74.4453V74.4453ZM74.9966 73.9901C74.7631 73.9901 74.595 74.0732 74.5297 74.2772C74.2495 75.1643 76.2012 75.8339 77.205 75.8339C77.4432 75.8339 77.6252 75.797 77.7186 75.7176L77.8867 75.4846C77.6066 75.1821 75.865 73.9901 74.9966 73.9901ZM91.2449 71.7036C90.2831 71.7036 89.2419 74.2025 90.0216 74.5382C90.0823 74.5634 90.143 74.5751 90.2084 74.5751C91.1048 74.5751 92.4029 72.2429 91.9733 71.6219L91.6932 71.9151C91.5484 71.7676 91.399 71.7036 91.2449 71.7036V71.7036ZM76.9249 72.1439C76.7148 72.1439 76.5327 72.2434 76.4206 72.4829C76.0564 73.2561 77.8634 74.3884 78.7412 74.3884C78.9139 74.3884 79.0493 74.3463 79.124 74.2511L79.2408 74.1913C79.1147 73.6221 77.756 72.1439 76.9249 72.1439V72.1439ZM79.2828 70.5686C79.2361 70.5686 79.1847 70.5705 79.1334 70.5747C78.8626 71.2914 79.5302 72.3498 80.0345 72.8438C80.3613 73.1599 80.9683 73.3929 81.3745 73.3929C81.7948 73.3929 82.0002 73.1501 81.4819 72.5039L81.4726 72.2177C80.8469 71.6784 80.4407 70.5686 79.2828 70.5686V70.5686ZM88.6069 69.8617C87.3976 69.8617 87.2062 72.7588 88.0186 72.9881C88.0606 73.0002 88.1027 73.0063 88.1447 73.0063C89.0691 73.0063 89.4193 70.0769 88.9851 69.8594L88.6956 69.8664C88.6629 69.8631 88.6396 69.8617 88.6069 69.8617ZM82.6772 69.5783C82.4624 69.5783 82.2943 69.7716 82.2476 70.273C82.1822 70.9099 82.4204 71.5654 82.976 71.9931C83.1815 72.1477 83.6297 72.3246 83.9472 72.3246C84.2413 72.3246 84.4234 72.1752 84.2086 71.7223L84.0826 71.4959C84.134 70.9141 83.2421 69.5783 82.6772 69.5783V69.5783ZM86.0389 69.0395C86.0202 69.0395 86.0062 69.0409 85.9922 69.0432L85.7354 69.25C84.6709 69.5227 85.1098 72.3013 86.1556 72.3013C86.2443 72.3013 86.3377 72.2807 86.4358 72.2368C87.2482 71.8741 86.7953 69.0395 86.0389 69.0395" fill="#F94840"/>
<path d="M91.0552 79.5344C91.004 79.5344 90.9434 79.5307 90.8875 79.5232C90.5895 78.7744 91.451 78.1873 92.0564 77.9237C92.2939 77.8198 92.4755 77.7784 92.6198 77.7784C93.1786 77.7784 93.0715 78.4266 92.9225 78.4476C92.5779 79.012 91.749 79.5344 91.0552 79.5344Z" fill="#F58161"/>
<path d="M91.0739 76.6582C90.7526 76.6582 90.5105 76.4975 90.4919 76.098C90.4593 75.4643 91.6187 74.4451 92.3497 74.4451C92.6477 74.4451 92.8712 74.6118 92.9225 75.0378L92.9504 74.9512C93.1134 75.7283 91.8515 76.6582 91.0739 76.6582Z" fill="#F58161"/>
<path d="M90.2072 74.5759C90.142 74.5759 90.0769 74.5639 90.0211 74.5383C89.2396 74.2029 90.2816 71.7039 91.2445 71.7039C91.3981 71.7039 91.5469 71.768 91.6911 71.9155L91.9703 71.6224C92.4029 72.243 91.105 74.5759 90.2072 74.5759" fill="#F58161"/>
<path d="M88.1447 73.0073C88.103 73.0073 88.0566 73.0013 88.0149 72.9892C87.2041 72.7599 87.394 69.8625 88.6034 69.8625C88.6358 69.8625 88.6636 69.8643 88.6914 69.8676L88.9833 69.8606C89.4189 70.078 89.0667 73.0073 88.1447 73.0073Z" fill="#F58161"/>
<path d="M86.1519 72.302C85.1077 72.302 84.6688 69.5238 85.7314 69.2508L85.9856 69.0443C86.004 69.0415 86.0179 69.0406 86.0364 69.0406C86.7941 69.0406 87.2469 71.8751 86.4337 72.2378C86.3367 72.2817 86.2443 72.302 86.1519 72.302Z" fill="#F58161"/>
<path d="M83.9481 72.3257C83.6259 72.3257 83.1794 72.1485 82.9722 71.9943C82.4153 71.5666 82.1759 70.9112 82.245 70.2741C82.291 69.7724 82.4613 69.5791 82.673 69.5791C83.2392 69.5791 84.1322 70.9149 84.0815 71.4967L84.2058 71.7231C84.4222 72.1761 84.2381 72.3257 83.9481 72.3257Z" fill="#F58161"/>
<path d="M81.3726 73.394C80.9643 73.394 80.3541 73.161 80.0329 72.8449C79.5282 72.3512 78.8629 71.2927 79.129 70.5756C79.1795 70.5719 79.23 70.5696 79.2804 70.5696C80.4366 70.5696 80.8404 71.6795 81.469 72.2186L81.4781 72.5053C81.9966 73.1513 81.7901 73.394 81.3726 73.394" fill="#F58161"/>
<path d="M78.7389 74.3894C77.8612 74.3894 76.0556 73.2576 76.4167 72.4837C76.531 72.2446 76.7093 72.1454 76.9242 72.1454C77.7515 72.1454 79.1137 73.6233 79.2371 74.1924L79.1229 74.2523C79.0452 74.3473 78.908 74.3894 78.7389 74.3894" fill="#F58161"/>
<path d="M77.2059 75.8335C76.2021 75.8335 74.2492 75.1641 74.5321 74.2771C74.596 74.0727 74.7648 73.9901 74.9975 73.9901C75.8645 73.9901 77.6075 75.1819 77.8858 75.4844L77.717 75.7171C77.6257 75.7965 77.4432 75.8335 77.2059 75.8335" fill="#F58161"/>
<path d="M75.3736 77.8489C74.5168 77.8489 73.6554 77.5549 73.5551 76.8252C73.4731 76.2469 73.783 76.0413 74.257 76.0413C75.1548 76.0413 76.6407 76.8025 77.0053 77.1384C77.0326 77.194 77.0326 77.2117 77.0235 77.2117C77.0144 77.2117 76.9916 77.1994 76.9733 77.1876C76.9506 77.1753 76.9232 77.1639 76.9095 77.1639C76.8959 77.1639 76.8913 77.1657 76.8867 77.1707L77.0053 77.3972C76.6862 77.677 76.0299 77.8489 75.3736 77.8489" fill="#F58161"/>
<path d="M74.4785 80.5876C73.504 80.5876 72.525 80.2074 72.657 79.3955C72.7344 78.9242 73.1397 78.7562 73.6589 78.7562C74.6789 78.7562 76.1315 79.3982 76.3956 79.676L76.2271 79.9091C76.0085 80.3531 75.2435 80.5876 74.4785 80.5876" fill="#F58161"/>
<path d="M73.7216 83.2261C73.0663 83.2261 72.5201 83.0331 72.5656 82.4902C72.6157 81.9154 73.2255 81.6979 73.9218 81.6979C74.7455 81.6979 75.6876 82.0032 75.9424 82.3801L75.7468 82.7C75.3963 82.9712 74.4816 83.2261 73.7216 83.2261Z" fill="#F58161"/>
<path d="M73.5051 85.9646C72.6678 85.9646 72.0262 85.6943 72.4403 84.9862C72.6542 84.6099 73.3322 84.4465 74.0375 84.4465C74.8384 84.4465 75.6757 84.6613 75.8896 85.0176L75.8077 85.2775C75.4573 85.6734 74.3743 85.9646 73.5051 85.9646" fill="#F58161"/>
<path d="M92.4124 99.5157C91.8872 99.6585 90.1547 98.8521 87.6613 98.0447C83.4256 96.6724 77.0106 95.2991 70.6791 98.6097C67.425 100.312 64.9022 107.242 65.3832 112.742C65.8593 118.24 71.3466 125.208 80.1764 128.867C96.7954 135.752 110.548 132.476 117.253 130.134C127.79 126.455 134.171 112.64 131.319 103.32C130.662 101.171 128.433 99.2026 126.755 97.3414C115.608 85.0214 104.285 89.7318 100.27 91.1812C94.3216 93.327 94.4247 98.9724 92.4124 99.5157" fill="#E22727"/>
<path d="M92.0489 94.8051C91.606 94.9247 90.4988 94.653 88.8798 94.3814C85.3071 93.7815 79.2395 93.1816 72.3205 96.7981C65.81 100.204 62.1488 116.84 79.8103 124.156C96.4336 131.041 110.183 127.765 116.89 125.423C129.857 120.895 136.269 105.269 127.298 95.3489C116.157 83.0286 103.918 85.0216 99.9029 86.4708C93.9534 88.6169 94.0567 94.2613 92.0489 94.8051" fill="#FF6A5F"/>
<path d="M99.9788 126.115C94.7787 126.115 88.7421 125.215 82.1968 122.56C83.904 121.616 85.6309 120.544 87.3626 119.322C91.4375 120.752 95.3217 121.271 98.6923 121.271C104.68 121.271 109.048 119.632 109.948 118.538C111.064 117.185 103.3 110.824 97.6013 106.481C98.4036 104.169 98.6776 101.957 98.3987 100.054C98.071 97.7821 97.1806 95.387 95.9968 93.2972C96.6474 91.6521 97.6894 89.9042 99.8125 88.7355C101.187 87.9763 103.54 87.3683 106.412 87.3683C108.677 87.3683 111.274 87.7483 113.965 88.7355C117.379 89.9849 121.185 91.9965 124.561 96.6164C131.522 106.135 126.385 119.615 114.889 123.597C111.612 124.732 106.436 126.115 99.9788 126.115V126.115ZM108.491 91.2382C107.997 91.2382 107.537 91.2793 107.116 91.3625C102.552 92.2685 99.9348 97.1589 101.182 100.966C102.845 106.04 114.307 116.579 116.523 116.579C116.592 116.579 116.655 116.569 116.709 116.547C118.348 115.82 122.066 110.488 121.728 102.867C121.4 95.2961 113.378 91.2382 108.491 91.2382" fill="#FB544B"/>
<path d="M92.0536 102.413C93.9567 103.673 111.595 116.546 109.954 118.537C108.309 120.531 95.1586 124.336 81.6414 116.727C73.7572 112.286 73.4233 105.13 77.2581 102.956C81.0929 100.782 89.8595 100.965 92.0536 102.413Z" fill="#FF6A5F"/>
<path d="M101.184 100.965C102.9 106.202 115.067 117.27 116.711 116.546C118.354 115.819 122.067 110.487 121.733 102.866C121.366 94.532 111.683 90.4561 107.12 91.3614C102.552 92.2673 99.937 97.1578 101.184 100.965" fill="#FF6A5F"/>
<path d="M89.996 119.507C89.2846 119.507 89.015 118.795 89.0522 118.057C89.7682 117.481 90.447 116.887 91.0886 116.273C91.9906 116.334 91.8 118.815 90.6841 119.332C90.4191 119.452 90.1913 119.507 89.996 119.507" fill="#F89270"/>
<path d="M94.4913 120.264C92.7289 120.264 93.0421 117.223 94.5147 117.181L95.1552 117.361C96.0341 117.784 96.1509 120.149 94.6036 120.261C94.5662 120.264 94.5287 120.264 94.4913 120.264" fill="#F89270"/>
<path d="M98.867 120.356C97.8048 120.356 97.1938 118.052 97.9881 117.723L98.3547 117.633C98.444 117.585 98.538 117.566 98.6273 117.566C99.5533 117.566 100.254 119.82 99.196 120.283C99.0832 120.333 98.9704 120.356 98.867 120.356" fill="#F89270"/>
<path d="M102.054 120.539C100.85 120.539 99.9393 118.125 100.997 117.361H101.181C101.223 117.354 101.261 117.349 101.303 117.349C102.346 117.349 103.479 119.971 102.46 120.447C102.323 120.51 102.186 120.539 102.054 120.539Z" fill="#F89270"/>
<path d="M105.864 119.52C104.949 119.52 103.45 117.731 104.01 116.92C104.052 116.9 104.081 116.89 104.1 116.89C104.166 116.89 104.133 116.98 104.195 117L104.47 116.817C105.077 116.922 107.378 118.595 106.182 119.427C106.092 119.492 105.983 119.52 105.864 119.52" fill="#F89270"/>
<path d="M103.353 100.68C102.64 100.564 101.908 99.7556 101.733 99.0614C101.61 99.0038 101.667 98.4834 102.059 98.4834C102.22 98.4834 102.432 98.5707 102.715 98.8111C103.211 99.2394 103.863 100.051 103.353 100.68" fill="#F89270"/>
<path d="M104.244 97.9238C103.482 97.9234 102.309 96.4772 102.735 95.7106V95.8009C102.872 95.4959 103.061 95.3715 103.269 95.3715C104.002 95.3715 104.981 96.8711 104.745 97.5223C104.646 97.8061 104.461 97.9238 104.244 97.9238" fill="#F89270"/>
<path d="M105.606 96.1702C104.673 96.1702 104.028 93.3051 104.654 92.8119L104.834 93.1744C104.952 93.1085 105.066 93.0786 105.17 93.0786C106.213 93.0786 106.549 96.0692 105.658 96.1673C105.639 96.1692 105.625 96.1702 105.606 96.1702" fill="#F89270"/>
<path d="M108.042 95.2686C108.037 95.2686 108.037 95.2686 108.032 95.2681C106.971 95.2467 107.528 92.0803 108.032 91.996L108.308 92.0864C109.578 92.3229 108.898 95.2686 108.042 95.2686" fill="#F89270"/>
<path d="M110.185 95.1787C110.042 95.1787 109.899 95.1272 109.765 95.0102C109.125 94.4508 110.266 92.0565 111.001 92.0565C111.049 92.0565 111.092 92.066 111.14 92.087L111.321 92.3581C112.199 92.8956 111.149 95.1787 110.185 95.1787" fill="#F89270"/>
<path d="M112.549 95.8704C112.046 95.8704 111.558 95.698 112.051 95.1662L112.233 94.9852C112.348 94.4567 113.429 93.5433 114.018 93.5433C114.306 93.5433 114.473 93.762 114.353 94.3509C114.229 94.9785 113.808 95.5362 113.147 95.7823C113.003 95.8354 112.774 95.8704 112.549 95.8704" fill="#F89270"/>
<path d="M114.759 97.6519C114.053 97.6519 113.491 97.3396 114.423 96.7073L114.514 96.4358C115.158 96.1514 115.773 95.4245 116.628 95.4245C116.82 95.4245 117.022 95.4605 117.238 95.5455C117.282 96.309 116.33 97.1272 115.706 97.4525C115.446 97.5851 115.086 97.6519 114.759 97.6519Z" fill="#F89270"/>
<path d="M116.993 99.3674C116.579 99.3674 116.246 99.2744 116.159 99.062L116.068 98.9714C116.323 98.5157 117.749 97.651 118.611 97.651C118.958 97.651 119.218 97.7917 119.267 98.1583C119.368 98.864 117.951 99.3674 116.993 99.3674Z" fill="#F89270"/>
<path d="M118.719 101.287C117.962 101.287 117.224 101.119 117.069 100.873L116.978 100.603C117.277 100.427 118.743 99.9565 119.699 99.9565C120.186 99.9565 120.538 100.079 120.543 100.425C120.548 101.049 119.617 101.287 118.719 101.287Z" fill="#F89270"/>
<path d="M119.572 103.736C118.679 103.736 117.583 103.217 117.254 102.686L117.438 102.506C117.428 102.494 117.414 102.489 117.399 102.489C117.38 102.489 117.361 102.494 117.341 102.496C117.327 102.501 117.312 102.504 117.298 102.504C117.279 102.504 117.283 102.491 117.332 102.439C117.655 102.283 118.597 102.088 119.422 102.088C120.339 102.088 121.107 102.331 120.726 103.142C120.523 103.571 120.079 103.736 119.572 103.736Z" fill="#F89270"/>
<path d="M119.661 106.618C118.661 106.618 117.373 106.009 117.257 105.313L117.165 105.04C117.377 104.922 118.073 104.805 118.801 104.805C119.839 104.805 120.94 105.042 120.824 105.861C120.747 106.402 120.254 106.618 119.661 106.618" fill="#F89270"/>
<path d="M119.306 109.32C118.491 109.32 117.228 108.594 116.89 108.121L116.798 107.757C116.991 107.605 117.367 107.527 117.801 107.527C118.838 107.527 120.188 107.975 120 108.844C119.918 109.188 119.653 109.32 119.306 109.32Z" fill="#F89270"/>
<path d="M118.78 112.018C117.893 112.018 116.352 111.194 116.067 110.566V110.295C116.222 110.16 116.496 110.1 116.833 110.1C117.802 110.1 119.223 110.596 119.377 111.27C119.503 111.811 119.223 112.018 118.78 112.018" fill="#F89270"/>
<path d="M117.248 114.601C116.503 114.601 115.133 113.12 115.065 112.469C115.094 112.467 115.133 112.467 115.171 112.467C115.916 112.467 117.796 112.948 117.71 114.01C117.676 114.433 117.498 114.601 117.248 114.601Z" fill="#F89270"/>
<path d="M69.0495 93.2662C69.6831 93.2892 71.6216 91.6886 74.5034 90.0881C78.3099 87.9751 83.7545 85.8616 90.0063 87.4846C93.5688 88.4093 97.6099 94.5897 98.4031 100.054C99.1963 105.516 95.4509 113.538 87.6877 119.091C73.0813 129.543 58.9348 129.453 51.871 128.683C40.7707 127.474 31.3882 115.459 32.0312 105.742C32.1814 103.497 33.8992 101.081 35.1102 98.8891C43.1362 84.3798 55.2456 86.4145 59.4933 86.9205C65.7733 87.6691 66.9655 93.1897 69.0495 93.2662" fill="#E22727"/>
<path d="M68.3263 88.5966C68.9108 88.6178 70.4051 87.7736 72.6866 86.9284C76.1323 85.6515 81.3788 84.374 87.9922 86.0913C95.1147 87.9405 102.487 103.317 86.9646 114.42C72.3566 124.872 58.2153 124.784 51.1494 124.013C37.4842 122.525 27.6559 108.755 34.1185 97.072C42.1508 82.5625 54.5197 81.7452 58.7668 82.251C65.0503 82.9995 66.2428 88.5203 68.3263 88.5966" fill="#FF6A5F"/>
<path d="M57.5368 122.042C55.6665 122.042 54.0258 121.926 52.6758 121.783C40.5677 120.499 32.4769 108.527 37.0802 97.6892C39.3115 92.4283 42.5506 89.6125 45.5882 87.6264C49.5679 85.0229 53.6602 84.1093 56.6321 84.1093C57.7149 84.1093 58.6478 84.2307 59.3744 84.4355C64.7651 85.9613 65.276 91.7885 67.1183 91.8522C67.123 91.8522 67.1276 91.8522 67.1323 91.8522C67.6901 91.8522 69.2511 90.8313 71.5855 89.8103C73.9153 88.7898 77.0091 87.7689 80.6279 87.7689C82.1326 87.7689 83.7311 87.9456 85.3999 88.3726C91.7094 89.9866 98.2204 103.495 84.4436 113.285C74.2668 120.516 64.3573 122.042 57.5368 122.042V122.042ZM81.5186 92.8291C77.1357 92.8291 71.4965 94.4956 70.0668 96.0073C68.5011 97.6625 54.2742 114.175 56.3274 115.745C56.9837 116.244 58.8071 116.657 61.3572 116.657C66.8417 116.657 75.6872 114.738 83.4826 107.6C90.1437 101.496 88.8312 94.4543 84.5983 93.2018C83.7217 92.9426 82.6623 92.8291 81.5186 92.8291V92.8291ZM53.1024 88.637C53.018 88.637 52.9383 88.6384 52.8586 88.6408C48.2085 88.7879 39.7146 94.9395 41.2662 103.137C42.6865 110.636 47.5241 114.991 49.2914 115.327C49.3148 115.332 49.3335 115.334 49.357 115.334C51.2836 115.334 60.3728 102.075 60.8416 96.6542C61.1791 92.7344 57.6399 88.637 53.1024 88.637Z" fill="#FB544B"/>
<path d="M70.0676 96.0074C68.4999 97.6628 54.2704 114.175 56.3297 115.745C58.3844 117.316 72.0666 118.057 83.4855 107.6C90.1458 101.497 88.8286 94.4546 84.5987 93.2019C80.3641 91.9491 71.8718 94.1017 70.0676 96.0074" fill="#FF6A5F"/>
<path d="M60.8411 96.6542C60.3683 102.143 51.0595 115.663 49.2887 115.327C47.5224 114.992 42.6874 110.636 41.2645 103.137C39.7123 94.9401 48.2049 88.7883 52.8615 88.6411C57.5137 88.4939 61.1845 92.6666 60.8411 96.6542Z" fill="#FF6A5F"/>
<path d="M80.9472 96.4021C80.7081 96.4021 80.492 96.2954 80.3127 96.0352C79.8116 95.2992 82.0368 94.0969 83.0712 94.0969C83.2965 94.0969 83.4666 94.1534 83.5402 94.2836L83.4528 94.3042C83.1678 94.707 81.8988 96.4021 80.9472 96.4021" fill="#F89270"/>
<path d="M83.1433 98.5181C83.1064 98.5181 83.0741 98.5171 83.0371 98.5157C82.1551 98.4793 81.25 97.7838 82.4737 97.3211L82.386 97.3414C83.0141 96.9305 84.3393 96.5241 85.0966 96.5075C85.1197 96.507 85.1428 96.507 85.1659 96.507C86.2419 96.507 86.8468 97.0736 85.7524 97.6993C85.0459 98.102 84.0069 98.5181 83.1433 98.5181" fill="#F89270"/>
<path d="M83.9738 102.789C83.1945 102.789 82.0187 102.446 81.5299 101.982C80.5155 101.02 81.3501 100.487 82.3184 100.241C83.0378 100.279 84.1951 100.409 84.813 100.87C85.7444 101.568 85.4309 102.558 84.3104 102.761C84.2136 102.778 84.0983 102.789 83.9738 102.789" fill="#F89270"/>
<path d="M82.3179 100.241L82.4051 100.221C82.3776 100.226 82.3454 100.234 82.3179 100.241Z" fill="#F89270"/>
<path d="M81.6943 106.293C80.8889 106.293 79.7983 105.908 79.5038 105.356C79.1724 104.731 79.6096 103.776 80.2861 103.776C80.3643 103.776 80.4472 103.791 80.53 103.819L80.2033 103.616C80.2079 103.616 80.2171 103.616 80.2263 103.616C81.3308 103.616 84.2668 105.489 82.2189 106.218C82.0717 106.268 81.8922 106.293 81.6943 106.293" fill="#F89270"/>
<path d="M79.137 109.932C78.1109 109.932 76.5396 108.502 77.3916 107.613L77.5932 107.287C77.6894 107.258 77.7902 107.245 77.891 107.245C79.1004 107.245 80.8457 109.111 79.531 109.84C79.4165 109.902 79.279 109.932 79.137 109.932" fill="#F89270"/>
<path d="M75.6952 112.221C75.5676 112.221 75.4309 112.206 75.276 112.174C73.9958 111.908 73.2258 109.263 74.3512 109.263C74.5471 109.263 74.8022 109.346 75.1257 109.534L74.9753 109.291C75.0892 109.221 75.2077 109.188 75.3216 109.188C75.8911 109.188 76.4333 109.947 76.6064 110.703C76.7795 111.462 76.5882 112.221 75.6952 112.221" fill="#F89270"/>
<path d="M71.4521 113.979C70.1005 113.979 69.7467 111.845 70.4679 111.261L71.0484 110.944C71.1165 110.929 71.1845 110.921 71.2525 110.921C72.6132 110.921 73.4523 113.681 71.6653 113.962C71.5927 113.974 71.5202 113.979 71.4521 113.979" fill="#F89270"/>
<path d="M67.3676 115.036C67.3135 115.036 67.2639 115.031 67.2053 115.021C66.0111 114.796 66.25 112.231 67.2639 112.231C67.3135 112.231 67.3675 112.236 67.4171 112.248L67.7957 112.253C68.6879 112.401 68.5663 115.036 67.3676 115.036" fill="#F89270"/>
<path d="M64.2683 115.936C64.201 115.936 64.1291 115.928 64.0573 115.914C62.9123 115.671 63.5005 112.645 64.5961 112.623L64.7757 112.58C66.051 113.113 65.6064 115.936 64.2683 115.936Z" fill="#F89270"/>
<path d="M60.3928 115.795C60.3257 115.795 60.2632 115.785 60.2006 115.76C58.8467 115.222 60.7055 113.073 61.2686 112.835L61.5769 112.947C61.6395 112.913 61.5724 112.82 61.6707 112.82C61.6886 112.82 61.7155 112.822 61.7423 112.83C62.5153 113.529 61.3043 115.795 60.3928 115.795Z" fill="#F89270"/>
<path d="M77.5984 96.2722C77.4292 96.2722 77.2691 96.2036 77.1319 96.044C76.6243 95.4541 77.9734 93.779 78.7233 93.779C78.7599 93.779 78.7965 93.7835 78.8331 93.7927L78.92 93.7716C79.5556 94.48 78.4627 96.2722 77.5984 96.2722" fill="#F89270"/>
<path d="M73.838 96.9436C73.7425 96.9436 73.6561 96.915 73.5651 96.8522C72.3325 95.9562 74.9478 94.5425 75.2981 94.3305L75.4982 94.3774C75.53 94.9032 74.6158 96.9436 73.838 96.9436Z" fill="#F89270"/>
<path d="M58.6587 96.8682C58.022 96.3699 58.4717 95.4321 58.8591 94.9035C59.1218 94.546 59.3401 94.4253 59.5093 94.4253C59.8254 94.4253 59.9679 94.8492 59.8699 94.9254C59.861 95.6392 59.3311 96.5948 58.6587 96.8682Z" fill="#F89270"/>
<path d="M57.0445 94.3967C56.8756 94.3967 56.7156 94.3096 56.5822 94.1051C56.1865 93.4934 56.88 91.665 57.6358 91.665C57.8091 91.665 57.9825 91.757 58.147 91.9757L58.1248 91.8868C58.7471 92.5741 57.8091 94.3967 57.0445 94.3967" fill="#F89270"/>
<path d="M55.337 92.9941C54.8895 92.9941 54.5883 92.2104 54.5439 91.4266C54.4952 90.6428 54.7034 89.859 55.2838 89.859C55.3503 89.859 55.4212 89.8692 55.4965 89.8913L55.5896 89.4975C56.3295 89.8426 56.3428 92.8785 55.3813 92.9915C55.368 92.9933 55.3547 92.9941 55.337 92.9941" fill="#F89270"/>
<path d="M52.7719 92.6621C51.9373 92.6621 50.7319 90.1125 51.8711 89.6136L52.1184 89.4639C52.1228 89.4639 52.1228 89.4634 52.1272 89.4634C52.6438 89.4634 53.8891 92.3927 52.869 92.6506C52.8381 92.6581 52.8028 92.6621 52.7719 92.6621Z" fill="#F89270"/>
<path d="M50.5995 93.0654C49.6576 93.0654 48.3019 91.2427 48.9973 90.5578L49.1161 90.2524C49.1734 90.2044 49.2438 90.1824 49.323 90.1824C50.0801 90.1824 51.5986 92.1266 51.1189 92.7899C50.978 92.9831 50.7976 93.0654 50.5995 93.0654" fill="#F89270"/>
<path d="M48.1439 94.3118C48.0913 94.3118 48.0474 94.3091 48.0079 94.3039C47.3055 94.2134 46.7699 93.7656 46.5021 93.1826C46.2035 92.5355 46.4186 92.3029 46.8137 92.3029C47.4328 92.3029 48.4996 92.8775 48.7103 93.3218L48.9298 93.4575C49.7332 93.9983 48.6971 94.3118 48.1439 94.3118" fill="#F89270"/>
<path d="M45.9987 111.415C45.6919 111.415 45.4858 111.237 45.4815 110.791C45.4771 109.984 47.2171 109.023 48.1287 109.023C48.269 109.023 48.3917 109.045 48.4837 109.095L48.5451 109.361C48.3961 110.102 46.8314 111.415 45.9987 111.415Z" fill="#F89270"/>
<path d="M48.2156 113.568C48.018 113.568 47.8467 113.428 47.7325 113.082C47.3943 112.015 49.3136 111.083 49.9593 110.986C50.0471 111.67 48.9447 113.568 48.2156 113.568Z" fill="#F89270"/>
<path d="M79.4456 124.066L78.2567 127.96L74.6948 126.059L79.4456 124.066Z" fill="#C62424"/>
</g>
<defs>
<filter id="filter0_d_229_2134" x="28" y="62.8533" width="108" height="78.1467" filterUnits="userSpaceOnUse" color-interpolation-filters="sRGB">
<feFlood flood-opacity="0" result="BackgroundImageFix"/>
<feColorMatrix in="SourceAlpha" type="matrix" values="0 0 0 0 0 0 0 0 0 0 0 0 0 0 0 0 0 0 127 0" result="hardAlpha"/>
<feOffset dy="4"/>
<feGaussianBlur stdDeviation="2"/>
<feComposite in2="hardAlpha" operator="out"/>
<feColorMatrix type="matrix" values="0 0 0 0 0 0 0 0 0 0 0 0 0 0 0 0 0 0 0.25 0"/>
<feBlend mode="normal" in2="BackgroundImageFix" result="effect1_dropShadow_229_2134"/>
<feBlend mode="normal" in="SourceGraphic" in2="effect1_dropShadow_229_2134" result="shape"/>
</filter>
</defs>
</svg>
