<svg width="165" height="165" viewBox="0 0 165 165" fill="none" xmlns="http://www.w3.org/2000/svg">
<path d="M165 155C165 160.523 160.523 165 155 165L10 165C4.47716 165 3.70928e-06 160.523 3.87334e-06 155L8.18078e-06 9.99999C8.34485e-06 4.47715 4.47716 -2.94834e-06 10 -1.94459e-06L155 2.44086e-05C160.523 2.54123e-05 165 4.47718 165 10L165 155Z" fill="white"/>
<path d="M155 164.5L10 164.5C4.7533 164.5 0.5 160.247 0.5 155L0.500005 10C0.500005 4.7533 4.7533 0.500001 10 0.500002L155 0.500029C160.247 0.50003 164.5 4.75333 164.5 10L164.5 155C164.5 160.247 160.247 164.5 155 164.5Z" stroke="#8F9BBA" stroke-opacity="0.2"/>
<path d="M65.404 14.12C65.668 14.252 65.818 14.456 65.854 14.732C65.902 15.008 65.836 15.26 65.656 15.488C65.524 15.668 65.35 15.77 65.134 15.794C64.93 15.818 64.726 15.776 64.522 15.668C64.174 15.488 63.808 15.344 63.424 15.236C63.04 15.128 62.632 15.074 62.2 15.074C61.516 15.074 60.898 15.188 60.346 15.416C59.806 15.632 59.338 15.95 58.942 16.37C58.546 16.778 58.24 17.264 58.024 17.828C57.82 18.392 57.718 19.016 57.718 19.7C57.718 20.456 57.832 21.128 58.06 21.716C58.288 22.292 58.6 22.784 58.996 23.192C59.404 23.588 59.878 23.888 60.418 24.092C60.97 24.284 61.564 24.38 62.2 24.38C62.608 24.38 63.004 24.332 63.388 24.236C63.784 24.14 64.156 23.996 64.504 23.804C64.72 23.696 64.93 23.66 65.134 23.696C65.35 23.72 65.524 23.822 65.656 24.002C65.86 24.254 65.932 24.512 65.872 24.776C65.824 25.028 65.674 25.22 65.422 25.352C65.122 25.52 64.792 25.664 64.432 25.784C64.072 25.904 63.706 26 63.334 26.072C62.962 26.144 62.584 26.18 62.2 26.18C61.336 26.18 60.52 26.036 59.752 25.748C58.984 25.46 58.3 25.04 57.7 24.488C57.1 23.936 56.626 23.258 56.278 22.454C55.942 21.65 55.774 20.732 55.774 19.7C55.774 18.776 55.93 17.924 56.242 17.144C56.566 16.352 57.016 15.674 57.592 15.11C58.18 14.534 58.864 14.09 59.644 13.778C60.424 13.454 61.276 13.292 62.2 13.292C62.776 13.292 63.334 13.364 63.874 13.508C64.426 13.652 64.936 13.856 65.404 14.12ZM72.1134 16.37C72.9414 16.37 73.5834 16.55 74.0394 16.91C74.4954 17.258 74.8134 17.732 74.9934 18.332C75.1854 18.932 75.2814 19.592 75.2814 20.312V25.082C75.2814 25.346 75.1914 25.568 75.0114 25.748C74.8434 25.916 74.6334 26 74.3814 26C74.1174 26 73.9014 25.916 73.7334 25.748C73.5654 25.568 73.4814 25.346 73.4814 25.082V20.312C73.4814 19.892 73.4214 19.508 73.3014 19.16C73.1934 18.812 72.9954 18.536 72.7074 18.332C72.4314 18.128 72.0414 18.026 71.5374 18.026C71.0694 18.026 70.6494 18.128 70.2774 18.332C69.9174 18.536 69.6354 18.812 69.4314 19.16C69.2394 19.508 69.1434 19.892 69.1434 20.312V25.082C69.1434 25.346 69.0534 25.568 68.8734 25.748C68.7054 25.916 68.4954 26 68.2434 26C67.9794 26 67.7634 25.916 67.5954 25.748C67.4274 25.568 67.3434 25.346 67.3434 25.082V13.598C67.3434 13.334 67.4274 13.118 67.5954 12.95C67.7634 12.77 67.9794 12.68 68.2434 12.68C68.4954 12.68 68.7054 12.77 68.8734 12.95C69.0534 13.118 69.1434 13.334 69.1434 13.598V18.512L68.8194 18.692C68.9034 18.428 69.0414 18.158 69.2334 17.882C69.4374 17.606 69.6834 17.354 69.9714 17.126C70.2714 16.898 70.6014 16.718 70.9614 16.586C71.3214 16.442 71.7054 16.37 72.1134 16.37ZM81.8348 26.18C80.8388 26.18 79.9748 25.976 79.2428 25.568C78.5108 25.148 77.9408 24.578 77.5328 23.858C77.1368 23.126 76.9388 22.292 76.9388 21.356C76.9388 20.3 77.1488 19.4 77.5688 18.656C78.0008 17.9 78.5588 17.324 79.2428 16.928C79.9268 16.52 80.6528 16.316 81.4208 16.316C82.0088 16.316 82.5668 16.436 83.0948 16.676C83.6228 16.904 84.0908 17.228 84.4988 17.648C84.9188 18.056 85.2488 18.542 85.4888 19.106C85.7288 19.658 85.8548 20.264 85.8668 20.924C85.8548 21.164 85.7588 21.362 85.5788 21.518C85.3988 21.674 85.1888 21.752 84.9488 21.752H77.9468L77.5148 20.222H84.2828L83.9408 20.546V20.096C83.9168 19.676 83.7788 19.31 83.5268 18.998C83.2748 18.674 82.9628 18.428 82.5908 18.26C82.2188 18.08 81.8288 17.99 81.4208 17.99C81.0608 17.99 80.7128 18.05 80.3768 18.17C80.0528 18.278 79.7588 18.458 79.4948 18.71C79.2428 18.962 79.0388 19.298 78.8828 19.718C78.7388 20.126 78.6668 20.636 78.6668 21.248C78.6668 21.908 78.8048 22.484 79.0808 22.976C79.3568 23.468 79.7288 23.852 80.1968 24.128C80.6648 24.392 81.1808 24.524 81.7448 24.524C82.1888 24.524 82.5548 24.482 82.8428 24.398C83.1308 24.302 83.3708 24.188 83.5628 24.056C83.7548 23.924 83.9228 23.798 84.0668 23.678C84.2468 23.57 84.4268 23.516 84.6068 23.516C84.8228 23.516 85.0028 23.594 85.1468 23.75C85.2908 23.894 85.3628 24.068 85.3628 24.272C85.3628 24.536 85.2308 24.776 84.9668 24.992C84.6428 25.304 84.1928 25.58 83.6168 25.82C83.0528 26.06 82.4588 26.18 81.8348 26.18ZM91.9513 26.18C90.9553 26.18 90.0913 25.976 89.3593 25.568C88.6273 25.148 88.0573 24.578 87.6493 23.858C87.2533 23.126 87.0553 22.292 87.0553 21.356C87.0553 20.3 87.2653 19.4 87.6853 18.656C88.1173 17.9 88.6753 17.324 89.3593 16.928C90.0433 16.52 90.7693 16.316 91.5373 16.316C92.1253 16.316 92.6833 16.436 93.2113 16.676C93.7393 16.904 94.2073 17.228 94.6153 17.648C95.0353 18.056 95.3653 18.542 95.6053 19.106C95.8453 19.658 95.9713 20.264 95.9833 20.924C95.9713 21.164 95.8753 21.362 95.6953 21.518C95.5153 21.674 95.3053 21.752 95.0653 21.752H88.0633L87.6313 20.222H94.3993L94.0573 20.546V20.096C94.0333 19.676 93.8953 19.31 93.6433 18.998C93.3913 18.674 93.0793 18.428 92.7073 18.26C92.3353 18.08 91.9453 17.99 91.5373 17.99C91.1773 17.99 90.8293 18.05 90.4933 18.17C90.1693 18.278 89.8753 18.458 89.6113 18.71C89.3593 18.962 89.1553 19.298 88.9993 19.718C88.8553 20.126 88.7833 20.636 88.7833 21.248C88.7833 21.908 88.9213 22.484 89.1973 22.976C89.4733 23.468 89.8453 23.852 90.3133 24.128C90.7813 24.392 91.2973 24.524 91.8613 24.524C92.3053 24.524 92.6713 24.482 92.9593 24.398C93.2473 24.302 93.4873 24.188 93.6793 24.056C93.8713 23.924 94.0393 23.798 94.1833 23.678C94.3633 23.57 94.5433 23.516 94.7233 23.516C94.9393 23.516 95.1193 23.594 95.2633 23.75C95.4073 23.894 95.4793 24.068 95.4793 24.272C95.4793 24.536 95.3473 24.776 95.0833 24.992C94.7593 25.304 94.3093 25.58 93.7333 25.82C93.1693 26.06 92.5753 26.18 91.9513 26.18ZM97.0999 24.524C96.9919 24.356 96.9439 24.164 96.9559 23.948C96.9679 23.72 97.0939 23.528 97.3339 23.372C97.5019 23.264 97.6759 23.222 97.8559 23.246C98.0479 23.258 98.2279 23.348 98.3959 23.516C98.7319 23.888 99.1039 24.182 99.5119 24.398C99.9319 24.614 100.436 24.722 101.024 24.722C101.264 24.71 101.51 24.674 101.762 24.614C102.014 24.542 102.23 24.422 102.41 24.254C102.59 24.074 102.68 23.816 102.68 23.48C102.68 23.18 102.584 22.94 102.392 22.76C102.2 22.58 101.948 22.436 101.636 22.328C101.324 22.208 100.988 22.1 100.628 22.004C100.244 21.896 99.8539 21.776 99.4579 21.644C99.0739 21.512 98.7259 21.344 98.4139 21.14C98.1019 20.924 97.8439 20.648 97.6399 20.312C97.4479 19.976 97.3519 19.562 97.3519 19.07C97.3519 18.506 97.5079 18.02 97.8199 17.612C98.1439 17.204 98.5579 16.886 99.0619 16.658C99.5779 16.43 100.136 16.316 100.736 16.316C101.084 16.316 101.45 16.364 101.834 16.46C102.218 16.544 102.59 16.682 102.95 16.874C103.31 17.066 103.622 17.318 103.886 17.63C104.006 17.786 104.072 17.972 104.084 18.188C104.108 18.404 104.012 18.596 103.796 18.764C103.652 18.884 103.478 18.938 103.274 18.926C103.07 18.914 102.902 18.848 102.77 18.728C102.542 18.44 102.248 18.218 101.888 18.062C101.528 17.894 101.12 17.81 100.664 17.81C100.436 17.81 100.196 17.846 99.9439 17.918C99.7039 17.978 99.4999 18.092 99.3319 18.26C99.1639 18.428 99.0799 18.674 99.0799 18.998C99.0799 19.298 99.1759 19.538 99.3679 19.718C99.5719 19.898 99.8359 20.048 100.16 20.168C100.484 20.288 100.838 20.396 101.222 20.492C101.594 20.588 101.96 20.702 102.32 20.834C102.692 20.966 103.022 21.14 103.31 21.356C103.61 21.56 103.85 21.83 104.03 22.166C104.222 22.49 104.318 22.904 104.318 23.408C104.318 23.996 104.144 24.5 103.796 24.92C103.46 25.328 103.028 25.64 102.5 25.856C101.984 26.072 101.438 26.18 100.862 26.18C100.178 26.18 99.4939 26.06 98.8099 25.82C98.1379 25.568 97.5679 25.136 97.0999 24.524ZM110.304 26.18C109.308 26.18 108.444 25.976 107.712 25.568C106.98 25.148 106.41 24.578 106.002 23.858C105.606 23.126 105.408 22.292 105.408 21.356C105.408 20.3 105.618 19.4 106.038 18.656C106.47 17.9 107.028 17.324 107.712 16.928C108.396 16.52 109.122 16.316 109.89 16.316C110.478 16.316 111.036 16.436 111.564 16.676C112.092 16.904 112.56 17.228 112.968 17.648C113.388 18.056 113.718 18.542 113.958 19.106C114.198 19.658 114.324 20.264 114.336 20.924C114.324 21.164 114.228 21.362 114.048 21.518C113.868 21.674 113.658 21.752 113.418 21.752H106.416L105.984 20.222H112.752L112.41 20.546V20.096C112.386 19.676 112.248 19.31 111.996 18.998C111.744 18.674 111.432 18.428 111.06 18.26C110.688 18.08 110.298 17.99 109.89 17.99C109.53 17.99 109.182 18.05 108.846 18.17C108.522 18.278 108.228 18.458 107.964 18.71C107.712 18.962 107.508 19.298 107.352 19.718C107.208 20.126 107.136 20.636 107.136 21.248C107.136 21.908 107.274 22.484 107.55 22.976C107.826 23.468 108.198 23.852 108.666 24.128C109.134 24.392 109.65 24.524 110.214 24.524C110.658 24.524 111.024 24.482 111.312 24.398C111.6 24.302 111.84 24.188 112.032 24.056C112.224 23.924 112.392 23.798 112.536 23.678C112.716 23.57 112.896 23.516 113.076 23.516C113.292 23.516 113.472 23.594 113.616 23.75C113.76 23.894 113.832 24.068 113.832 24.272C113.832 24.536 113.7 24.776 113.436 24.992C113.112 25.304 112.662 25.58 112.086 25.82C111.522 26.06 110.928 26.18 110.304 26.18Z" fill="#6C7693"/>
<rect x="10" y="39" width="145" height="118" rx="10" fill="#FFB68C" fill-opacity="0.5"/>
<path d="M61.9419 62.2551L69 61.2551L73.5 67.2551L86 74.7551L108 83.2551L109.5 87.7551L114.5 88.7551L128 96.2551L126 100.255L119 108.755L113.5 118.255L111 122.755V126.255L113.5 128.755L109 132.5L106.5 136.755L105 140.5L105.5 143.5L72.5 127.255L70.5 121.255L65.5 118.255L61 119.755L59.5 122.755L38 109.255L42.5 102.5L44 99L55.4419 78.5L56.5 77.5L56 73.5L61.9419 62.2551Z" fill="#FADB8A"/>
<path d="M60.9966 93.6104C60.3484 93.8717 59.8446 94.273 59.454 94.7493C59.8295 94.3364 60.3343 93.9683 61.0262 93.6772C61.0712 93.6585 61.0419 93.5921 60.9966 93.6104V93.6104ZM59.419 94.7973C59.423 94.724 59.4236 94.6449 59.43 94.5768C59.4381 94.4893 59.2992 94.4472 59.2667 94.5363C59.1548 94.8448 59.0609 95.158 58.9751 95.473C58.9021 95.6218 58.8288 95.7705 58.7829 95.9271C58.8252 95.8082 58.8868 95.6983 58.9405 95.5842C58.81 96.0841 58.7276 96.5906 58.6703 97.098C58.6451 96.6956 58.6738 96.3015 58.7829 95.9271C58.53 96.6437 58.4824 97.4331 58.6091 98.2063C58.6127 99.8547 59.04 101.48 60.0651 102.911C61.6112 105.069 65.1113 106.116 66.9184 103.658C67.3609 103.057 67.5727 102.246 67.5961 101.351C67.6984 100.338 67.4629 99.1857 66.989 98.1128C65.9131 95.3231 63.555 93.0929 61.0801 94.8944C60.9004 94.999 60.7209 95.1169 60.5425 95.2624C60.4447 95.3424 60.4673 95.4551 60.5354 95.5238C60.4831 95.984 61.1638 96.3902 61.4781 95.9118C61.8363 95.3664 62.2278 95.0725 62.6288 94.9502C64.313 95.0686 65.8209 96.823 66.4807 98.3947C66.9561 100.172 66.386 102.907 63.8962 102.775C60.5411 102.597 59.2858 97.3083 59.4189 94.8C59.4318 94.7839 59.4408 94.7654 59.454 94.7493C59.4399 94.7645 59.4324 94.782 59.419 94.7973V94.7973ZM74.0435 86.9141C72.9384 87.4638 71.8127 88.3234 71.7968 89.6127C71.7828 90.7615 72.8042 91.6694 74.0173 91.5618C75.2071 91.4565 76.0233 90.3138 75.7955 89.2179C75.5522 88.0508 74.2101 87.464 73.0815 87.8306C72.7888 87.9257 72.9215 88.4048 73.2277 88.3325C74.1287 88.1199 75.1842 88.5844 75.1712 89.5712C75.1586 90.4997 74.2291 91.1216 73.3124 90.7963C72.4961 90.5065 72.2132 89.743 72.3884 88.973C72.5927 88.0739 73.322 87.4768 74.0857 86.9834C74.1251 86.9578 74.0864 86.8925 74.0435 86.9141V86.9141ZM92.8592 93.3178C90.6734 94.2427 89.1623 95.8459 88.3327 97.7484C86.344 100.638 85.3891 104.363 87.1958 107.559C88.9801 110.716 93.4958 112.248 97.0379 111.132C100.819 109.941 103.078 105.839 102.644 102.182C102.582 101.662 102.467 101.159 102.307 100.678C101.465 96.7623 97.7093 93.3342 92.4384 94.4762C92.191 94.5296 92.2395 94.8986 92.4948 94.8521C96.0744 94.1983 99.9549 95.5841 101.449 98.9151C99.9102 96.5326 97.1276 94.9445 94.1108 94.7494C93.4604 94.7073 93.3328 95.6373 93.9906 95.7116C97.458 96.1031 100.772 98.2543 101.537 101.634C101.789 102.746 101.726 103.878 101.411 104.938C100.714 106.419 99.5001 107.682 97.8223 108.44C96.8113 108.897 95.827 109.107 94.892 109.128C97.9885 108.483 100.252 105.472 99.1557 102.244C99.1449 102.213 99.0943 102.228 99.0987 102.259C99.6927 106.395 95.5413 109.416 91.4494 107.887C91.0439 107.735 90.6785 107.547 90.3393 107.337C89.3158 106.353 88.5561 105.028 88.1854 103.489C87.9073 102.335 87.8469 101.175 87.9854 100.059C88.0898 99.7354 88.2101 99.4149 88.3597 99.1043C88.4146 98.99 88.287 98.915 88.1897 98.9494C88.261 98.6714 88.3492 98.3993 88.4476 98.1311C88.6818 97.6931 88.9317 97.2653 89.2066 96.8611C89.2561 96.7887 89.1762 96.7162 89.1088 96.7425C89.942 95.3399 91.2007 94.1567 92.8822 93.37C92.9162 93.354 92.8944 93.3028 92.8592 93.3178V93.3178ZM88.0127 104.328C88.1092 104.649 88.2285 104.956 88.3576 105.256C87.8643 104.348 87.6228 103.318 87.6251 102.264C87.6847 102.953 87.8082 103.645 88.0127 104.328ZM87.7068 99.9061C86.3381 103.435 87.736 107.654 91.7261 108.938C93.3228 109.746 95.2587 109.922 97.3139 109.192C98.1212 108.906 98.818 108.54 99.4259 108.122C98.4811 109.006 97.2891 109.66 95.9215 109.931C92.8142 110.546 89.3714 109.123 87.9156 106.392C86.7867 104.273 86.9398 101.904 87.7361 99.7319C87.7258 99.7899 87.716 99.848 87.7068 99.9061V99.9061ZM68.4044 106.789C68.4117 106.773 68.386 106.758 68.3752 106.773C67.9823 107.337 67.9396 108.092 68.449 108.615C68.9183 109.096 69.7518 109.246 70.3266 108.844C70.8419 108.484 71.0731 107.739 70.7163 107.205C70.3422 106.645 69.5391 106.512 68.9775 106.874C68.7372 107.028 69.0087 107.341 69.247 107.207C70.3209 106.603 70.994 108.35 69.7938 108.714C68.5605 109.089 68.0196 107.662 68.4044 106.789V106.789ZM51.3685 108.025C51.3934 108.046 51.4332 108.009 51.4102 107.985C50.8814 107.433 49.9834 107.623 49.6718 108.29C49.1278 109.456 50.3402 110.476 51.2846 110.995C52.1255 111.458 53.4791 111.656 54.0117 110.649C54.3828 109.946 53.8398 109.114 53.0141 109.173C52.8016 109.188 52.8003 109.535 53.0186 109.533C54.2321 109.524 53.3454 110.804 52.6005 110.765C52.0972 110.738 51.5793 110.417 51.1826 110.157C50.942 109.999 50.7092 109.834 50.513 109.627C50.3476 109.484 50.2248 109.311 50.1443 109.109C49.7885 108.332 50.1965 107.971 51.3685 108.025V108.025ZM72.1103 75.1326C72.1669 75.1288 72.167 75.0377 72.109 75.0364C70.877 75.0137 69.8626 76.1136 70.2731 77.2787C70.6254 78.2784 72.2731 79.0865 72.954 77.9236C73.0778 77.7124 72.7107 77.5162 72.5668 77.7116C71.8955 78.6245 70.6875 77.6382 70.5469 76.8487C70.3833 75.9274 71.1895 75.1937 72.1103 75.1326V75.1326ZM114.159 98.1652C113.331 98.574 112.905 99.5851 113.463 100.364C114.024 101.146 115.362 101.264 116.016 100.536C116.139 100.398 115.956 100.15 115.78 100.245C115.198 100.559 114.462 100.621 113.961 100.12C113.419 99.5764 113.56 98.6164 114.176 98.193C114.191 98.1826 114.176 98.1568 114.159 98.1652V98.1652ZM127.94 95.9405C127.913 95.9229 127.885 95.903 127.858 95.8853C127.863 95.8636 127.871 95.8418 127.875 95.8201C127.899 95.7085 127.811 95.5859 127.704 95.5453C127.415 95.4343 127.131 95.3206 126.846 95.2078C123.097 92.6631 119.096 89.459 114.818 88.1276C114.311 87.9697 113.71 88.467 113.933 88.9318C113.737 88.9768 113.541 89.019 113.348 89.0414C113.139 89.0653 112.94 89.0739 112.743 89.0806C112.131 89.0147 111.41 88.9055 110.68 88.7479C110.635 88.7311 110.589 88.7194 110.544 88.7016C111.046 88.754 111.546 88.7798 112.024 88.7906C112.067 88.7916 112.076 88.7299 112.032 88.7266C111.318 88.6693 110.561 88.5357 109.835 88.3224C109.5 88.1014 109.185 87.8341 108.888 87.5145C108.074 86.4969 107.964 85.1876 107.391 83.8202C108.135 83.8885 108.486 82.8037 107.713 82.4193C97.1004 77.1432 85.8217 73.4677 74.5919 69.6206C71.775 68.6557 68.594 67.4694 66.7557 65.0883C66.1726 64.3331 65.8513 62.6271 65.1505 61.6137C65.3936 61.6181 65.6418 61.6279 65.8969 61.6487C68.9611 61.9006 69.4137 63.9713 71.2819 65.6968C73.3214 67.5803 75.9543 68.6642 78.7464 69.0164C78.7902 69.022 78.7971 68.96 78.7545 68.9522C76.5826 68.5551 74.5947 67.7696 72.9146 66.3703C71.3351 65.0546 70.7255 63.2662 69.3183 61.8985C69.2199 61.8026 69.116 61.7189 69.0109 61.6389C69.0279 61.6413 69.0456 61.6438 69.0626 61.6462C69.3981 61.6959 69.4594 61.2014 69.1249 61.1492C67.9689 60.9689 66.8092 60.8083 65.6488 60.6577C65.1515 60.5931 64.6536 60.5314 64.1553 60.4751C63.8871 60.4447 62.4792 60.5064 63.3925 60.3219C63.4137 60.3177 63.4097 60.2877 63.3879 60.29C63.1381 60.3182 62.8878 60.3405 62.637 60.3569C62.5748 60.3618 62.5593 60.4584 62.6215 60.4759C62.8725 60.5456 63.1307 60.5988 63.3854 60.6604C63.2476 60.6857 63.118 60.7424 62.9921 60.8274C62.6922 60.8105 62.3998 60.7798 62.1195 60.726C61.7974 60.6645 61.6208 61.1129 61.8789 61.2867C61.9915 61.666 62.1044 62.0453 62.217 62.4246C60.5089 66.1403 58.5237 69.7043 56.2222 73.126C56.1162 73.2832 56.3618 73.4617 56.4646 73.3035C58.3526 70.3985 60.0201 67.3975 61.4868 64.2931C60.8493 65.8122 60.1578 67.3053 59.3382 68.7774C59.1885 69.0464 59.642 69.2109 59.7951 68.9546C60.5883 67.6256 61.2863 66.2543 61.885 64.8362C62.0975 64.3336 62.2921 63.8233 62.4808 63.3118C62.5256 63.4628 62.5704 63.6134 62.6152 63.7644C62.4893 64.0669 62.9538 64.2394 63.1034 63.9536C63.1693 63.8274 63.2016 63.709 63.2478 63.587C65.8729 69.5484 72.3687 73.3091 78.8349 74.6634C78.8628 74.6691 78.8751 74.625 78.8475 74.6169C75.3618 73.5734 72.5039 71.836 70.0381 69.6566C72.4378 70.8389 75.1732 71.5085 77.6709 72.3174C87.2827 75.4303 96.4912 79.277 105.755 83.1828C105.523 83.5895 105.403 84.0159 105.381 84.4454C103.308 83.7798 101.239 83.1005 99.1723 82.4154C99.1415 82.405 99.1231 82.4473 99.1532 82.4602C100.433 83.0058 101.713 83.5502 102.995 84.0914C103.359 84.2449 104.667 84.644 105.402 84.9999C105.493 85.6549 105.798 86.2906 106.261 86.8395C106.304 87.0511 106.374 87.2663 106.51 87.4829C107.954 89.7872 111.819 90.1429 114.234 89.6233C114.344 89.5996 114.392 89.5292 114.414 89.4525C116.858 91.771 120.182 92.995 123.07 94.7394C123.087 94.7525 123.104 94.7644 123.121 94.7775C123.851 95.3506 124.815 96.0022 125.429 96.6903C125.641 96.9279 125.79 97.1382 125.913 97.339C126.183 98.8735 124.262 100.769 123.293 102.158C122.098 103.871 120.823 105.528 119.512 107.161C119.536 107.113 119.534 107.071 119.518 107.035C119.649 106.819 119.78 106.603 119.911 106.388C119.985 106.266 119.817 106.129 119.723 106.25C116.802 109.983 113.813 113.696 111.081 117.559C111.904 115.945 112.785 114.36 113.731 112.807C115.623 109.703 117.744 106.751 120.053 103.914C120.073 103.889 120.033 103.86 120.012 103.885C116.274 108.367 113.033 113.182 110.373 118.315C109.928 119.174 107.111 124.015 109.313 124.549C109.35 124.634 109.368 124.717 109.411 124.802C109.486 124.956 109.583 125.068 109.69 125.156C109.741 125.488 109.809 125.82 109.916 126.155C110.146 126.875 111.159 128.072 111.076 128.788C110.725 129.343 110.036 129.84 109.642 130.255C109.292 130.622 108.961 131.001 108.637 131.386C108.593 131.426 108.542 131.468 108.502 131.508C106.655 133.325 105.132 135.452 104.451 137.734C104.745 135.11 106.017 132.73 107.62 130.09C107.634 130.068 107.603 130.043 107.587 130.065C105.164 133.214 102.044 137.723 103.706 141.727C98.779 138.581 93.0808 136.362 87.9074 133.672C84.2173 131.753 80.6349 129.683 77.0684 127.566C73.7388 125.588 73.4065 123.731 71.4213 120.909C69.6763 118.429 64.5194 116.7 61.5627 117.903C60.2711 118.272 59.3829 119.102 58.9484 120.297C55.615 118.221 52.2564 116.173 48.8354 114.229C48.0376 113.685 47.2401 113.141 46.4414 112.598C46.4236 112.586 46.403 112.611 46.4208 112.624C47.0136 113.04 47.607 113.457 48.2004 113.873C47.1853 113.301 46.1671 112.734 45.1394 112.184C44.5712 111.88 43.9457 111.617 43.3346 111.358C42.9084 111.107 42.4854 110.85 42.0562 110.604C40.3878 109.646 40.7536 109.316 41.8531 107.542C43.0866 105.552 44.398 103.608 45.6695 101.64C45.692 101.605 45.6406 101.566 45.6155 101.6C43.8367 104.073 42.1071 106.577 40.2147 108.973C40.1115 108.538 40.1603 108.031 40.4383 107.411C41.4307 105.198 42.9739 103.083 44.1718 100.871C44.2788 100.92 44.3977 100.95 44.5382 100.931C45.0682 100.858 45.6906 100.718 46.3293 100.518C46.8793 100.608 47.4428 100.343 47.9501 99.8654C49.5879 99.0348 50.9003 97.7351 50.4731 95.911C50.3066 95.1995 49.9333 94.6782 49.4439 94.3282C49.3911 94.2319 49.3333 94.1393 49.2654 94.0546C49.1985 93.9716 49.0807 93.8951 48.944 93.8233C49.7151 92.5787 50.3204 91.2244 51.0466 89.9618C52.3356 87.7205 53.6984 85.5188 55.0577 83.3158C55.0901 83.2633 55.0124 83.2034 54.9767 83.2567C53.6268 85.2875 52.2728 87.3144 50.8729 89.3144C50.2364 90.2238 49.5202 91.0964 48.8456 91.9916C49.0825 91.5657 49.323 91.1409 49.555 90.7132C49.7817 90.4253 49.9572 90.1974 50.0216 90.0992C51.3482 88.0726 52.3511 85.9016 53.1016 83.643C53.8664 81.9908 54.5996 80.3229 55.2848 78.6309C55.3612 81.3281 58.3465 82.6912 61.025 81.7705C61.2292 81.7001 61.276 81.5314 61.2237 81.3837C61.2932 81.3314 61.3653 81.2853 61.432 81.2262C61.4597 81.2016 61.4782 81.175 61.5047 81.1501C61.4205 81.5098 61.3336 81.8682 61.2489 82.222C61.226 82.3186 61.4011 82.363 61.4287 82.2663C61.5575 81.8115 61.6793 81.3355 61.7905 80.8528C63.0883 79.3926 62.8244 77.6116 61.8365 76.1253C61.6634 75.5954 61.4242 75.0824 61.0592 74.6079C59.84 73.0229 57.5446 72.4722 55.8562 73.7112C55.8304 73.7305 55.8612 73.7683 55.8873 73.7499C58 72.2626 60.4357 73.5705 61.4132 75.5601C60.6146 74.5984 59.5359 73.8138 58.448 73.4164C58.4226 73.4069 58.4066 73.4436 58.432 73.4537C59.6145 73.9187 60.7675 74.7679 61.5304 75.8224C61.5662 75.9092 61.6044 75.9949 61.6349 76.0836C62.1419 77.5702 61.954 79.099 61.63 80.5968C61.452 80.8078 61.2453 80.997 61.0198 81.1639C60.9647 81.1373 60.9046 81.1187 60.8359 81.1218C59.2797 81.1941 58.1453 80.089 57.5807 78.7927C57.7336 78.7572 57.8869 78.7224 58.0396 78.6861C58.2747 78.6309 58.2281 78.275 57.9854 78.3265C57.8017 78.3655 57.6187 78.4067 57.4354 78.4463C57.3666 78.2489 57.31 78.0492 57.2684 77.8504C57.2588 77.8666 57.2492 77.8827 57.2396 77.8988C57.1079 76.9374 55.5204 76.699 55.3294 77.8703C55.3269 77.8843 55.3276 77.8974 55.3254 77.9117C54.8514 78.9023 54.3608 79.8831 53.8614 80.8589C53.8534 80.8616 53.8436 80.8621 53.8412 80.8718C53.8362 80.8916 53.8298 80.9105 53.8249 80.9304C51.4463 85.5708 48.7762 90.0455 45.7291 94.3389C45.273 94.9816 45.9079 95.7584 46.6771 95.5079C47.6741 97.5663 47.4255 98.7552 45.9314 99.0746C45.5506 99.2036 45.1732 99.3414 44.7953 99.4771C44.7347 99.3688 44.5559 99.326 44.45 99.4382C44.3746 99.5182 44.3048 99.5974 44.2302 99.6773C44.2128 99.6835 44.1953 99.6895 44.1779 99.6957C43.9357 99.783 43.8194 99.9629 43.7883 100.158C41.225 102.961 39.1975 105.679 37.4462 109.059C37.2808 109.378 37.5141 109.693 37.7945 109.845C45.0629 113.782 52.1976 117.969 59.0242 122.567C59.5686 122.934 60.6057 122.698 60.6007 121.938C61.3961 120.994 62.1918 120.049 62.9871 119.105C63.1455 119.074 63.2609 119.006 63.357 118.925C66.402 118.475 69.9159 121.102 71.2142 123.733C71.5968 124.508 71.7316 125.29 72.2787 126.018C72.6907 126.568 73.2136 127.038 73.7973 127.46C73.3901 127.268 72.9856 127.071 72.5781 126.879C72.5585 126.87 72.5461 126.899 72.5654 126.909C73.0692 127.153 73.57 127.403 74.0731 127.65C75.4409 128.57 77.1026 129.238 78.6202 129.882C80.3141 130.722 82.0029 131.571 83.6908 132.421C90.7092 136.298 97.46 141.081 104.932 143.874C104.996 144.007 105.05 144.139 105.122 144.272C105.214 144.442 105.52 144.389 105.48 144.178C105.467 144.109 105.463 144.042 105.452 143.973C105.851 143.886 106.078 143.36 105.68 143.068C105.574 142.992 105.461 142.924 105.355 142.848C105.339 142.78 105.323 142.712 105.308 142.645C105.044 137.213 109.002 133.027 113.117 129.48C113.403 129.234 113.568 128.752 113.26 128.444C112.122 127.304 111.452 125.999 111.238 124.587C111.274 124.43 111.285 124.263 111.229 124.078C111.203 123.992 111.192 123.906 111.171 123.819C111.16 123.469 111.177 123.113 111.223 122.751C112.099 120.465 113.746 118.108 114.521 116.651C115.405 114.987 116.276 113.318 117.152 111.65C120.159 107.923 123.069 104.097 125.735 100.136C125.84 100.175 125.961 100.159 126.044 100.043C126.44 99.4857 126.779 98.8682 127.069 98.2298C127.406 97.8411 127.746 97.4555 128.096 97.0783C128.389 96.7635 128.304 96.1751 127.94 95.9405V95.9405ZM107.143 85.0116C106.817 84.9095 106.493 84.8018 106.168 84.6982C106.161 84.3103 106.222 83.8922 106.366 83.4403C106.532 83.5104 106.698 83.5799 106.863 83.6498C107.059 84.0848 107.169 84.5928 107.263 85.0888C107.229 85.0582 107.193 85.0276 107.143 85.0116V85.0116ZM107.037 86.7608C106.942 86.4169 106.999 86.0347 107.31 85.6001C107.328 85.5761 107.333 85.5462 107.345 85.5189C107.424 85.93 107.508 86.312 107.645 86.605C107.871 87.0888 108.185 87.4888 108.561 87.8401C107.968 87.5546 107.446 87.1946 107.037 86.7608V86.7608ZM61.9617 76.5296C62.4497 77.491 62.6041 78.5712 62.1893 79.6684C62.1233 79.8424 62.0349 80.0117 61.9337 80.1766C62.1647 78.9562 62.2473 77.7012 61.9617 76.5296V76.5296ZM52.2798 85.4039C51.9047 86.2533 51.4911 87.0846 51.032 87.8936C51.4548 87.0668 51.8763 86.2389 52.2798 85.4039ZM109.444 130.721C109.887 130.26 110.347 129.813 110.827 129.383C110.507 129.869 109.97 130.309 109.444 130.721ZM114.271 116.01C113.431 117.567 112.329 119.212 111.456 120.898C111.415 120.829 111.359 120.771 111.294 120.722C112.037 118.198 114.081 115.812 115.397 113.739C115.708 113.249 116.008 112.753 116.315 112.261C115.633 113.51 114.947 114.758 114.271 116.01V116.01ZM117.371 111.233C117.953 110.124 118.54 109.016 119.122 107.906C119.182 107.944 119.266 107.95 119.326 107.882C121.128 105.857 122.735 103.679 124.388 101.54C122.169 104.851 119.828 108.078 117.371 111.233ZM92.3939 120.655C91.8839 120.153 91.2684 119.739 90.7147 119.459C90.0453 119.121 89.2255 118.905 88.5413 119.328C88.3025 119.476 88.1294 119.668 88.0192 119.884C87.9974 119.885 87.9743 119.874 87.9578 119.893C85.9704 122.182 88.2761 126.002 91.3405 125.717C92.8411 125.579 94.1374 124.407 94.1753 122.942C94.2025 121.895 93.4391 120.895 92.3939 120.655ZM90.1834 123.926C88.7115 123.589 87.7604 122.182 87.8887 120.82C87.905 120.761 87.9139 120.702 87.9357 120.644C87.9545 120.73 87.9609 120.814 87.9997 120.901C88.127 121.181 88.5561 121.002 88.4544 120.719C88.2725 120.061 88.6334 119.689 89.5371 119.605C89.9725 119.67 90.3698 119.824 90.7287 120.067C91.028 120.245 91.3201 120.453 91.59 120.67C91.5968 120.675 91.6041 120.682 91.6107 120.688C91.4272 120.85 91.4266 121.187 91.6362 121.344C93.2172 122.53 92.0293 124.349 90.1834 123.926" fill="#D9C248"/>
<path d="M60.9966 93.6104C60.3484 93.8717 59.8446 94.273 59.454 94.7493C59.8295 94.3364 60.3343 93.9683 61.0262 93.6772C61.0712 93.6585 61.0419 93.5921 60.9966 93.6104V93.6104ZM59.419 94.7973C59.423 94.724 59.4236 94.6449 59.43 94.5768C59.4381 94.4893 59.2992 94.4472 59.2667 94.5363C59.1548 94.8448 59.0609 95.158 58.9751 95.473C58.9021 95.6218 58.8288 95.7705 58.7829 95.9271C58.8252 95.8082 58.8868 95.6983 58.9405 95.5842C58.81 96.0841 58.7276 96.5906 58.6703 97.098C58.6451 96.6956 58.6738 96.3015 58.7829 95.9271C58.53 96.6437 58.4824 97.4331 58.6091 98.2063C58.6127 99.8547 59.04 101.48 60.0651 102.911C61.6112 105.069 65.1113 106.116 66.9184 103.658C67.3609 103.057 67.5727 102.246 67.5961 101.351C67.6984 100.338 67.4629 99.1857 66.989 98.1128C65.9131 95.3231 63.555 93.0929 61.0801 94.8944C60.9004 94.999 60.7209 95.1169 60.5425 95.2624C60.4447 95.3424 60.4673 95.4551 60.5354 95.5238C60.4831 95.984 61.1638 96.3902 61.4781 95.9118C61.8363 95.3664 62.2278 95.0725 62.6288 94.9502C64.313 95.0686 65.8209 96.823 66.4807 98.3947C66.9561 100.172 66.386 102.907 63.8962 102.775C60.5411 102.597 59.2858 97.3083 59.4189 94.8C59.4318 94.7839 59.4408 94.7654 59.454 94.7493C59.4399 94.7645 59.4324 94.782 59.419 94.7973V94.7973ZM74.0435 86.9141C72.9384 87.4638 71.8127 88.3234 71.7968 89.6127C71.7828 90.7615 72.8042 91.6694 74.0173 91.5618C75.2071 91.4565 76.0233 90.3138 75.7955 89.2179C75.5522 88.0508 74.2101 87.464 73.0815 87.8306C72.7888 87.9257 72.9215 88.4048 73.2277 88.3325C74.1287 88.1199 75.1842 88.5844 75.1712 89.5712C75.1586 90.4997 74.2291 91.1216 73.3124 90.7963C72.4961 90.5065 72.2132 89.743 72.3884 88.973C72.5927 88.0739 73.322 87.4768 74.0857 86.9834C74.1251 86.9578 74.0864 86.8925 74.0435 86.9141V86.9141ZM92.8592 93.3178C90.6734 94.2427 89.1623 95.8459 88.3327 97.7484C86.344 100.638 85.3891 104.363 87.1958 107.559C88.9801 110.716 93.4958 112.248 97.0379 111.132C100.819 109.941 103.078 105.839 102.644 102.182C102.582 101.662 102.467 101.159 102.307 100.678C101.465 96.7623 97.7093 93.3342 92.4384 94.4762C92.191 94.5296 92.2395 94.8986 92.4948 94.8521C96.0744 94.1983 99.9549 95.5841 101.449 98.9151C99.9102 96.5326 97.1276 94.9445 94.1108 94.7494C93.4604 94.7073 93.3328 95.6373 93.9906 95.7116C97.458 96.1031 100.772 98.2543 101.537 101.634C101.789 102.746 101.726 103.878 101.411 104.938C100.714 106.419 99.5001 107.682 97.8223 108.44C96.8113 108.897 95.827 109.107 94.892 109.128C97.9885 108.483 100.252 105.472 99.1557 102.244C99.1449 102.213 99.0943 102.228 99.0987 102.259C99.6927 106.395 95.5413 109.416 91.4494 107.887C91.0439 107.735 90.6785 107.547 90.3393 107.337C89.3158 106.353 88.5561 105.028 88.1854 103.489C87.9073 102.335 87.8469 101.175 87.9854 100.059C88.0898 99.7354 88.2101 99.4149 88.3597 99.1043C88.4146 98.99 88.287 98.915 88.1897 98.9494C88.261 98.6714 88.3492 98.3993 88.4476 98.1311C88.6818 97.6931 88.9317 97.2653 89.2066 96.8611C89.2561 96.7887 89.1762 96.7162 89.1088 96.7425C89.942 95.3399 91.2007 94.1567 92.8822 93.37C92.9162 93.354 92.8944 93.3028 92.8592 93.3178V93.3178ZM88.0127 104.328C88.1092 104.649 88.2285 104.956 88.3576 105.256C87.8643 104.348 87.6228 103.318 87.6251 102.264C87.6847 102.953 87.8082 103.645 88.0127 104.328ZM87.7068 99.9061C86.3381 103.435 87.736 107.654 91.7261 108.938C93.3228 109.746 95.2587 109.922 97.3139 109.192C98.1212 108.906 98.818 108.54 99.4259 108.122C98.4811 109.006 97.2891 109.66 95.9215 109.931C92.8142 110.546 89.3714 109.123 87.9156 106.392C86.7867 104.273 86.9398 101.904 87.7361 99.7319C87.7258 99.7899 87.716 99.848 87.7068 99.9061V99.9061ZM68.4044 106.789C68.4117 106.773 68.386 106.758 68.3752 106.773C67.9823 107.337 67.9396 108.092 68.449 108.615C68.9183 109.096 69.7518 109.246 70.3266 108.844C70.8419 108.484 71.0731 107.739 70.7163 107.205C70.3422 106.645 69.5391 106.512 68.9775 106.874C68.7372 107.028 69.0087 107.341 69.247 107.207C70.3209 106.603 70.994 108.35 69.7938 108.714C68.5605 109.089 68.0196 107.662 68.4044 106.789V106.789ZM51.3685 108.025C51.3934 108.046 51.4332 108.009 51.4102 107.985C50.8814 107.433 49.9834 107.623 49.6718 108.29C49.1278 109.456 50.3402 110.476 51.2846 110.995C52.1255 111.458 53.4791 111.656 54.0117 110.649C54.3828 109.946 53.8398 109.114 53.0141 109.173C52.8016 109.188 52.8003 109.535 53.0186 109.533C54.2321 109.524 53.3454 110.804 52.6005 110.765C52.0972 110.738 51.5793 110.417 51.1826 110.157C50.942 109.999 50.7092 109.834 50.513 109.627C50.3476 109.484 50.2248 109.311 50.1443 109.109C49.7885 108.332 50.1965 107.971 51.3685 108.025V108.025ZM72.1103 75.1326C72.1669 75.1288 72.167 75.0377 72.109 75.0364C70.877 75.0137 69.8626 76.1136 70.2731 77.2787C70.6254 78.2784 72.2731 79.0865 72.954 77.9236C73.0778 77.7124 72.7107 77.5162 72.5668 77.7116C71.8955 78.6245 70.6875 77.6382 70.5469 76.8487C70.3833 75.9274 71.1895 75.1937 72.1103 75.1326V75.1326ZM114.159 98.1652C113.331 98.574 112.905 99.5851 113.463 100.364C114.024 101.146 115.362 101.264 116.016 100.536C116.139 100.398 115.956 100.15 115.78 100.245C115.198 100.559 114.462 100.621 113.961 100.12C113.419 99.5764 113.56 98.6164 114.176 98.193C114.191 98.1826 114.176 98.1568 114.159 98.1652V98.1652ZM127.94 95.9405C127.913 95.9229 127.885 95.903 127.858 95.8853C127.863 95.8636 127.871 95.8418 127.875 95.8201C127.899 95.7085 127.811 95.5859 127.704 95.5453C127.415 95.4343 127.131 95.3206 126.846 95.2078C123.097 92.6631 119.096 89.459 114.818 88.1276C114.311 87.9697 113.71 88.467 113.933 88.9318C113.737 88.9768 113.541 89.019 113.348 89.0414C113.139 89.0653 112.94 89.0739 112.743 89.0806C112.131 89.0147 111.41 88.9055 110.68 88.7479C110.635 88.7311 110.589 88.7194 110.544 88.7016C111.046 88.754 111.546 88.7798 112.024 88.7906C112.067 88.7916 112.076 88.7299 112.032 88.7266C111.318 88.6693 110.561 88.5357 109.835 88.3224C109.5 88.1014 109.185 87.8341 108.888 87.5145C108.074 86.4969 107.964 85.1876 107.391 83.8202C108.135 83.8885 108.486 82.8037 107.713 82.4193C97.1004 77.1432 85.8217 73.4677 74.5919 69.6206C71.775 68.6557 68.594 67.4694 66.7557 65.0883C66.1726 64.3331 65.8513 62.6271 65.1505 61.6137C65.3936 61.6181 65.6418 61.6279 65.8969 61.6487C68.9611 61.9006 69.4137 63.9713 71.2819 65.6968C73.3214 67.5803 75.9543 68.6642 78.7464 69.0164C78.7902 69.022 78.7971 68.96 78.7545 68.9522C76.5826 68.5551 74.5947 67.7696 72.9146 66.3703C71.3351 65.0546 70.7255 63.2662 69.3183 61.8985C69.2199 61.8026 69.116 61.7189 69.0109 61.6389C69.0279 61.6413 69.0456 61.6438 69.0626 61.6462C69.3981 61.6959 69.4594 61.2014 69.1249 61.1492C67.9689 60.9689 66.8092 60.8083 65.6488 60.6577C65.1515 60.5931 64.6536 60.5314 64.1553 60.4751C63.8871 60.4447 62.4792 60.5064 63.3925 60.3219C63.4137 60.3177 63.4097 60.2877 63.3879 60.29C63.1381 60.3182 62.8878 60.3405 62.637 60.3569C62.5748 60.3618 62.5593 60.4584 62.6215 60.4759C62.8725 60.5456 63.1307 60.5988 63.3854 60.6604C63.2476 60.6857 63.118 60.7424 62.9921 60.8274C62.6922 60.8105 62.3998 60.7798 62.1195 60.726C61.7974 60.6645 61.6208 61.1129 61.8789 61.2867C61.9915 61.666 62.1044 62.0453 62.217 62.4246C60.5089 66.1403 58.5237 69.7043 56.2222 73.126C56.1162 73.2832 56.3618 73.4617 56.4646 73.3035C58.3526 70.3985 60.0201 67.3975 61.4868 64.2931C60.8493 65.8122 60.1578 67.3053 59.3382 68.7774C59.1885 69.0464 59.642 69.2109 59.7951 68.9546C60.5883 67.6256 61.2863 66.2543 61.885 64.8362C62.0975 64.3336 62.2921 63.8233 62.4808 63.3118C62.5256 63.4628 62.5704 63.6134 62.6152 63.7644C62.4893 64.0669 62.9538 64.2394 63.1034 63.9536C63.1693 63.8274 63.2016 63.709 63.2478 63.587C65.8729 69.5484 72.3687 73.3091 78.8349 74.6634C78.8628 74.6691 78.8751 74.625 78.8475 74.6169C75.3618 73.5734 72.5039 71.836 70.0381 69.6566C72.4378 70.8389 75.1732 71.5085 77.6709 72.3174C87.2827 75.4303 96.4912 79.277 105.755 83.1828C105.523 83.5895 105.403 84.0159 105.381 84.4454C103.308 83.7798 101.239 83.1005 99.1723 82.4154C99.1415 82.405 99.1231 82.4473 99.1532 82.4602C100.433 83.0058 101.713 83.5502 102.995 84.0914C103.359 84.2449 104.667 84.644 105.402 84.9999C105.493 85.6549 105.798 86.2906 106.261 86.8395C106.304 87.0511 106.374 87.2663 106.51 87.4829C107.954 89.7872 111.819 90.1429 114.234 89.6233C114.344 89.5996 114.392 89.5292 114.414 89.4525C116.858 91.771 120.182 92.995 123.07 94.7394C123.087 94.7525 123.104 94.7644 123.121 94.7775C123.851 95.3506 124.815 96.0022 125.429 96.6903C125.641 96.9279 125.79 97.1382 125.913 97.339C126.183 98.8735 124.262 100.769 123.293 102.158C122.098 103.871 120.823 105.528 119.512 107.161C119.536 107.113 119.534 107.071 119.518 107.035C119.649 106.819 119.78 106.603 119.911 106.388C119.985 106.266 119.817 106.129 119.723 106.25C116.802 109.983 113.813 113.696 111.081 117.559C111.904 115.945 112.785 114.36 113.731 112.807C115.623 109.703 117.744 106.751 120.053 103.914C120.073 103.889 120.033 103.86 120.012 103.885C116.274 108.367 113.033 113.182 110.373 118.315C109.928 119.174 107.111 124.015 109.313 124.549C109.35 124.634 109.368 124.717 109.411 124.802C109.486 124.956 109.583 125.068 109.69 125.156C109.741 125.488 109.809 125.82 109.916 126.155C110.146 126.875 111.159 128.072 111.076 128.788C110.725 129.343 110.036 129.84 109.642 130.255C109.292 130.622 108.961 131.001 108.637 131.386C108.593 131.426 108.542 131.468 108.502 131.508C106.655 133.325 105.132 135.452 104.451 137.734C104.745 135.11 106.017 132.73 107.62 130.09C107.634 130.068 107.603 130.043 107.587 130.065C105.164 133.214 102.044 137.723 103.706 141.727C98.779 138.581 93.0808 136.362 87.9074 133.672C84.2173 131.753 80.6349 129.683 77.0684 127.566C73.7388 125.588 73.4065 123.731 71.4213 120.909C69.6763 118.429 64.5194 116.7 61.5627 117.903C60.2711 118.272 59.3829 119.102 58.9484 120.297C55.615 118.221 52.2564 116.173 48.8354 114.229C48.0376 113.685 47.2401 113.141 46.4414 112.598C46.4236 112.586 46.403 112.611 46.4208 112.624C47.0136 113.04 47.607 113.457 48.2004 113.873C47.1853 113.301 46.1671 112.734 45.1394 112.184C44.5712 111.88 43.9457 111.617 43.3346 111.358C42.9084 111.107 42.4854 110.85 42.0562 110.604C40.3878 109.646 40.7536 109.316 41.8531 107.542C43.0866 105.552 44.398 103.608 45.6695 101.64C45.692 101.605 45.6406 101.566 45.6155 101.6C43.8367 104.073 42.1071 106.577 40.2147 108.973C40.1115 108.538 40.1603 108.031 40.4383 107.411C41.4307 105.198 42.9739 103.083 44.1718 100.871C44.2788 100.92 44.3977 100.95 44.5382 100.931C45.0682 100.858 45.6906 100.718 46.3293 100.518C46.8793 100.608 47.4428 100.343 47.9501 99.8654C49.5879 99.0348 50.9003 97.7351 50.4731 95.911C50.3066 95.1995 49.9333 94.6782 49.4439 94.3282C49.3911 94.2319 49.3333 94.1393 49.2654 94.0546C49.1985 93.9716 49.0807 93.8951 48.944 93.8233C49.7151 92.5787 50.3204 91.2244 51.0466 89.9618C52.3356 87.7205 53.6984 85.5188 55.0577 83.3158C55.0901 83.2633 55.0124 83.2034 54.9767 83.2567C53.6268 85.2875 52.2728 87.3144 50.8729 89.3144C50.2364 90.2238 49.5202 91.0964 48.8456 91.9916C49.0825 91.5657 49.323 91.1409 49.555 90.7132C49.7817 90.4253 49.9572 90.1974 50.0216 90.0992C51.3482 88.0726 52.3511 85.9016 53.1016 83.643C53.8664 81.9908 54.5996 80.3229 55.2848 78.6309C55.3612 81.3281 58.3465 82.6912 61.025 81.7705C61.2292 81.7001 61.276 81.5314 61.2237 81.3837C61.2932 81.3314 61.3653 81.2853 61.432 81.2262C61.4597 81.2016 61.4782 81.175 61.5047 81.1501C61.4205 81.5098 61.3336 81.8682 61.2489 82.222C61.226 82.3186 61.4011 82.363 61.4287 82.2663C61.5575 81.8115 61.6793 81.3355 61.7905 80.8528C63.0883 79.3926 62.8244 77.6116 61.8365 76.1253C61.6634 75.5954 61.4242 75.0824 61.0592 74.6079C59.84 73.0229 57.5446 72.4722 55.8562 73.7112C55.8304 73.7305 55.8612 73.7683 55.8873 73.7499C58 72.2626 60.4357 73.5705 61.4132 75.5601C60.6146 74.5984 59.5359 73.8138 58.448 73.4164C58.4226 73.4069 58.4066 73.4436 58.432 73.4537C59.6145 73.9187 60.7675 74.7679 61.5304 75.8224C61.5662 75.9092 61.6044 75.9949 61.6349 76.0836C62.1419 77.5702 61.954 79.099 61.63 80.5968C61.452 80.8078 61.2453 80.997 61.0198 81.1639C60.9647 81.1373 60.9046 81.1187 60.8359 81.1218C59.2797 81.1941 58.1453 80.089 57.5807 78.7927C57.7336 78.7572 57.8869 78.7224 58.0396 78.6861C58.2747 78.6309 58.2281 78.275 57.9854 78.3265C57.8017 78.3655 57.6187 78.4067 57.4354 78.4463C57.3666 78.2489 57.31 78.0492 57.2684 77.8504C57.2588 77.8666 57.2492 77.8827 57.2396 77.8988C57.1079 76.9374 55.5204 76.699 55.3294 77.8703C55.3269 77.8843 55.3276 77.8974 55.3254 77.9117C54.8514 78.9023 54.3608 79.8831 53.8614 80.8589C53.8534 80.8616 53.8436 80.8621 53.8412 80.8718C53.8362 80.8916 53.8298 80.9105 53.8249 80.9304C51.4463 85.5708 48.7762 90.0455 45.7291 94.3389C45.273 94.9816 45.9079 95.7584 46.6771 95.5079C47.6741 97.5663 47.4255 98.7552 45.9314 99.0746C45.5506 99.2036 45.1732 99.3414 44.7953 99.4771C44.7347 99.3688 44.5559 99.326 44.45 99.4382C44.3746 99.5182 44.3048 99.5974 44.2302 99.6773C44.2128 99.6835 44.1953 99.6895 44.1779 99.6957C43.9357 99.783 43.8194 99.9629 43.7883 100.158C41.225 102.961 39.1975 105.679 37.4462 109.059C37.2808 109.378 37.5141 109.693 37.7945 109.845C45.0629 113.782 52.1976 117.969 59.0242 122.567C59.5686 122.934 60.6057 122.698 60.6007 121.938C61.3961 120.994 62.1918 120.049 62.9871 119.105C63.1455 119.074 63.2609 119.006 63.357 118.925C66.402 118.475 69.9159 121.102 71.2142 123.733C71.5968 124.508 71.7316 125.29 72.2787 126.018C72.6907 126.568 73.2136 127.038 73.7973 127.46C73.3901 127.268 72.9856 127.071 72.5781 126.879C72.5585 126.87 72.5461 126.899 72.5654 126.909C73.0692 127.153 73.57 127.403 74.0731 127.65C75.4409 128.57 77.1026 129.238 78.6202 129.882C80.3141 130.722 82.0029 131.571 83.6908 132.421C90.7092 136.298 97.46 141.081 104.932 143.874C104.996 144.007 105.05 144.139 105.122 144.272C105.214 144.442 105.52 144.389 105.48 144.178C105.467 144.109 105.463 144.042 105.452 143.973C105.851 143.886 106.078 143.36 105.68 143.068C105.574 142.992 105.461 142.924 105.355 142.848C105.339 142.78 105.323 142.712 105.308 142.645C105.044 137.213 109.002 133.027 113.117 129.48C113.403 129.234 113.568 128.752 113.26 128.444C112.122 127.304 111.452 125.999 111.238 124.587C111.274 124.43 111.285 124.263 111.229 124.078C111.203 123.992 111.192 123.906 111.171 123.819C111.16 123.469 111.177 123.113 111.223 122.751C112.099 120.465 113.746 118.108 114.521 116.651C115.405 114.987 116.276 113.318 117.152 111.65C120.159 107.923 123.069 104.097 125.735 100.136C125.84 100.175 125.961 100.159 126.044 100.043C126.44 99.4857 126.779 98.8682 127.069 98.2298C127.406 97.8411 127.746 97.4555 128.096 97.0783C128.389 96.7635 128.304 96.1751 127.94 95.9405V95.9405ZM107.143 85.0116C106.817 84.9095 106.493 84.8018 106.168 84.6982C106.161 84.3103 106.222 83.8922 106.366 83.4403C106.532 83.5104 106.698 83.5799 106.863 83.6498C107.059 84.0848 107.169 84.5928 107.263 85.0888C107.229 85.0582 107.193 85.0276 107.143 85.0116V85.0116ZM107.037 86.7608C106.942 86.4169 106.999 86.0347 107.31 85.6001C107.328 85.5761 107.333 85.5462 107.345 85.5189C107.424 85.93 107.508 86.312 107.645 86.605C107.871 87.0888 108.185 87.4888 108.561 87.8401C107.968 87.5546 107.446 87.1946 107.037 86.7608V86.7608ZM61.9617 76.5296C62.4497 77.491 62.6041 78.5712 62.1893 79.6684C62.1233 79.8424 62.0349 80.0117 61.9337 80.1766C62.1647 78.9562 62.2473 77.7012 61.9617 76.5296V76.5296ZM52.2798 85.4039C51.9047 86.2533 51.4911 87.0846 51.032 87.8936C51.4548 87.0668 51.8763 86.2389 52.2798 85.4039ZM109.444 130.721C109.887 130.26 110.347 129.813 110.827 129.383C110.507 129.869 109.97 130.309 109.444 130.721ZM114.271 116.01C113.431 117.567 112.329 119.212 111.456 120.898C111.415 120.829 111.359 120.771 111.294 120.722C112.037 118.198 114.081 115.812 115.397 113.739C115.708 113.249 116.008 112.753 116.315 112.261C115.633 113.51 114.947 114.758 114.271 116.01V116.01ZM117.371 111.233C117.953 110.124 118.54 109.016 119.122 107.906C119.182 107.944 119.266 107.95 119.326 107.882C121.128 105.857 122.735 103.679 124.388 101.54C122.169 104.851 119.828 108.078 117.371 111.233ZM92.3939 120.655C91.8839 120.153 91.2684 119.739 90.7147 119.459C90.0453 119.121 89.2255 118.905 88.5413 119.328C88.3025 119.476 88.1294 119.668 88.0192 119.884C87.9974 119.885 87.9743 119.874 87.9578 119.893C85.9704 122.182 88.2761 126.002 91.3405 125.717C92.8411 125.579 94.1374 124.407 94.1753 122.942C94.2025 121.895 93.4391 120.895 92.3939 120.655ZM90.1834 123.926C88.7115 123.589 87.7604 122.182 87.8887 120.82C87.905 120.761 87.9139 120.702 87.9357 120.644C87.9545 120.73 87.9609 120.814 87.9997 120.901C88.127 121.181 88.5561 121.002 88.4544 120.719C88.2725 120.061 88.6334 119.689 89.5371 119.605C89.9725 119.67 90.3698 119.824 90.7287 120.067C91.028 120.245 91.3201 120.453 91.59 120.67C91.5968 120.675 91.6041 120.682 91.6107 120.688C91.4272 120.85 91.4266 121.187 91.6362 121.344C93.2172 122.53 92.0293 124.349 90.1834 123.926" fill="#6A6A6A" fill-opacity="0.2"/>
</svg>
