<svg width="165" height="165" viewBox="0 0 165 165" fill="none" xmlns="http://www.w3.org/2000/svg">
<path d="M165 155C165 160.523 160.523 165 155 165L10 165C4.47716 165 3.70928e-06 160.523 3.87334e-06 155L8.18078e-06 9.99999C8.34485e-06 4.47715 4.47716 -2.94834e-06 10 -1.94459e-06L155 2.44086e-05C160.523 2.54123e-05 165 4.47718 165 10L165 155Z" fill="white"/>
<path d="M155 164.5L10 164.5C4.7533 164.5 0.5 160.247 0.5 155L0.500005 10C0.500005 4.7533 4.7533 0.500001 10 0.500002L155 0.500029C160.247 0.50003 164.5 4.75333 164.5 10L164.5 155C164.5 160.247 160.247 164.5 155 164.5Z" stroke="#8F9BBA" stroke-opacity="0.2"/>
<path d="M70.942 19.7C70.942 20.612 70.792 21.464 70.492 22.256C70.192 23.036 69.766 23.72 69.214 24.308C68.674 24.896 68.032 25.358 67.288 25.694C66.544 26.018 65.728 26.18 64.84 26.18C63.964 26.18 63.154 26.018 62.41 25.694C61.666 25.358 61.018 24.896 60.466 24.308C59.926 23.72 59.506 23.036 59.206 22.256C58.918 21.464 58.774 20.612 58.774 19.7C58.774 18.788 58.918 17.942 59.206 17.162C59.506 16.37 59.926 15.68 60.466 15.092C61.018 14.504 61.666 14.048 62.41 13.724C63.154 13.388 63.964 13.22 64.84 13.22C65.728 13.22 66.544 13.388 67.288 13.724C68.032 14.048 68.674 14.504 69.214 15.092C69.766 15.68 70.192 16.37 70.492 17.162C70.792 17.942 70.942 18.788 70.942 19.7ZM68.998 19.7C68.998 18.812 68.818 18.014 68.458 17.306C68.11 16.598 67.624 16.04 67 15.632C66.376 15.224 65.656 15.02 64.84 15.02C64.036 15.02 63.322 15.224 62.698 15.632C62.074 16.04 61.588 16.598 61.24 17.306C60.892 18.002 60.718 18.8 60.718 19.7C60.718 20.588 60.892 21.386 61.24 22.094C61.588 22.802 62.074 23.36 62.698 23.768C63.322 24.176 64.036 24.38 64.84 24.38C65.656 24.38 66.376 24.176 67 23.768C67.624 23.36 68.11 22.802 68.458 22.094C68.818 21.386 68.998 20.588 68.998 19.7ZM77.4714 16.316C78.3234 16.316 78.9834 16.496 79.4514 16.856C79.9194 17.204 80.2434 17.678 80.4234 18.278C80.6154 18.866 80.7114 19.526 80.7114 20.258V25.082C80.7114 25.346 80.6214 25.568 80.4414 25.748C80.2734 25.916 80.0634 26 79.8114 26C79.5474 26 79.3314 25.916 79.1634 25.748C78.9954 25.568 78.9114 25.346 78.9114 25.082V20.276C78.9114 19.844 78.8514 19.46 78.7314 19.124C78.6114 18.776 78.4014 18.5 78.1014 18.296C77.8134 18.08 77.4054 17.972 76.8774 17.972C76.3854 17.972 75.9534 18.08 75.5814 18.296C75.2094 18.5 74.9154 18.776 74.6994 19.124C74.4954 19.46 74.3934 19.844 74.3934 20.276V25.082C74.3934 25.346 74.3034 25.568 74.1234 25.748C73.9554 25.916 73.7454 26 73.4934 26C73.2294 26 73.0134 25.916 72.8454 25.748C72.6774 25.568 72.5934 25.346 72.5934 25.082V17.45C72.5934 17.186 72.6774 16.97 72.8454 16.802C73.0134 16.622 73.2294 16.532 73.4934 16.532C73.7454 16.532 73.9554 16.622 74.1234 16.802C74.3034 16.97 74.3934 17.186 74.3934 17.45V18.458L74.0694 18.638C74.1534 18.374 74.2974 18.11 74.5014 17.846C74.7174 17.57 74.9754 17.318 75.2754 17.09C75.5754 16.85 75.9114 16.664 76.2834 16.532C76.6554 16.388 77.0514 16.316 77.4714 16.316ZM84.5425 25.082C84.5425 25.346 84.4585 25.568 84.2905 25.748C84.1225 25.916 83.9065 26 83.6425 26C83.3905 26 83.1745 25.916 82.9945 25.748C82.8265 25.568 82.7425 25.346 82.7425 25.082V17.378C82.7425 17.114 82.8265 16.898 82.9945 16.73C83.1745 16.55 83.3905 16.46 83.6425 16.46C83.9065 16.46 84.1225 16.55 84.2905 16.73C84.4585 16.898 84.5425 17.114 84.5425 17.378V25.082ZM83.6245 15.272C83.2765 15.272 83.0245 15.212 82.8685 15.092C82.7125 14.96 82.6345 14.744 82.6345 14.444V14.156C82.6345 13.856 82.7185 13.646 82.8865 13.526C83.0545 13.406 83.3065 13.346 83.6425 13.346C84.0025 13.346 84.2605 13.412 84.4165 13.544C84.5725 13.664 84.6505 13.868 84.6505 14.156V14.444C84.6505 14.756 84.5665 14.972 84.3985 15.092C84.2425 15.212 83.9845 15.272 83.6245 15.272ZM95.6758 21.266C95.6758 22.226 95.4658 23.078 95.0458 23.822C94.6258 24.554 94.0558 25.13 93.3358 25.55C92.6158 25.97 91.8058 26.18 90.9058 26.18C90.0058 26.18 89.1958 25.97 88.4758 25.55C87.7558 25.13 87.1798 24.554 86.7478 23.822C86.3278 23.078 86.1178 22.226 86.1178 21.266C86.1178 20.294 86.3278 19.442 86.7478 18.71C87.1798 17.966 87.7558 17.384 88.4758 16.964C89.1958 16.532 90.0058 16.316 90.9058 16.316C91.8058 16.316 92.6158 16.532 93.3358 16.964C94.0558 17.384 94.6258 17.966 95.0458 18.71C95.4658 19.442 95.6758 20.294 95.6758 21.266ZM93.8758 21.266C93.8758 20.606 93.7438 20.036 93.4798 19.556C93.2158 19.064 92.8558 18.68 92.3998 18.404C91.9558 18.116 91.4578 17.972 90.9058 17.972C90.3538 17.972 89.8498 18.116 89.3938 18.404C88.9378 18.68 88.5778 19.064 88.3138 19.556C88.0498 20.036 87.9178 20.606 87.9178 21.266C87.9178 21.902 88.0498 22.466 88.3138 22.958C88.5778 23.45 88.9378 23.834 89.3938 24.11C89.8498 24.386 90.3538 24.524 90.9058 24.524C91.4578 24.524 91.9558 24.386 92.3998 24.11C92.8558 23.834 93.2158 23.45 93.4798 22.958C93.7438 22.466 93.8758 21.902 93.8758 21.266ZM102.231 16.316C103.083 16.316 103.743 16.496 104.211 16.856C104.679 17.204 105.003 17.678 105.183 18.278C105.375 18.866 105.471 19.526 105.471 20.258V25.082C105.471 25.346 105.381 25.568 105.201 25.748C105.033 25.916 104.823 26 104.571 26C104.307 26 104.091 25.916 103.923 25.748C103.755 25.568 103.671 25.346 103.671 25.082V20.276C103.671 19.844 103.611 19.46 103.491 19.124C103.371 18.776 103.161 18.5 102.861 18.296C102.573 18.08 102.165 17.972 101.637 17.972C101.145 17.972 100.713 18.08 100.341 18.296C99.9692 18.5 99.6752 18.776 99.4592 19.124C99.2552 19.46 99.1532 19.844 99.1532 20.276V25.082C99.1532 25.346 99.0632 25.568 98.8832 25.748C98.7152 25.916 98.5052 26 98.2532 26C97.9892 26 97.7732 25.916 97.6052 25.748C97.4372 25.568 97.3532 25.346 97.3532 25.082V17.45C97.3532 17.186 97.4372 16.97 97.6052 16.802C97.7732 16.622 97.9892 16.532 98.2532 16.532C98.5052 16.532 98.7152 16.622 98.8832 16.802C99.0632 16.97 99.1532 17.186 99.1532 17.45V18.458L98.8292 18.638C98.9132 18.374 99.0572 18.11 99.2612 17.846C99.4772 17.57 99.7352 17.318 100.035 17.09C100.335 16.85 100.671 16.664 101.043 16.532C101.415 16.388 101.811 16.316 102.231 16.316Z" fill="#6C7693"/>
<rect x="10" y="39" width="145" height="118" rx="10" fill="#FFB68C" fill-opacity="0.5"/>
<g filter="url(#filter0_d_229_2140)">
<path d="M120.084 74.8782L104.482 69.0991L82.3082 68.1942L66.2666 71.6473L57.376 79.3193L59.329 85.1292C59.329 85.1292 58.9367 82.1617 62.2755 79.2221C65.6185 76.2828 69.776 72.4298 81.7112 72.3245C95.6634 72.1995 106.354 72.9905 112.293 75.1669C117.415 77.0431 123.244 81.4539 123.316 82.0978C123.393 82.7417 124.915 80.6211 124.915 80.6211L120.084 74.8782" fill="#994575"/>
<path d="M126.975 80.2098L122.454 90.0135L106.484 98.0552L84.3555 98.0441L67.0629 93.2253L59.6697 88.5982L55.5446 81.6614L54.2141 87.2379C54.2141 87.2379 53.6113 90.0971 59.519 95.1961C64.5052 99.4986 84.8765 105.819 99.762 104.312C131.729 101.078 128.883 86.397 128.883 86.397L126.975 80.2098" fill="#994575"/>
<path d="M122.619 85.8367C119.246 92.9538 106.042 98.1335 86.9862 96.2986C72.6677 94.9218 59.2613 91.3271 58.7794 82.2726C58.2459 72.1769 75.4471 69.3821 85.6611 69.0684C115.21 68.1636 126.625 77.3928 122.619 85.8367V85.8367ZM84.7317 67.0587C73.7691 67.3973 55.0148 71.7192 55.587 82.5587C56.1033 92.2792 71.3296 97.4895 86.6291 99.5658C106.025 102.203 123.243 94.0695 126.865 86.4305C131.164 77.3652 116.454 66.0872 84.7317 67.0587" fill="#ECCEED"/>
<path d="M64.0472 93.9976C64.1563 95.0331 63.459 95.9462 63.572 96.9953C63.6187 97.4036 64.32 97.3089 64.2771 96.9038C64.1641 95.8683 64.8614 94.9524 64.7485 93.906C64.7056 93.4978 64.0005 93.5924 64.0472 93.9976Z" fill="#C1599A"/>
<path d="M69.1287 96.1645C68.8695 97.0724 68.5357 97.9633 68.257 98.8656C68.1352 99.254 68.8028 99.4982 68.9206 99.1071C69.2033 98.2048 69.537 97.3166 69.7923 96.406C69.9022 96.0177 69.2386 95.7703 69.1287 96.1645Z" fill="#C1599A"/>
<path d="M73.1237 97.5785C73.0209 98.6026 73.0209 99.6409 72.6574 100.621C72.5152 101.007 73.1829 101.248 73.3251 100.862C73.7123 99.827 73.7242 98.7389 73.8309 97.6563C73.8744 97.2509 73.1632 97.1735 73.1237 97.5785" fill="#C1599A"/>
<path d="M82.2452 99.5936C82.2733 100.57 82.3093 101.545 82.2092 102.516C82.1691 102.921 82.8783 102.999 82.9224 102.594C83.0186 101.622 82.9865 100.648 82.9545 99.6713C82.9425 99.2686 82.2292 99.1881 82.2452 99.5936" fill="#C1599A"/>
<path d="M92.9202 100.926C93.3278 101.606 93.1444 102.458 93.3563 103.185C93.4704 103.58 94.1755 103.494 94.0573 103.094C93.829 102.305 94.0125 101.417 93.5723 100.676C93.3522 100.315 92.7001 100.559 92.9202 100.926" fill="#C1599A"/>
<path d="M101.846 100.346C101.76 101.129 101.656 101.945 101.888 102.722C101.999 103.117 102.705 103.031 102.589 102.631C102.375 101.904 102.474 101.154 102.556 100.424C102.598 100.019 101.888 99.941 101.846 100.346Z" fill="#C1599A"/>
<path d="M108.872 99.2935C108.976 100.01 108.855 100.737 108.922 101.459C108.96 101.867 109.665 101.772 109.627 101.367C109.556 100.645 109.677 99.9207 109.577 99.1992C109.519 98.7938 108.818 98.8856 108.872 99.2935" fill="#C1599A"/>
<path d="M118.209 95.2712C118.112 96.1929 118.006 97.1145 117.909 98.0361C117.862 98.4415 118.573 98.5193 118.619 98.1139C118.721 97.1923 118.818 96.2706 118.919 95.349C118.966 94.944 118.256 94.8662 118.209 95.2712Z" fill="#C1599A"/>
<path d="M55.4765 86.8688C55.3573 87.8376 55.1191 88.7814 54.877 89.7278C54.7733 90.1221 55.4841 90.1943 55.5841 89.8054C55.83 88.859 56.0682 87.9152 56.1874 86.9464C56.2335 86.541 55.5264 86.4634 55.4765 86.8688Z" fill="#C1599A"/>
<path d="M58.3405 90.8688C58.2672 91.5544 58.2016 92.2485 57.9854 92.909C57.8619 93.2946 58.5297 93.539 58.6532 93.1503C58.8848 92.4342 58.9697 91.6903 59.0508 90.9464C59.0971 90.5442 58.3869 90.4635 58.3405 90.8688" fill="#C1599A"/>
<path d="M61.318 93.0091C61.5625 93.6892 61.2482 94.5664 61.1667 95.2492C61.1202 95.6543 61.8302 95.7322 61.8767 95.3268C61.9776 94.4969 62.2647 93.5864 61.966 92.7592C61.8224 92.3677 61.1784 92.6234 61.318 93.0091" fill="#C1599A"/>
<path d="M66.8789 95.6639C66.6598 96.43 66.5541 97.2071 66.468 97.9924C66.4211 98.3978 67.1332 98.4756 67.1763 98.0703C67.2585 97.3429 67.3406 96.6158 67.5441 95.908C67.6575 95.5195 66.9924 95.2722 66.8789 95.6639Z" fill="#C1599A"/>
<path d="M71.0116 97.3043C71.1928 98.109 71.1219 98.9252 71.1731 99.7385C71.2007 100.147 71.9018 100.049 71.8782 99.6468C71.823 98.8334 71.8979 98.0204 71.7127 97.2126C71.6221 96.81 70.9171 96.9018 71.0116 97.3043Z" fill="#C1599A"/>
<path d="M74.917 98.3663C75.0835 99.313 74.8695 100.257 74.8813 101.203C74.8893 101.609 75.5986 101.689 75.5946 101.281C75.5788 100.276 75.7928 99.2798 75.6224 98.2748C75.5511 97.8698 74.8497 97.9613 74.917 98.3663" fill="#C1599A"/>
<path d="M77.4301 98.9388C77.3187 99.9407 77.2153 100.943 77.3983 101.945C77.4738 102.35 78.1778 102.258 78.1023 101.853C77.9273 100.907 78.0347 99.9602 78.1381 99.0191C78.1818 98.6138 77.4738 98.5335 77.4301 98.9388" fill="#C1599A"/>
<path d="M78.8077 99.471C78.72 100.387 78.7599 101.306 78.8077 102.228C78.8277 102.633 79.5292 102.539 79.5092 102.136C79.4654 101.27 79.4335 100.409 79.5172 99.5488C79.5571 99.1438 78.8476 99.0661 78.8077 99.471" fill="#C1599A"/>
<path d="M103.792 70.8034C103.734 71.4333 103.788 72.072 103.73 72.702C103.689 73.1072 104.401 73.1875 104.438 72.7798C104.496 72.1494 104.446 71.5111 104.504 70.8808C104.541 70.476 103.83 70.3952 103.792 70.8034Z" fill="#C1599A"/>
<path d="M105.201 71.5002C105.363 71.9251 105.343 72.4106 105.446 72.8492C105.546 73.2488 106.247 73.16 106.152 72.7575C106.031 72.2579 106.036 71.7363 105.849 71.2504C105.699 70.8591 105.052 71.1118 105.201 71.5002" fill="#C1599A"/>
<path d="M106.975 71.9134C106.933 72.291 106.891 72.6686 106.85 73.0458C106.808 73.4513 107.519 73.5291 107.561 73.1236C107.603 72.746 107.644 72.3688 107.686 71.9912C107.732 71.5857 107.02 71.508 106.975 71.9134Z" fill="#C1599A"/>
<path d="M110.893 72.8518C110.851 73.2626 110.822 73.6734 110.918 74.0846C111.01 74.4841 111.713 74.3954 111.616 73.993C111.537 73.6345 111.566 73.2877 111.604 72.9296C111.65 72.5243 110.939 72.4469 110.893 72.8518" fill="#C1599A"/>
<path d="M113.425 73.7989C113.605 74.24 113.702 74.7122 113.815 75.1646C113.916 75.5641 114.622 75.4755 114.521 75.073C114.391 74.5647 114.273 74.043 114.076 73.5489C113.916 73.1633 113.269 73.4158 113.425 73.7989" fill="#C1599A"/>
<path d="M115.856 74.7951C115.814 75.1672 115.801 75.5308 115.889 75.9C115.986 76.3024 116.69 76.2109 116.593 75.8085C116.513 75.4891 116.53 75.195 116.564 74.8731C116.61 74.4677 115.898 74.3902 115.856 74.7951Z" fill="#C1599A"/>
<path d="M118.883 77.0039C118.981 77.1317 118.943 77.5202 118.854 77.709C118.68 78.0835 119.349 78.3252 119.518 77.9506C119.705 77.5536 119.726 76.9874 119.429 76.6153C119.163 76.2768 118.617 76.6678 118.883 77.0039Z" fill="#C1599A"/>
<path d="M100.837 70.2235C100.771 70.812 100.71 71.3976 100.644 71.9836C100.598 72.3887 101.307 72.4666 101.353 72.0611C101.418 71.4755 101.484 70.8899 101.546 70.3014C101.592 69.8959 100.883 69.8184 100.837 70.2235Z" fill="#C1599A"/>
<path d="M98.1034 70.5815C98.0582 70.5483 98.0829 70.5873 98.0829 70.6263C98.0788 70.7289 98.0542 70.8316 98.0336 70.9313C97.9844 71.1563 97.8981 71.3727 97.8242 71.5895C97.6928 71.975 98.358 72.2193 98.4893 71.8338C98.6577 71.3452 99.0847 70.4928 98.5181 70.0765C98.1568 69.8129 97.7421 70.318 98.1034 70.5815Z" fill="#C1599A"/>
<path d="M96.2884 69.8959C96.051 70.5177 96.0142 71.1645 96.0756 71.8223C96.1165 72.2304 96.8206 72.1358 96.7796 71.731C96.7264 71.1894 96.7592 70.6483 96.9556 70.1374C97.0989 69.7547 96.4317 69.5132 96.2884 69.8959" fill="#C1599A"/>
<path d="M93.6548 70.2012C93.6221 70.587 93.7323 70.9451 93.8301 71.3227C93.9362 71.7196 94.6418 71.6306 94.5357 71.2281C94.4542 70.9145 94.3359 70.6037 94.3644 70.2787C94.4011 69.8737 93.6915 69.7929 93.6548 70.2012" fill="#C1599A"/>
<path d="M91.4843 70.3425C91.4355 70.7923 91.3908 71.2504 91.4924 71.6998C91.5859 72.1022 92.2889 72.0107 92.1955 71.6084C92.1061 71.2142 92.1548 70.8143 92.1955 70.4201C92.2402 70.0149 91.529 69.9373 91.4843 70.3425Z" fill="#C1599A"/>
<path d="M89.1372 80.8432L72.9928 76.2715L50.8538 77.9842L35.2844 83.8413L27.2876 93.5565L29.8607 99.8406C29.8607 99.8406 29.143 96.5542 32.1444 92.8404C35.1457 89.1263 38.8566 84.2883 50.7152 82.7003C64.5678 80.8432 75.2805 80.413 81.4218 82.1286C86.719 83.6052 92.9949 87.8409 93.1336 88.5546C93.2763 89.2707 94.5649 86.6975 94.5649 86.6975L89.1372 80.8432" fill="#994575"/>
<path d="M96.5623 85.9848L93.1318 97.5541L78.137 108.554L56.1365 111.266L38.4262 107.983L30.5693 103.697L25.7129 96.4134L25.002 102.839C25.002 102.839 24.7127 106.126 31.1438 111.125C36.5664 115.344 57.5087 119.935 72.1399 116.41C103.56 108.84 99.1331 92.6994 99.1331 92.6994L96.5623 85.9848Z" fill="#994575"/>
<path d="M92.8503 92.8402C90.2709 101.248 77.7073 108.695 58.5698 108.981C44.1837 109.195 30.4641 106.81 29.0037 96.6985C27.3705 85.4234 44.1673 80.1659 54.2832 78.5557C83.5571 73.9009 95.911 82.8613 92.8503 92.8402ZM53.1436 76.4128C42.279 78.1423 24.1082 85.3094 25.8607 97.4119C27.4322 108.268 43.1347 112.245 58.5698 112.695C78.1392 113.267 94.3683 102.011 97.1369 92.9842C100.42 82.2697 84.565 71.4137 53.1436 76.4128Z" fill="#ECCEED"/>
<path d="M35.5143 109.22C35.7376 110.369 35.1459 111.482 35.3692 112.648C35.4585 113.098 36.1469 112.906 36.0613 112.456C35.8343 111.307 36.4297 110.194 36.2027 109.028C36.1134 108.579 35.425 108.77 35.5143 109.22" fill="#C1599A"/>
<path d="M40.7972 111.03C40.6396 112.082 40.4069 113.123 40.223 114.172C40.148 114.622 40.8347 114.816 40.9135 114.361C41.0936 113.312 41.3301 112.274 41.4839 111.219C41.5515 110.769 40.8647 110.575 40.7972 111.03" fill="#C1599A"/>
<path d="M44.9268 112.124C44.9344 113.287 45.0478 114.455 44.7984 115.599C44.6964 116.048 45.384 116.24 45.4861 115.79C45.7543 114.577 45.6485 113.353 45.641 112.124C45.6372 111.663 44.923 111.663 44.9268 112.124" fill="#C1599A"/>
<path d="M54.2104 113.267C54.3485 114.361 54.4866 115.449 54.4981 116.55C54.502 117.011 55.2156 117.011 55.2118 116.55C55.2002 115.449 55.0621 114.361 54.9278 113.267C54.8703 112.817 54.1567 112.809 54.2104 113.267Z" fill="#C1599A"/>
<path d="M64.9722 113.447C65.4526 114.158 65.3627 115.14 65.6517 115.932C65.808 116.362 66.4993 116.176 66.3392 115.743C66.0228 114.885 66.1126 113.864 65.5932 113.086C65.3354 112.706 64.7183 113.064 64.9722 113.447" fill="#C1599A"/>
<path d="M73.7808 111.695C73.7808 112.583 73.7729 113.513 74.0815 114.36C74.2359 114.79 74.9284 114.604 74.7701 114.171C74.4812 113.38 74.4971 112.525 74.4971 111.695C74.4971 111.234 73.7808 111.234 73.7808 111.695" fill="#C1599A"/>
<path d="M80.6505 109.648C80.8265 110.442 80.7865 111.274 80.9345 112.077C81.0185 112.529 81.7063 112.337 81.6223 111.885C81.4744 111.083 81.5143 110.256 81.3384 109.459C81.2384 109.009 80.5505 109.198 80.6505 109.648Z" fill="#C1599A"/>
<path d="M89.4951 103.982C89.4951 105.028 89.4951 106.077 89.4951 107.124C89.4951 107.584 90.2081 107.584 90.2081 107.124C90.2081 106.077 90.2081 105.028 90.2081 103.982C90.2081 103.521 89.4951 103.521 89.4951 103.982Z" fill="#C1599A"/>
<path d="M26.2145 102.269C26.2036 103.372 26.068 104.46 25.9288 105.553C25.8739 106.009 26.5845 106.003 26.6431 105.553C26.7823 104.46 26.9178 103.372 26.9288 102.269C26.9325 101.806 26.2182 101.809 26.2145 102.269Z" fill="#C1599A"/>
<path d="M29.4984 106.411C29.4984 107.188 29.5095 107.977 29.3695 108.743C29.2848 109.195 29.9735 109.387 30.0583 108.934C30.2093 108.099 30.213 107.255 30.213 106.411C30.213 105.95 29.4984 105.95 29.4984 106.411" fill="#C1599A"/>
<path d="M32.6928 108.448C33.0114 109.181 32.7928 110.205 32.7891 110.979C32.7817 111.44 33.5004 111.44 33.5041 110.979C33.5115 110.038 33.6967 108.978 33.3114 108.087C33.1262 107.665 32.5113 108.029 32.6928 108.448" fill="#C1599A"/>
<path d="M38.5122 110.744C38.3739 111.629 38.3589 112.515 38.3589 113.409C38.3552 113.87 39.073 113.87 39.073 113.409C39.073 112.582 39.073 111.754 39.2001 110.933C39.2711 110.483 38.5832 110.289 38.5122 110.744Z" fill="#C1599A"/>
<path d="M42.7983 112.076C43.0696 112.959 43.0847 113.883 43.2279 114.791C43.2957 115.244 43.9851 115.049 43.9173 114.599C43.7742 113.692 43.7591 112.77 43.4841 111.885C43.3522 111.446 42.6627 111.635 42.7983 112.076" fill="#C1599A"/>
<path d="M46.7973 112.789C47.0627 113.83 46.9565 114.918 47.0703 115.982C47.1195 116.434 47.8361 116.437 47.7868 115.982C47.6655 114.854 47.7678 113.708 47.4873 112.601C47.3736 112.154 46.6835 112.342 46.7973 112.789" fill="#C1599A"/>
<path d="M49.356 113.123C49.356 114.261 49.3636 115.399 49.6529 116.504C49.7709 116.948 50.4601 116.759 50.3421 116.315C50.0641 115.268 50.0679 114.197 50.0679 113.123C50.0679 112.662 49.356 112.662 49.356 113.123" fill="#C1599A"/>
<path d="M50.7822 113.553C50.7937 114.591 50.9348 115.618 51.0836 116.648C51.1485 117.1 51.8354 116.906 51.7705 116.456C51.6331 115.49 51.511 114.527 51.4996 113.553C51.4958 113.092 50.7822 113.092 50.7822 113.553" fill="#C1599A"/>
<path d="M72.4937 78.2697C72.5055 78.9886 72.6279 79.6965 72.6397 80.413C72.6437 80.8737 73.3583 80.8737 73.3543 80.413C73.3425 79.6965 73.2201 78.9886 73.2082 78.2697C73.2043 77.8118 72.4897 77.809 72.4937 78.2697Z" fill="#C1599A"/>
<path d="M73.9716 78.8815C74.1814 79.3396 74.2131 79.8863 74.3635 80.3666C74.5021 80.8025 75.191 80.6164 75.0524 80.1777C74.8782 79.631 74.8268 79.0427 74.5853 78.5209C74.3952 78.1016 73.7816 78.4654 73.9716 78.8815" fill="#C1599A"/>
<path d="M75.7798 79.128C75.7798 79.5584 75.7798 79.9857 75.7798 80.4134C75.7798 80.8739 76.4939 80.8739 76.4939 80.4134C76.4939 79.9857 76.4939 79.5584 76.4939 79.128C76.4939 78.6674 75.7798 78.6674 75.7798 79.128Z" fill="#C1599A"/>
<path d="M79.7827 79.6999C79.7827 80.1663 79.7947 80.6295 79.9385 81.0796C80.0743 81.518 80.7611 81.3319 80.6253 80.8907C80.5015 80.4994 80.4935 80.1052 80.4935 79.6999C80.4935 79.2391 79.7787 79.2391 79.7827 79.6999" fill="#C1599A"/>
<path d="M82.3975 80.4519C82.6262 80.9237 82.7706 81.4428 82.9351 81.9371C83.0795 82.3727 83.7695 82.1866 83.6211 81.7481C83.4405 81.1929 83.2681 80.6184 83.0153 80.0909C82.8187 79.6745 82.2009 80.0383 82.3975 80.4519Z" fill="#C1599A"/>
<path d="M84.9238 81.27C84.9238 81.6947 84.952 82.1028 85.0808 82.5081C85.2177 82.9439 85.9099 82.758 85.769 82.3165C85.6563 81.9696 85.6362 81.6339 85.6362 81.27C85.6362 80.8092 84.9238 80.8092 84.9238 81.27Z" fill="#C1599A"/>
<path d="M88.1673 83.3809C88.2805 83.5115 88.2845 83.9527 88.2158 84.1747C88.0864 84.6188 88.7739 84.8076 88.9073 84.3664C89.0448 83.8973 89.0044 83.2588 88.6728 82.8758C88.3695 82.5288 87.864 83.0339 88.1673 83.3809" fill="#C1599A"/>
<path d="M69.4946 77.9844C69.4946 78.6534 69.4946 79.3197 69.4946 79.9859C69.4946 80.4467 70.2096 80.4467 70.2096 79.9859C70.2096 79.3197 70.2096 78.6534 70.2096 77.9844C70.2096 77.5263 69.4946 77.5263 69.4946 77.9844Z" fill="#C1599A"/>
<path d="M66.8141 78.7226C66.7671 78.6921 66.7984 78.7339 66.8023 78.7754C66.8141 78.892 66.7984 79.0114 66.7867 79.1249C66.7632 79.3832 66.7006 79.6388 66.6536 79.8912C66.5636 80.3409 67.2524 80.5322 67.3424 80.0798C67.4559 79.5135 67.7846 78.5034 67.178 78.1066C66.7906 77.8538 66.4345 78.4729 66.8141 78.7226" fill="#C1599A"/>
<path d="M64.9337 78.1764C64.7699 78.9036 64.8011 79.6366 64.9337 80.3664C65.0196 80.8189 65.7101 80.6274 65.6242 80.1776C65.5111 79.5781 65.4877 78.9644 65.6242 78.368C65.7257 77.9182 65.0391 77.7266 64.9337 78.1764Z" fill="#C1599A"/>
<path d="M62.3556 78.8416C62.3634 79.2832 62.515 79.6688 62.6511 80.0797C62.7988 80.5127 63.4907 80.3269 63.3391 79.8912C63.2225 79.544 63.0786 79.2109 63.067 78.8416C63.0592 78.3837 62.3439 78.381 62.3556 78.8416" fill="#C1599A"/>
<path d="M60.2124 79.272C60.2124 79.7797 60.2163 80.3019 60.3673 80.793C60.5029 81.2318 61.1923 81.0455 61.0567 80.6044C60.9212 80.1713 60.925 79.7189 60.925 79.272C60.925 78.8111 60.2124 78.8111 60.2124 79.272" fill="#C1599A"/>
<path d="M129.949 99.5996L116.588 89.4595L95.3468 82.9837L78.7119 82.7616L67.7227 88.8876L67.8262 95.68C67.8262 95.68 68.3567 92.3604 72.5057 89.9956C76.6547 87.6304 81.8776 84.4798 93.4966 87.3194C107.074 90.6421 117.205 94.1506 122.298 97.9839C126.689 101.29 130.989 107.525 130.864 108.24C130.734 108.956 132.869 107.033 132.869 107.033L129.949 99.5996" fill="#994575"/>
<path d="M134.996 107.096L127.586 116.619L109.607 121.391L88.1373 115.901L72.8408 106.383L67.0916 99.5293L65.2228 90.977L62.2119 96.7006C62.2119 96.7006 60.7498 99.657 64.9113 106.655C68.424 112.559 86.2512 124.47 101.158 126.521C133.179 130.929 134.94 114.283 134.94 114.283L134.996 107.096" fill="#994575"/>
<path d="M129.033 111.309C123.566 118.017 109.155 120.309 91.2294 113.774C77.7554 108.864 65.8498 101.829 68.176 92.1429C70.7636 81.3406 88.3194 82.5379 98.3301 84.67C127.286 90.8374 135.524 103.348 129.033 111.309ZM98.0469 82.3216C87.3044 80.0326 67.7709 80.0813 64.9872 91.6751C62.4911 102.074 75.6644 111.252 89.8745 117.141C107.888 124.606 127.103 120.16 132.971 112.96C139.937 104.412 129.129 88.9428 98.0469 82.3216" fill="#ECCEED"/>
<path d="M69.6737 106.475C69.4615 107.627 68.5065 108.449 68.2903 109.615C68.2078 110.067 68.9192 110.139 68.9978 109.689C69.2139 108.537 70.1689 107.716 70.3851 106.547C70.4676 106.095 69.7523 106.023 69.6737 106.475" fill="#C1599A"/>
<path d="M73.9348 110.086C73.4047 111.01 72.8073 111.893 72.2574 112.804C72.02 113.195 72.5897 113.625 72.831 113.231C73.3809 112.321 73.9744 111.438 74.5045 110.514C74.734 110.12 74.1603 109.689 73.9348 110.086Z" fill="#C1599A"/>
<path d="M77.3772 112.612C76.9635 113.698 76.6454 114.827 75.9891 115.802C75.7345 116.182 76.3073 116.61 76.5618 116.229C77.2579 115.199 77.6079 114.02 78.0455 112.87C78.2086 112.443 77.5443 112.182 77.3772 112.612Z" fill="#C1599A"/>
<path d="M85.6118 117.058C85.3419 118.127 85.072 119.193 84.6773 120.222C84.5162 120.653 85.1808 120.914 85.3459 120.483C85.7406 119.451 86.0065 118.388 86.2763 117.319C86.3891 116.881 85.7245 116.614 85.6118 117.058Z" fill="#C1599A"/>
<path d="M95.5621 121.15C95.7543 121.989 95.3085 122.871 95.2921 123.712C95.2799 124.17 95.9915 124.248 95.9997 123.787C96.0201 122.874 96.4741 121.955 96.2696 121.039C96.1714 120.592 95.4639 120.701 95.5621 121.15Z" fill="#C1599A"/>
<path d="M104.405 122.73C104.082 123.559 103.73 124.42 103.714 125.322C103.701 125.777 104.41 125.858 104.422 125.397C104.443 124.556 104.77 123.765 105.073 122.991C105.238 122.563 104.575 122.302 104.405 122.73Z" fill="#C1599A"/>
<path d="M111.549 123.329C111.428 124.134 111.084 124.892 110.929 125.694C110.841 126.146 111.553 126.216 111.641 125.769C111.796 124.966 112.135 124.209 112.257 123.401C112.328 122.948 111.616 122.874 111.549 123.329" fill="#C1599A"/>
<path d="M121.847 121.278C121.465 122.252 121.082 123.226 120.7 124.204C120.534 124.631 121.197 124.892 121.367 124.465C121.75 123.487 122.132 122.513 122.515 121.536C122.68 121.109 122.013 120.848 121.847 121.278" fill="#C1599A"/>
<path d="M63.5499 96.6124C63.1412 97.637 62.6118 98.6001 62.0862 99.5659C61.8682 99.9711 62.5339 100.226 62.7519 99.8267C63.2774 98.8581 63.8029 97.8951 64.2155 96.8736C64.3868 96.4458 63.7251 96.185 63.5499 96.6124Z" fill="#C1599A"/>
<path d="M65.103 101.666C64.8182 102.391 64.5411 103.127 64.1314 103.793C63.8894 104.181 64.4592 104.611 64.7011 104.22C65.1499 103.499 65.4582 102.713 65.7664 101.928C65.9342 101.497 65.2669 101.236 65.103 101.666Z" fill="#C1599A"/>
<path d="M67.3295 104.726C67.3569 105.526 66.7813 106.4 66.4916 107.122C66.3193 107.549 66.9849 107.807 67.1572 107.38C67.5096 106.505 68.0695 105.587 68.0342 104.615C68.0186 104.157 67.3099 104.271 67.3295 104.726" fill="#C1599A"/>
<path d="M71.9111 108.987C71.4615 109.761 71.1223 110.58 70.795 111.413C70.6254 111.84 71.2919 112.101 71.4615 111.674C71.7612 110.902 72.0688 110.133 72.4829 109.414C72.7117 109.02 72.1438 108.59 71.9111 108.987Z" fill="#C1599A"/>
<path d="M75.4139 111.79C75.3504 112.709 75.0253 113.578 74.827 114.475C74.724 114.921 75.4376 114.994 75.5368 114.547C75.739 113.65 76.0602 112.787 76.1276 111.865C76.1593 111.407 75.4495 111.329 75.4139 111.79" fill="#C1599A"/>
<path d="M78.8783 113.914C78.7467 114.979 78.2524 115.954 77.9694 116.984C77.8498 117.422 78.5155 117.689 78.6351 117.244C78.9301 116.151 79.4483 115.121 79.5878 113.986C79.6476 113.531 78.9381 113.456 78.8783 113.914" fill="#C1599A"/>
<path d="M81.141 115.158C80.725 116.215 80.3169 117.278 80.1849 118.414C80.1328 118.869 80.841 118.946 80.897 118.489C81.021 117.415 81.4131 116.415 81.8051 115.416C81.9732 114.988 81.3051 114.727 81.141 115.158Z" fill="#C1599A"/>
<path d="M82.3157 116.075C81.9469 117.047 81.7065 118.054 81.466 119.065C81.3618 119.511 82.0712 119.581 82.1754 119.14C82.3998 118.191 82.6363 117.249 82.981 116.336C83.1453 115.906 82.48 115.645 82.3157 116.075Z" fill="#C1599A"/>
<path d="M115.394 91.1385C115.141 91.8101 114.998 92.5154 114.745 93.1871C114.585 93.6174 115.251 93.878 115.411 93.4452C115.659 92.7731 115.806 92.0712 116.059 91.3992C116.219 90.9693 115.554 90.7082 115.394 91.1385Z" fill="#C1599A"/>
<path d="M116.549 92.2428C116.574 92.748 116.406 93.2668 116.372 93.7695C116.342 94.2275 117.055 94.3051 117.085 93.8445C117.123 93.2727 117.287 92.7063 117.253 92.1319C117.228 91.6739 116.524 91.7877 116.549 92.2428" fill="#C1599A"/>
<path d="M118.142 93.1337C117.985 93.5332 117.829 93.9302 117.673 94.3301C117.508 94.7601 118.171 95.0214 118.341 94.591C118.493 94.191 118.653 93.7915 118.81 93.3945C118.975 92.9642 118.311 92.7033 118.142 93.1337Z" fill="#C1599A"/>
<path d="M121.657 95.1245C121.487 95.56 121.334 95.996 121.3 96.4651C121.267 96.9232 121.976 97.0005 122.01 96.5399C122.04 96.132 122.176 95.7627 122.32 95.3854C122.49 94.9549 121.823 94.6941 121.657 95.1245Z" fill="#C1599A"/>
<path d="M123.821 96.7787C123.86 97.3008 123.804 97.8366 123.779 98.3582C123.757 98.8164 124.465 98.894 124.486 98.4332C124.52 97.8476 124.572 97.2535 124.529 96.6679C124.495 96.2098 123.787 96.3235 123.821 96.7787" fill="#C1599A"/>
<path d="M125.873 98.4606C125.719 98.8578 125.595 99.2464 125.565 99.6709C125.535 100.129 126.245 100.207 126.275 99.7457C126.301 99.3793 126.403 99.06 126.536 98.7214C126.707 98.2943 126.04 98.0331 125.873 98.4606Z" fill="#C1599A"/>
<path d="M128.128 101.609C128.184 101.772 128.025 102.186 127.883 102.37C127.6 102.733 128.175 103.16 128.454 102.797C128.754 102.411 128.951 101.803 128.784 101.323C128.625 100.89 127.974 101.178 128.128 101.609Z" fill="#C1599A"/>
<path d="M112.701 89.7789C112.458 90.4005 112.219 91.0196 111.972 91.6412C111.808 92.0715 112.471 92.3294 112.638 91.902C112.882 91.2804 113.125 90.6614 113.368 90.0398C113.536 89.6094 112.869 89.3515 112.701 89.7789Z" fill="#C1599A"/>
<path d="M109.94 89.4873C109.91 89.443 109.919 89.4928 109.906 89.5345C109.877 89.6457 109.818 89.751 109.768 89.8538C109.651 90.084 109.501 90.3008 109.363 90.5173C109.116 90.9029 109.685 91.3304 109.931 90.9447C110.245 90.4588 110.921 89.6373 110.499 89.0461C110.232 88.6684 109.672 89.1155 109.94 89.4873" fill="#C1599A"/>
<path d="M108.39 88.2966C107.969 88.9126 107.732 89.604 107.59 90.3338C107.502 90.7864 108.215 90.8585 108.303 90.4088C108.419 89.8095 108.615 89.2289 108.961 88.7238C109.22 88.3437 108.649 87.9135 108.39 88.2966" fill="#C1599A"/>
<path d="M105.742 87.9744C105.588 88.3879 105.588 88.8013 105.567 89.2343C105.547 89.6923 106.256 89.7699 106.277 89.3095C106.294 88.9458 106.277 88.5792 106.406 88.2322C106.564 87.8021 105.899 87.541 105.742 87.9744" fill="#C1599A"/>
<path d="M103.592 87.591C103.406 88.0657 103.22 88.554 103.183 89.0651C103.145 89.5233 103.857 89.6006 103.89 89.14C103.923 88.6902 104.093 88.2685 104.254 87.8522C104.424 87.4218 103.758 87.1635 103.592 87.591Z" fill="#C1599A"/>
<path d="M69.6714 111.776L70.1859 116.787C70.1859 116.787 71.5593 116.614 72.7347 116.273C73.9102 115.929 74.9827 115.651 74.9827 115.651C74.9827 115.651 73.0988 114.624 72.0302 113.853C70.9577 113.081 69.6714 111.776 69.6714 111.776" fill="#703459"/>
</g>
<defs>
<filter id="filter0_d_229_2140" x="21" y="67" width="118" height="68.2637" filterUnits="userSpaceOnUse" color-interpolation-filters="sRGB">
<feFlood flood-opacity="0" result="BackgroundImageFix"/>
<feColorMatrix in="SourceAlpha" type="matrix" values="0 0 0 0 0 0 0 0 0 0 0 0 0 0 0 0 0 0 127 0" result="hardAlpha"/>
<feOffset dy="4"/>
<feGaussianBlur stdDeviation="2"/>
<feComposite in2="hardAlpha" operator="out"/>
<feColorMatrix type="matrix" values="0 0 0 0 0 0 0 0 0 0 0 0 0 0 0 0 0 0 0.25 0"/>
<feBlend mode="normal" in2="BackgroundImageFix" result="effect1_dropShadow_229_2140"/>
<feBlend mode="normal" in="SourceGraphic" in2="effect1_dropShadow_229_2140" result="shape"/>
</filter>
</defs>
</svg>
