<svg width="165" height="165" viewBox="0 0 165 165" fill="none" xmlns="http://www.w3.org/2000/svg">
<path d="M165 155C165 160.523 160.523 165 155 165L10 165C4.47716 165 3.70928e-06 160.523 3.87334e-06 155L8.18078e-06 9.99999C8.34485e-06 4.47715 4.47716 -2.94834e-06 10 -1.94459e-06L155 2.44086e-05C160.523 2.54123e-05 165 4.47718 165 10L165 155Z" fill="white"/>
<path d="M155 164.5L10 164.5C4.7533 164.5 0.5 160.247 0.5 155L0.500005 10C0.500005 4.7533 4.7533 0.500001 10 0.500002L155 0.500029C160.247 0.50003 164.5 4.75333 164.5 10L164.5 155C164.5 160.247 160.247 164.5 155 164.5Z" stroke="#8F9BBA" stroke-opacity="0.2"/>
<path d="M69.942 19.7C69.942 20.612 69.792 21.464 69.492 22.256C69.192 23.036 68.766 23.72 68.214 24.308C67.674 24.896 67.032 25.358 66.288 25.694C65.544 26.018 64.728 26.18 63.84 26.18C62.964 26.18 62.154 26.018 61.41 25.694C60.666 25.358 60.018 24.896 59.466 24.308C58.926 23.72 58.506 23.036 58.206 22.256C57.918 21.464 57.774 20.612 57.774 19.7C57.774 18.788 57.918 17.942 58.206 17.162C58.506 16.37 58.926 15.68 59.466 15.092C60.018 14.504 60.666 14.048 61.41 13.724C62.154 13.388 62.964 13.22 63.84 13.22C64.728 13.22 65.544 13.388 66.288 13.724C67.032 14.048 67.674 14.504 68.214 15.092C68.766 15.68 69.192 16.37 69.492 17.162C69.792 17.942 69.942 18.788 69.942 19.7ZM67.998 19.7C67.998 18.812 67.818 18.014 67.458 17.306C67.11 16.598 66.624 16.04 66 15.632C65.376 15.224 64.656 15.02 63.84 15.02C63.036 15.02 62.322 15.224 61.698 15.632C61.074 16.04 60.588 16.598 60.24 17.306C59.892 18.002 59.718 18.8 59.718 19.7C59.718 20.588 59.892 21.386 60.24 22.094C60.588 22.802 61.074 23.36 61.698 23.768C62.322 24.176 63.036 24.38 63.84 24.38C64.656 24.38 65.376 24.176 66 23.768C66.624 23.36 67.11 22.802 67.458 22.094C67.818 21.386 67.998 20.588 67.998 19.7ZM73.5374 25.082C73.5374 25.346 73.4474 25.568 73.2674 25.748C73.0994 25.916 72.8894 26 72.6374 26C72.3854 26 72.1694 25.916 71.9894 25.748C71.8214 25.568 71.7374 25.346 71.7374 25.082V13.598C71.7374 13.334 71.8274 13.118 72.0074 12.95C72.1874 12.77 72.4034 12.68 72.6554 12.68C72.9194 12.68 73.1294 12.77 73.2854 12.95C73.4534 13.118 73.5374 13.334 73.5374 13.598V25.082ZM77.5484 25.082C77.5484 25.346 77.4644 25.568 77.2964 25.748C77.1284 25.916 76.9124 26 76.6484 26C76.3964 26 76.1804 25.916 76.0004 25.748C75.8324 25.568 75.7484 25.346 75.7484 25.082V17.378C75.7484 17.114 75.8324 16.898 76.0004 16.73C76.1804 16.55 76.3964 16.46 76.6484 16.46C76.9124 16.46 77.1284 16.55 77.2964 16.73C77.4644 16.898 77.5484 17.114 77.5484 17.378V25.082ZM76.6304 15.272C76.2824 15.272 76.0304 15.212 75.8744 15.092C75.7184 14.96 75.6404 14.744 75.6404 14.444V14.156C75.6404 13.856 75.7244 13.646 75.8924 13.526C76.0604 13.406 76.3124 13.346 76.6484 13.346C77.0084 13.346 77.2664 13.412 77.4224 13.544C77.5784 13.664 77.6564 13.868 77.6564 14.156V14.444C77.6564 14.756 77.5724 14.972 77.4044 15.092C77.2484 15.212 76.9904 15.272 76.6304 15.272ZM79.8257 16.442C80.0057 16.442 80.1737 16.49 80.3297 16.586C80.4977 16.682 80.6177 16.826 80.6897 17.018L83.5157 23.552L83.1737 23.714L86.0357 17.036C86.2037 16.64 86.4737 16.448 86.8457 16.46C87.0857 16.46 87.2837 16.538 87.4397 16.694C87.6077 16.838 87.6917 17.03 87.6917 17.27C87.6917 17.342 87.6797 17.42 87.6557 17.504C87.6317 17.576 87.6017 17.648 87.5657 17.72L84.1457 25.424C83.9897 25.784 83.7317 25.976 83.3717 26C83.1917 26.024 83.0117 25.988 82.8317 25.892C82.6637 25.784 82.5317 25.628 82.4357 25.424L79.0337 17.72C79.0097 17.672 78.9857 17.612 78.9617 17.54C78.9377 17.456 78.9257 17.36 78.9257 17.252C78.9257 17.072 79.0037 16.892 79.1597 16.712C79.3277 16.532 79.5497 16.442 79.8257 16.442ZM93.4859 26.18C92.4899 26.18 91.6259 25.976 90.8939 25.568C90.1619 25.148 89.5919 24.578 89.1839 23.858C88.7879 23.126 88.5899 22.292 88.5899 21.356C88.5899 20.3 88.7999 19.4 89.2199 18.656C89.6519 17.9 90.2099 17.324 90.8939 16.928C91.5779 16.52 92.3039 16.316 93.0719 16.316C93.6599 16.316 94.2179 16.436 94.7459 16.676C95.2739 16.904 95.7419 17.228 96.1499 17.648C96.5699 18.056 96.8999 18.542 97.1399 19.106C97.3799 19.658 97.5059 20.264 97.5179 20.924C97.5059 21.164 97.4099 21.362 97.2299 21.518C97.0499 21.674 96.8399 21.752 96.5999 21.752H89.5979L89.1659 20.222H95.9339L95.5919 20.546V20.096C95.5679 19.676 95.4299 19.31 95.1779 18.998C94.9259 18.674 94.6139 18.428 94.2419 18.26C93.8699 18.08 93.4799 17.99 93.0719 17.99C92.7119 17.99 92.3639 18.05 92.0279 18.17C91.7039 18.278 91.4099 18.458 91.1459 18.71C90.8939 18.962 90.6899 19.298 90.5339 19.718C90.3899 20.126 90.3179 20.636 90.3179 21.248C90.3179 21.908 90.4559 22.484 90.7319 22.976C91.0079 23.468 91.3799 23.852 91.8479 24.128C92.3159 24.392 92.8319 24.524 93.3959 24.524C93.8399 24.524 94.2059 24.482 94.4939 24.398C94.7819 24.302 95.0219 24.188 95.2139 24.056C95.4059 23.924 95.5739 23.798 95.7179 23.678C95.8979 23.57 96.0779 23.516 96.2579 23.516C96.4739 23.516 96.6539 23.594 96.7979 23.75C96.9419 23.894 97.0139 24.068 97.0139 24.272C97.0139 24.536 96.8819 24.776 96.6179 24.992C96.2939 25.304 95.8439 25.58 95.2679 25.82C94.7039 26.06 94.1099 26.18 93.4859 26.18ZM98.6344 24.524C98.5264 24.356 98.4784 24.164 98.4904 23.948C98.5024 23.72 98.6284 23.528 98.8684 23.372C99.0364 23.264 99.2104 23.222 99.3904 23.246C99.5824 23.258 99.7624 23.348 99.9304 23.516C100.266 23.888 100.638 24.182 101.046 24.398C101.466 24.614 101.97 24.722 102.558 24.722C102.798 24.71 103.044 24.674 103.296 24.614C103.548 24.542 103.764 24.422 103.944 24.254C104.124 24.074 104.214 23.816 104.214 23.48C104.214 23.18 104.118 22.94 103.926 22.76C103.734 22.58 103.482 22.436 103.17 22.328C102.858 22.208 102.522 22.1 102.162 22.004C101.778 21.896 101.388 21.776 100.992 21.644C100.608 21.512 100.26 21.344 99.9484 21.14C99.6364 20.924 99.3784 20.648 99.1744 20.312C98.9824 19.976 98.8864 19.562 98.8864 19.07C98.8864 18.506 99.0424 18.02 99.3544 17.612C99.6784 17.204 100.092 16.886 100.596 16.658C101.112 16.43 101.67 16.316 102.27 16.316C102.618 16.316 102.984 16.364 103.368 16.46C103.752 16.544 104.124 16.682 104.484 16.874C104.844 17.066 105.156 17.318 105.42 17.63C105.54 17.786 105.606 17.972 105.618 18.188C105.642 18.404 105.546 18.596 105.33 18.764C105.186 18.884 105.012 18.938 104.808 18.926C104.604 18.914 104.436 18.848 104.304 18.728C104.076 18.44 103.782 18.218 103.422 18.062C103.062 17.894 102.654 17.81 102.198 17.81C101.97 17.81 101.73 17.846 101.478 17.918C101.238 17.978 101.034 18.092 100.866 18.26C100.698 18.428 100.614 18.674 100.614 18.998C100.614 19.298 100.71 19.538 100.902 19.718C101.106 19.898 101.37 20.048 101.694 20.168C102.018 20.288 102.372 20.396 102.756 20.492C103.128 20.588 103.494 20.702 103.854 20.834C104.226 20.966 104.556 21.14 104.844 21.356C105.144 21.56 105.384 21.83 105.564 22.166C105.756 22.49 105.852 22.904 105.852 23.408C105.852 23.996 105.678 24.5 105.33 24.92C104.994 25.328 104.562 25.64 104.034 25.856C103.518 26.072 102.972 26.18 102.396 26.18C101.712 26.18 101.028 26.06 100.344 25.82C99.6724 25.568 99.1024 25.136 98.6344 24.524Z" fill="#6C7693"/>
<rect x="10" y="39" width="145" height="118" rx="10" fill="#FFB68C" fill-opacity="0.5"/>
<g filter="url(#filter0_d_228_1283)">
<path d="M83.8099 96.6208C83.8099 115.741 71.9892 131.242 57.4049 131.242C42.823 131.242 31 115.741 31 96.6208C31 77.5005 42.823 61.9999 57.4049 61.9999C71.9892 61.9999 83.8099 77.5005 83.8099 96.6208Z" fill="#555468"/>
<path d="M57.405 120.599C48.8593 120.599 41.6401 109.619 41.6401 96.6208C41.6401 83.6222 48.8593 72.6373 57.405 72.6373C65.9482 72.6373 73.1674 83.6222 73.1674 96.6208C73.1674 109.619 65.9482 120.599 57.405 120.599Z" fill="#444351"/>
<path d="M95.1589 138.381L95.1589 138.381C111.529 144.716 128.873 138.836 134.031 125.507C139.19 112.176 130.316 96.1538 113.951 89.8212C97.5812 83.4885 80.2367 89.3661 75.0784 102.695C69.9202 116.026 78.7941 132.048 95.1589 138.381Z" fill="#555468" stroke="#444351"/>
<path d="M97.9205 131.242C88.232 127.492 83.0845 116.474 86.6765 107.184C90.2735 97.8928 101.497 93.2083 111.188 96.9564C120.877 100.709 126.027 111.727 122.433 121.018C118.838 130.309 107.612 134.993 97.9205 131.242Z" fill="#444351"/>
</g>
<defs>
<filter id="filter0_d_228_1283" x="27" y="62" width="113" height="87.4324" filterUnits="userSpaceOnUse" color-interpolation-filters="sRGB">
<feFlood flood-opacity="0" result="BackgroundImageFix"/>
<feColorMatrix in="SourceAlpha" type="matrix" values="0 0 0 0 0 0 0 0 0 0 0 0 0 0 0 0 0 0 127 0" result="hardAlpha"/>
<feOffset dy="4"/>
<feGaussianBlur stdDeviation="2"/>
<feComposite in2="hardAlpha" operator="out"/>
<feColorMatrix type="matrix" values="0 0 0 0 0 0 0 0 0 0 0 0 0 0 0 0 0 0 0.25 0"/>
<feBlend mode="normal" in2="BackgroundImageFix" result="effect1_dropShadow_228_1283"/>
<feBlend mode="normal" in="SourceGraphic" in2="effect1_dropShadow_228_1283" result="shape"/>
</filter>
</defs>
</svg>
