<svg width="165" height="165" viewBox="0 0 165 165" fill="none" xmlns="http://www.w3.org/2000/svg">
<path d="M165 155C165 160.523 160.523 165 155 165L10 165C4.47716 165 3.70928e-06 160.523 3.87334e-06 155L8.18078e-06 9.99999C8.34485e-06 4.47715 4.47716 -2.94834e-06 10 -1.94459e-06L155 2.44086e-05C160.523 2.54123e-05 165 4.47718 165 10L165 155Z" fill="white"/>
<path d="M155 164.5L10 164.5C4.7533 164.5 0.5 160.247 0.5 155L0.500005 10C0.500005 4.7533 4.7533 0.500001 10 0.500002L155 0.500029C160.247 0.50003 164.5 4.75333 164.5 10L164.5 155C164.5 160.247 160.247 164.5 155 164.5Z" stroke="#8F9BBA" stroke-opacity="0.2"/>
<path d="M49.534 13.4C50.17 13.4 50.758 13.574 51.298 13.922C51.838 14.258 52.27 14.72 52.594 15.308C52.918 15.896 53.08 16.556 53.08 17.288C53.08 18.02 52.918 18.686 52.594 19.286C52.27 19.874 51.838 20.348 51.298 20.708C50.758 21.056 50.17 21.23 49.534 21.23H46.06L46.204 20.942V25.082C46.204 25.346 46.12 25.568 45.952 25.748C45.796 25.916 45.586 26 45.322 26C45.07 26 44.86 25.916 44.692 25.748C44.536 25.568 44.458 25.346 44.458 25.082V14.318C44.458 14.054 44.548 13.838 44.728 13.67C44.908 13.49 45.124 13.4 45.376 13.4H49.534ZM49.534 19.502C49.846 19.502 50.128 19.4 50.38 19.196C50.644 18.992 50.854 18.722 51.01 18.386C51.178 18.05 51.262 17.684 51.262 17.288C51.262 16.892 51.178 16.532 51.01 16.208C50.854 15.884 50.644 15.626 50.38 15.434C50.128 15.23 49.846 15.128 49.534 15.128H46.024L46.204 14.858V19.736L46.042 19.502H49.534ZM58.9448 26.18C57.9488 26.18 57.0848 25.976 56.3528 25.568C55.6208 25.148 55.0508 24.578 54.6428 23.858C54.2468 23.126 54.0488 22.292 54.0488 21.356C54.0488 20.3 54.2588 19.4 54.6788 18.656C55.1108 17.9 55.6688 17.324 56.3528 16.928C57.0368 16.52 57.7628 16.316 58.5308 16.316C59.1188 16.316 59.6768 16.436 60.2048 16.676C60.7328 16.904 61.2008 17.228 61.6088 17.648C62.0288 18.056 62.3588 18.542 62.5988 19.106C62.8388 19.658 62.9648 20.264 62.9768 20.924C62.9648 21.164 62.8688 21.362 62.6888 21.518C62.5088 21.674 62.2988 21.752 62.0588 21.752H55.0568L54.6248 20.222H61.3928L61.0508 20.546V20.096C61.0268 19.676 60.8888 19.31 60.6368 18.998C60.3848 18.674 60.0728 18.428 59.7008 18.26C59.3288 18.08 58.9388 17.99 58.5308 17.99C58.1708 17.99 57.8228 18.05 57.4868 18.17C57.1628 18.278 56.8688 18.458 56.6048 18.71C56.3528 18.962 56.1488 19.298 55.9928 19.718C55.8488 20.126 55.7768 20.636 55.7768 21.248C55.7768 21.908 55.9148 22.484 56.1908 22.976C56.4668 23.468 56.8388 23.852 57.3068 24.128C57.7748 24.392 58.2908 24.524 58.8548 24.524C59.2988 24.524 59.6648 24.482 59.9528 24.398C60.2408 24.302 60.4808 24.188 60.6728 24.056C60.8648 23.924 61.0328 23.798 61.1768 23.678C61.3568 23.57 61.5368 23.516 61.7168 23.516C61.9328 23.516 62.1128 23.594 62.2568 23.75C62.4008 23.894 62.4728 24.068 62.4728 24.272C62.4728 24.536 62.3408 24.776 62.0768 24.992C61.7528 25.304 61.3028 25.58 60.7268 25.82C60.1628 26.06 59.5688 26.18 58.9448 26.18ZM69.4213 16.37C70.2613 16.37 71.0053 16.58 71.6533 17C72.3133 17.42 72.8353 17.996 73.2193 18.728C73.6033 19.448 73.7953 20.288 73.7953 21.248C73.7953 22.208 73.6033 23.06 73.2193 23.804C72.8353 24.536 72.3193 25.112 71.6713 25.532C71.0233 25.952 70.2913 26.162 69.4753 26.162C69.0193 26.162 68.5873 26.09 68.1793 25.946C67.7713 25.802 67.4113 25.616 67.0993 25.388C66.7873 25.148 66.5293 24.896 66.3253 24.632C66.1333 24.368 66.0133 24.122 65.9653 23.894L66.4513 23.66V28.682C66.4513 28.946 66.3613 29.162 66.1813 29.33C66.0133 29.51 65.8033 29.6 65.5513 29.6C65.2873 29.6 65.0713 29.51 64.9033 29.33C64.7353 29.162 64.6513 28.946 64.6513 28.682V17.414C64.6513 17.162 64.7353 16.946 64.9033 16.766C65.0713 16.586 65.2873 16.496 65.5513 16.496C65.8033 16.496 66.0133 16.586 66.1813 16.766C66.3613 16.946 66.4513 17.162 66.4513 17.414V18.656L66.1633 18.494C66.1993 18.266 66.3133 18.032 66.5053 17.792C66.6973 17.54 66.9373 17.306 67.2253 17.09C67.5253 16.874 67.8613 16.7 68.2333 16.568C68.6173 16.436 69.0133 16.37 69.4213 16.37ZM69.2233 18.026C68.6473 18.026 68.1433 18.17 67.7113 18.458C67.2913 18.734 66.9613 19.112 66.7213 19.592C66.4813 20.072 66.3613 20.624 66.3613 21.248C66.3613 21.86 66.4813 22.418 66.7213 22.922C66.9613 23.414 67.2913 23.804 67.7113 24.092C68.1433 24.368 68.6473 24.506 69.2233 24.506C69.7873 24.506 70.2793 24.368 70.6993 24.092C71.1193 23.804 71.4493 23.414 71.6893 22.922C71.9413 22.418 72.0673 21.86 72.0673 21.248C72.0673 20.636 71.9413 20.09 71.6893 19.61C71.4493 19.118 71.1193 18.734 70.6993 18.458C70.2793 18.17 69.7873 18.026 69.2233 18.026ZM80.241 16.37C81.081 16.37 81.825 16.58 82.473 17C83.133 17.42 83.655 17.996 84.039 18.728C84.423 19.448 84.615 20.288 84.615 21.248C84.615 22.208 84.423 23.06 84.039 23.804C83.655 24.536 83.139 25.112 82.491 25.532C81.843 25.952 81.111 26.162 80.295 26.162C79.839 26.162 79.407 26.09 78.999 25.946C78.591 25.802 78.231 25.616 77.919 25.388C77.607 25.148 77.349 24.896 77.145 24.632C76.953 24.368 76.833 24.122 76.785 23.894L77.271 23.66V28.682C77.271 28.946 77.181 29.162 77.001 29.33C76.833 29.51 76.623 29.6 76.371 29.6C76.107 29.6 75.891 29.51 75.723 29.33C75.555 29.162 75.471 28.946 75.471 28.682V17.414C75.471 17.162 75.555 16.946 75.723 16.766C75.891 16.586 76.107 16.496 76.371 16.496C76.623 16.496 76.833 16.586 77.001 16.766C77.181 16.946 77.271 17.162 77.271 17.414V18.656L76.983 18.494C77.019 18.266 77.133 18.032 77.325 17.792C77.517 17.54 77.757 17.306 78.045 17.09C78.345 16.874 78.681 16.7 79.053 16.568C79.437 16.436 79.833 16.37 80.241 16.37ZM80.043 18.026C79.467 18.026 78.963 18.17 78.531 18.458C78.111 18.734 77.781 19.112 77.541 19.592C77.301 20.072 77.181 20.624 77.181 21.248C77.181 21.86 77.301 22.418 77.541 22.922C77.781 23.414 78.111 23.804 78.531 24.092C78.963 24.368 79.467 24.506 80.043 24.506C80.607 24.506 81.099 24.368 81.519 24.092C81.939 23.804 82.269 23.414 82.509 22.922C82.761 22.418 82.887 21.86 82.887 21.248C82.887 20.636 82.761 20.09 82.509 19.61C82.269 19.118 81.939 18.734 81.519 18.458C81.099 18.17 80.607 18.026 80.043 18.026ZM90.7007 26.18C89.7047 26.18 88.8407 25.976 88.1087 25.568C87.3767 25.148 86.8067 24.578 86.3987 23.858C86.0027 23.126 85.8047 22.292 85.8047 21.356C85.8047 20.3 86.0147 19.4 86.4347 18.656C86.8667 17.9 87.4247 17.324 88.1087 16.928C88.7927 16.52 89.5187 16.316 90.2867 16.316C90.8747 16.316 91.4327 16.436 91.9607 16.676C92.4887 16.904 92.9567 17.228 93.3647 17.648C93.7847 18.056 94.1147 18.542 94.3547 19.106C94.5947 19.658 94.7207 20.264 94.7327 20.924C94.7207 21.164 94.6247 21.362 94.4447 21.518C94.2647 21.674 94.0547 21.752 93.8147 21.752H86.8127L86.3807 20.222H93.1487L92.8067 20.546V20.096C92.7827 19.676 92.6447 19.31 92.3927 18.998C92.1407 18.674 91.8287 18.428 91.4567 18.26C91.0847 18.08 90.6947 17.99 90.2867 17.99C89.9267 17.99 89.5787 18.05 89.2427 18.17C88.9187 18.278 88.6247 18.458 88.3607 18.71C88.1087 18.962 87.9047 19.298 87.7487 19.718C87.6047 20.126 87.5327 20.636 87.5327 21.248C87.5327 21.908 87.6707 22.484 87.9467 22.976C88.2227 23.468 88.5947 23.852 89.0627 24.128C89.5307 24.392 90.0467 24.524 90.6107 24.524C91.0547 24.524 91.4207 24.482 91.7087 24.398C91.9967 24.302 92.2367 24.188 92.4287 24.056C92.6207 23.924 92.7887 23.798 92.9327 23.678C93.1127 23.57 93.2927 23.516 93.4727 23.516C93.6887 23.516 93.8687 23.594 94.0127 23.75C94.1567 23.894 94.2287 24.068 94.2287 24.272C94.2287 24.536 94.0967 24.776 93.8327 24.992C93.5087 25.304 93.0587 25.58 92.4827 25.82C91.9187 26.06 91.3247 26.18 90.7007 26.18ZM97.3073 26C97.0433 26 96.8273 25.916 96.6593 25.748C96.4913 25.568 96.4073 25.346 96.4073 25.082V17.45C96.4073 17.186 96.4913 16.97 96.6593 16.802C96.8273 16.622 97.0433 16.532 97.3073 16.532C97.5593 16.532 97.7693 16.622 97.9373 16.802C98.1173 16.97 98.2073 17.186 98.2073 17.45V19.466L98.0273 18.692C98.1233 18.356 98.2673 18.044 98.4593 17.756C98.6633 17.468 98.9033 17.216 99.1793 17C99.4553 16.784 99.7613 16.616 100.097 16.496C100.445 16.376 100.805 16.316 101.177 16.316C101.489 16.316 101.759 16.4 101.987 16.568C102.215 16.736 102.329 16.946 102.329 17.198C102.329 17.522 102.245 17.762 102.077 17.918C101.909 18.062 101.723 18.134 101.519 18.134C101.339 18.134 101.165 18.098 100.997 18.026C100.829 17.942 100.631 17.9 100.403 17.9C100.151 17.9 99.8933 17.966 99.6293 18.098C99.3653 18.23 99.1253 18.428 98.9093 18.692C98.6933 18.944 98.5193 19.244 98.3873 19.592C98.2673 19.94 98.2073 20.33 98.2073 20.762V25.082C98.2073 25.346 98.1173 25.568 97.9373 25.748C97.7693 25.916 97.5593 26 97.3073 26ZM112.238 21.266C112.238 22.226 112.028 23.078 111.608 23.822C111.188 24.554 110.618 25.13 109.898 25.55C109.178 25.97 108.368 26.18 107.468 26.18C106.568 26.18 105.758 25.97 105.038 25.55C104.318 25.13 103.742 24.554 103.31 23.822C102.89 23.078 102.68 22.226 102.68 21.266C102.68 20.294 102.89 19.442 103.31 18.71C103.742 17.966 104.318 17.384 105.038 16.964C105.758 16.532 106.568 16.316 107.468 16.316C108.368 16.316 109.178 16.532 109.898 16.964C110.618 17.384 111.188 17.966 111.608 18.71C112.028 19.442 112.238 20.294 112.238 21.266ZM110.438 21.266C110.438 20.606 110.306 20.036 110.042 19.556C109.778 19.064 109.418 18.68 108.962 18.404C108.518 18.116 108.02 17.972 107.468 17.972C106.916 17.972 106.412 18.116 105.956 18.404C105.5 18.68 105.14 19.064 104.876 19.556C104.612 20.036 104.48 20.606 104.48 21.266C104.48 21.902 104.612 22.466 104.876 22.958C105.14 23.45 105.5 23.834 105.956 24.11C106.412 24.386 106.916 24.524 107.468 24.524C108.02 24.524 108.518 24.386 108.962 24.11C109.418 23.834 109.778 23.45 110.042 22.958C110.306 22.466 110.438 21.902 110.438 21.266ZM118.794 16.316C119.646 16.316 120.306 16.496 120.774 16.856C121.242 17.204 121.566 17.678 121.746 18.278C121.938 18.866 122.034 19.526 122.034 20.258V25.082C122.034 25.346 121.944 25.568 121.764 25.748C121.596 25.916 121.386 26 121.134 26C120.87 26 120.654 25.916 120.486 25.748C120.318 25.568 120.234 25.346 120.234 25.082V20.276C120.234 19.844 120.174 19.46 120.054 19.124C119.934 18.776 119.724 18.5 119.424 18.296C119.136 18.08 118.728 17.972 118.2 17.972C117.708 17.972 117.276 18.08 116.904 18.296C116.532 18.5 116.238 18.776 116.022 19.124C115.818 19.46 115.716 19.844 115.716 20.276V25.082C115.716 25.346 115.626 25.568 115.446 25.748C115.278 25.916 115.068 26 114.816 26C114.552 26 114.336 25.916 114.168 25.748C114 25.568 113.916 25.346 113.916 25.082V17.45C113.916 17.186 114 16.97 114.168 16.802C114.336 16.622 114.552 16.532 114.816 16.532C115.068 16.532 115.278 16.622 115.446 16.802C115.626 16.97 115.716 17.186 115.716 17.45V18.458L115.392 18.638C115.476 18.374 115.62 18.11 115.824 17.846C116.04 17.57 116.298 17.318 116.598 17.09C116.898 16.85 117.234 16.664 117.606 16.532C117.978 16.388 118.374 16.316 118.794 16.316ZM125.865 25.082C125.865 25.346 125.781 25.568 125.613 25.748C125.445 25.916 125.229 26 124.965 26C124.713 26 124.497 25.916 124.317 25.748C124.149 25.568 124.065 25.346 124.065 25.082V17.378C124.065 17.114 124.149 16.898 124.317 16.73C124.497 16.55 124.713 16.46 124.965 16.46C125.229 16.46 125.445 16.55 125.613 16.73C125.781 16.898 125.865 17.114 125.865 17.378V25.082ZM124.947 15.272C124.599 15.272 124.347 15.212 124.191 15.092C124.035 14.96 123.957 14.744 123.957 14.444V14.156C123.957 13.856 124.041 13.646 124.209 13.526C124.377 13.406 124.629 13.346 124.965 13.346C125.325 13.346 125.583 13.412 125.739 13.544C125.895 13.664 125.973 13.868 125.973 14.156V14.444C125.973 14.756 125.889 14.972 125.721 15.092C125.565 15.212 125.307 15.272 124.947 15.272Z" fill="#6C7693"/>
<rect x="10" y="40" width="145" height="118" rx="10" fill="#FFB68C" fill-opacity="0.5"/>
<g filter="url(#filter0_d_228_1350)">
<path d="M146.048 99.5658C141.107 94.0185 120.722 85.7309 97.4969 89.1089C83.7272 91.1104 56.6072 97.2151 58.1851 113.397C60.0371 132.383 89.0216 139.129 109.996 136.429C130.974 133.726 164.66 120.462 146.048 99.5658Z" fill="#7A4C41"/>
<path d="M141.562 94.7509C135.713 90.1706 120.701 81.7624 97.4765 85.1404C83.7026 87.1419 57.989 94.4182 59.6065 110.6C61.2241 126.779 88.997 135.163 109.975 132.46C130.952 129.761 167.326 114.925 141.562 94.7509" fill="#C65236"/>
<path d="M101.092 115.435C98.6469 115.345 96.1072 115.12 93.5186 114.734C94.2109 114.307 95.1402 114.009 95.9228 113.985C96.0018 113.985 96.0808 113.981 96.1636 113.981C98.0599 113.981 100.088 114.566 101.092 115.435Z" fill="#E88F78"/>
<path d="M94.013 107.135C92.9032 107.135 91.8536 106.974 91.1162 106.614C93.2907 105.06 95.4013 103.397 97.3651 101.661C98.9979 101.829 100.307 102.407 100.57 103.364C101.026 105.023 99.6487 106.184 96.7406 106.836C95.8828 107.028 94.9272 107.135 94.013 107.135" fill="#E88F78"/>
<path d="M113.649 99.2336C111.277 99.2336 108.318 98.29 108.983 96.6179C109.33 95.728 111.08 94.8716 112.328 94.8214C112.436 94.8145 112.548 94.8145 112.656 94.8145C115 94.8145 117.403 95.8153 117.391 97.1482C117.372 98.5419 116.059 99.2236 113.687 99.2336C113.672 99.2336 113.664 99.2336 113.649 99.2336" fill="#E88F78"/>
<path d="M128.503 100.916C127.937 100.479 127.666 99.9353 127.906 99.3071C128.012 99.0149 128.271 98.7331 128.617 98.4811C128.606 98.5884 128.602 98.6961 128.594 98.807C128.551 99.5355 128.527 100.237 128.503 100.916" fill="#E88F78"/>
<path d="M118.529 113.676C116.339 113.162 114.497 112.077 115.053 110.593C115.459 109.512 117.618 108.525 119.182 108.511C119.209 108.511 119.237 108.511 119.26 108.511C121.645 108.511 124.175 109.351 125.18 110.536C124.93 110.758 124.656 110.976 124.359 111.194C123.166 112.081 121.153 112.954 118.529 113.676" fill="#E88F78"/>
<path d="M77.6974 120.459C74.7191 120.459 70.9108 119.287 71.6099 117.222C71.6426 117.131 71.6863 117.044 71.7373 116.953C73.1536 116.463 74.5262 115.936 75.8442 115.365C76.099 115.254 76.3576 115.144 76.6161 115.026C78.4219 115.12 80.2096 115.654 81.2618 116.44C80.7812 117.447 80.7339 118.649 81.0033 119.882C80.246 120.264 79.1392 120.456 77.7192 120.459C77.7119 120.459 77.7046 120.459 77.6974 120.459" fill="#E88F78"/>
<path d="M96.6807 68.8038C89.7986 66.0067 72.2226 63.673 50.8194 73.3033C38.1296 79.0153 13.7342 90.1134 20.2085 108.458C25.6201 123.79 56.4192 123.729 75.846 115.365C95.2729 107.003 126.997 81.1172 96.6807 68.8038" fill="#7A4C41"/>
<path d="M94.7607 67.1881C87.8758 64.3911 73.6212 63.273 49.7292 70.066C36.3425 73.8674 14.3116 89.8411 20.3207 104.952C26.3221 120.062 55.3279 120.489 74.755 112.127C94.1782 103.763 125.076 79.502 94.7607 67.1881Z" fill="#C65236"/>
<path d="M60.4261 103.545C59.2202 103.545 58.2882 103.196 58.1744 102.296C58.057 101.342 59.3554 99.8379 60.5826 99.2705C61.8312 98.696 63.2861 98.3737 64.5026 98.3737C65.6302 98.3737 66.5516 98.6491 66.9002 99.2602C67.6223 100.53 66.6689 101.695 64.2892 102.695C63.0975 103.196 61.6284 103.545 60.4261 103.545" fill="#E88F78"/>
<path d="M53.4282 94.3975C52.5655 94.3975 51.9035 94.0851 51.6676 93.3161C51.3331 92.2081 52.4458 90.1127 53.6817 89.1525C55.312 87.8831 57.4316 87.0437 58.9668 87.0437C59.7098 87.0437 60.3154 87.2384 60.664 87.675C61.7379 89.018 60.9316 90.6299 58.5126 92.376C56.9915 93.4774 54.9106 94.3975 53.4282 94.3975" fill="#E88F78"/>
<path d="M49.145 74.9688C49.5254 74.0922 50.5756 73.1051 51.5457 72.6986C52.6832 72.2185 53.9812 71.9634 55.1013 71.9634C55.6421 71.9634 56.1411 72.0238 56.5598 72.148C54.051 72.984 51.5701 73.9345 49.145 74.9688" fill="#E88F78"/>
<path d="M67.7399 79.4622C66.6103 79.4622 65.7469 79.0963 65.7217 78.1527C65.7145 77.9879 65.7469 77.807 65.8152 77.6152C66.3944 77.3972 66.9592 77.1788 67.5096 76.9641C69.4271 76.2118 71.3373 75.5031 73.2584 74.825C73.4383 74.9592 73.5714 75.1236 73.6541 75.3186C74.1901 76.6079 73.2584 77.753 71.0783 78.6999C70.0315 79.1531 68.7724 79.4622 67.7399 79.4622" fill="#E88F78"/>
<path d="M86.4415 74.5154C85.1897 74.5154 84.2128 74.1324 84.172 73.1485C84.1274 72.1716 85.4683 70.6839 86.6718 70.1498C87.8084 69.6461 89.101 69.3742 90.2005 69.3742C91.3817 69.3742 92.3475 69.69 92.6558 70.3749C93.2538 71.6946 92.262 72.8498 89.9368 73.7866C88.8485 74.2231 87.5372 74.5154 86.4415 74.5154" fill="#E88F78"/>
<path d="M79.542 90.2141C78.0442 90.2141 76.8777 89.7607 76.8188 88.5957C76.7636 87.4405 78.3607 85.6811 79.7922 85.0529C81.1391 84.4619 82.6699 84.1396 83.98 84.1396C85.3968 84.1396 86.5523 84.5157 86.9277 85.3282C87.6379 86.8929 86.464 88.2597 83.6893 89.3611C82.4013 89.8715 80.8484 90.2141 79.542 90.2141" fill="#E88F78"/>
<path d="M95.2935 87.9238C94.6176 87.9238 94.0815 87.6652 93.8021 87.0509C93.3263 85.9963 94.1608 83.7736 95.2671 82.662C96.8717 81.04 99.1409 79.8616 100.704 79.8616C101.233 79.8616 101.686 79.996 101.999 80.3015C103.238 81.4935 102.645 83.1959 100.474 85.2374C98.9748 86.648 96.7924 87.9238 95.2935 87.9238" fill="#E88F78"/>
<path d="M74.0836 107.034C72.9345 107.034 72.0589 106.651 71.902 105.687C71.7196 104.546 73.1059 102.619 74.4594 101.833C75.9953 100.94 77.8449 100.409 79.3042 100.409C80.3586 100.409 81.2049 100.688 81.5771 101.306C82.4599 102.78 81.4457 104.271 78.8153 105.674C77.3634 106.453 75.5137 107.034 74.0836 107.034" fill="#E88F78"/>
<path d="M49.3388 114.418C46.1489 114.418 42.9845 113.8 39.842 113.293C37.0745 112.843 34.3543 112.518 31.7871 111.309C27.9745 109.512 24.7846 105.18 23.969 101.07C23.0295 96.3288 26.2157 91.2752 29.6387 88.2193C34.977 83.4512 40.2425 78.985 46.8299 75.9899C47.5946 75.6407 48.3666 75.2981 49.1458 74.9692C49.0402 75.2074 48.9856 75.4393 49.0002 75.6476C49.0584 76.6414 50.0999 77.0241 51.4217 77.0241C52.536 77.0241 53.8542 76.7521 54.943 76.3359C57.3318 75.4324 58.3405 74.2978 57.7105 72.981C57.5248 72.5852 57.1096 72.3095 56.5598 72.1486C58.6281 71.4567 60.7183 70.842 62.8121 70.3184C64.6729 69.8552 66.5919 69.1768 68.4527 68.8746C69.4031 68.7165 70.867 68.8276 71.6717 68.4715L76.3728 67.9343C77.9168 68.1459 81.3543 68.5152 81.0776 70.8894C80.8919 72.5044 78.1826 73.166 76.9482 73.5724C75.7101 73.9784 74.4829 74.395 73.263 74.8247C72.8516 74.5159 72.2107 74.3713 71.4678 74.3713C70.4227 74.3713 69.181 74.6568 68.0922 75.1808C67.1564 75.6272 66.1295 76.712 65.8163 77.6151C59.8771 79.8717 52.7873 82.3836 48.982 87.4371C46.2837 91.0134 44.401 95.9763 47.336 99.9018C49.2733 102.494 52.2556 103.81 55.1942 104.969C57.2262 105.771 58.7374 107.403 59.0578 109.67C59.7315 114.442 53.2024 114.291 50.2237 114.401C49.9287 114.415 49.6338 114.418 49.3388 114.418V114.418ZM46.7898 107.175C45.4316 107.175 43.8075 107.548 42.3983 108.216C40.9854 108.887 39.445 110.694 39.5361 111.846C39.6235 112.957 40.6977 113.387 42.0887 113.387C43.4361 113.387 45.082 112.988 46.4257 112.407C49.1604 111.221 50.2965 109.824 49.5355 108.28C49.1604 107.521 48.1007 107.175 46.7898 107.175V107.175ZM35.3339 98.995C33.7972 98.995 31.6779 99.8344 30.0465 101.104C28.8084 102.068 27.6941 104.163 28.0292 105.268C28.2658 106.037 28.9286 106.349 29.7916 106.349C31.2737 106.349 33.3529 105.429 34.8823 104.328C37.2966 102.581 38.105 100.969 37.0308 99.6265C36.6812 99.1899 36.0731 98.995 35.3339 98.995V98.995ZM40.035 85.8353C38.4983 85.8353 36.379 86.675 34.7476 87.944C33.5095 88.9046 32.3953 90.9999 32.7303 92.108C32.967 92.8771 33.6297 93.1891 34.4927 93.1891C35.9748 93.1891 38.054 92.2693 39.5834 91.1678C41.9977 89.4217 42.8025 87.81 41.7282 86.4667C41.3787 86.0301 40.7742 85.8353 40.035 85.8353" fill="#D1664C"/>
<path d="M29.7916 106.349C28.9274 106.349 28.2656 106.037 28.0293 105.268C27.6951 104.163 28.8092 102.068 30.0448 101.104C31.6755 99.8344 33.7957 98.9951 35.3318 98.9951C36.0712 98.9951 36.6789 99.1899 37.03 99.6264C38.1036 100.969 37.2967 102.581 34.8794 104.327C33.3534 105.429 31.2737 106.349 29.7916 106.349" fill="#D29180"/>
<path d="M34.4887 93.1895C33.6273 93.1895 32.9633 92.8772 32.7284 92.1084C32.3947 91.0001 33.5081 88.9047 34.7441 87.9445C36.375 86.6752 38.4963 85.8355 40.0319 85.8355C40.7707 85.8355 41.3768 86.0303 41.7241 86.4668C42.8001 87.8101 41.9931 89.4219 39.579 91.168C38.0536 92.2694 35.9733 93.1895 34.4887 93.1895Z" fill="#D29180"/>
<path d="M51.4223 77.0239C50.0993 77.0239 49.0562 76.641 49.0002 75.6473C48.9862 75.439 49.0422 75.2073 49.1437 74.9689C51.5693 73.9346 54.051 72.9843 56.5607 72.1485C57.1102 72.3095 57.5232 72.5849 57.7122 72.9808C58.3388 74.2972 57.3307 75.4324 54.9436 76.3354C53.8515 76.752 52.5354 77.0239 51.4223 77.0239" fill="#D29180"/>
<path d="M65.8135 77.6152C66.126 76.7123 67.1532 75.6275 68.0871 75.1811C69.179 74.6571 70.4217 74.3719 71.4669 74.3719C72.2068 74.3719 72.8497 74.5163 73.2592 74.8252C71.334 75.5033 69.4268 76.2119 67.5088 76.9641C66.9593 77.1788 66.3918 77.3972 65.8135 77.6152" fill="#D29180"/>
<path d="M42.0926 113.387C40.6984 113.387 39.6252 112.957 39.5355 111.846C39.4458 110.694 40.9883 108.887 42.3997 108.216C43.8077 107.547 45.4331 107.175 46.7928 107.175C48.1041 107.175 49.1635 107.521 49.5362 108.279C50.2989 109.824 49.1635 111.221 46.4269 112.406C45.0845 112.987 43.4385 113.387 42.0926 113.387" fill="#D29180"/>
<path d="M105.866 129.354C100.195 129.354 93.9651 128.618 87.1997 126.839C84.2609 126.066 81.6706 122.896 81.0059 119.881C81.8409 119.455 82.2584 118.797 82.2098 117.897C82.1855 117.356 81.8328 116.862 81.2653 116.44C81.9949 114.898 83.7298 113.817 86.847 113.817C87.909 113.817 89.1292 113.941 90.5236 114.216C91.5289 114.414 92.526 114.586 93.5151 114.733C93.0084 115.042 92.6274 115.422 92.5139 115.811C92.0072 117.554 95.3879 118.575 97.97 118.595C98.0065 118.595 98.0429 118.595 98.0794 118.595C100.589 118.595 101.89 117.903 101.728 116.473C101.683 116.1 101.456 115.748 101.091 115.435C101.971 115.469 102.83 115.483 103.681 115.483C109.514 115.483 114.679 114.74 118.53 113.676C119.365 113.874 120.244 113.988 121.067 114.011C121.205 114.015 121.347 114.015 121.481 114.015C124.196 114.015 125.664 113.222 125.627 111.584C125.619 111.215 125.461 110.862 125.181 110.536C128.291 107.803 128.376 104.724 128.501 100.916C129.486 101.681 131.359 102.131 132.948 102.168C133.053 102.171 133.159 102.171 133.256 102.171C135.567 102.171 136.819 101.5 136.799 100.11C136.775 98.6793 134.034 97.5375 131.481 97.5375C131.452 97.5375 131.42 97.5375 131.387 97.5375C130.488 97.5512 129.357 97.944 128.619 98.4811C128.874 95.5731 130.184 94.3809 131.967 94.3809C137.756 94.3809 148.53 106.963 144.306 113.914C141.931 117.816 128.327 129.354 105.866 129.354V129.354ZM108.947 121.745C108.513 121.745 108.08 121.768 107.658 121.822C106.101 122.01 104.067 123.232 103.787 124.354C103.317 126.235 106.341 127.117 109.105 127.117C109.458 127.117 109.806 127.101 110.143 127.074C113.114 126.819 114.63 125.855 114.403 124.149C114.204 122.685 111.606 121.745 108.947 121.745V121.745ZM138.307 111.641C137.054 111.641 135.619 111.913 134.338 112.43C132.887 113.014 131.242 114.727 131.262 115.882C131.286 117.111 132.559 117.588 134.172 117.588C135.425 117.588 136.88 117.299 138.108 116.852C140.909 115.835 142.125 114.505 141.46 112.92C141.096 112.047 139.835 111.641 138.307 111.641" fill="#D1664C"/>
<path d="M98.0766 118.595C98.039 118.595 98.005 118.595 97.9674 118.595C95.3829 118.575 92.0073 117.554 92.5084 115.811C92.6252 115.422 93.0057 115.043 93.5143 114.734C96.1025 115.12 98.6455 115.345 101.091 115.436C101.452 115.748 101.682 116.1 101.723 116.473C101.885 117.904 100.586 118.595 98.0766 118.595" fill="#D29180"/>
<path d="M133.259 102.171C133.16 102.171 133.056 102.171 132.952 102.168C131.36 102.131 129.488 101.681 128.505 100.915C128.529 100.237 128.553 99.5352 128.596 98.8066C128.604 98.6959 128.608 98.5884 128.62 98.4809C129.357 97.9437 130.488 97.5507 131.388 97.5372C131.42 97.5372 131.455 97.5372 131.483 97.5372C134.036 97.5372 136.775 98.6792 136.799 100.109C136.823 101.5 135.568 102.171 133.259 102.171" fill="#D29180"/>
<path d="M121.483 114.015C121.346 114.015 121.205 114.015 121.064 114.012C120.242 113.988 119.362 113.874 118.528 113.676C121.154 112.954 123.166 112.081 124.363 111.194C124.656 110.976 124.93 110.758 125.181 110.536C125.463 110.862 125.619 111.215 125.627 111.584C125.662 113.222 124.195 114.015 121.483 114.015" fill="#D29180"/>
<path d="M134.17 117.587C132.56 117.587 131.288 117.111 131.264 115.882C131.244 114.726 132.89 113.014 134.339 112.43C135.619 111.913 137.052 111.641 138.305 111.641C139.838 111.641 141.095 112.047 141.46 112.92C142.126 114.505 140.91 115.835 138.108 116.852C136.88 117.299 135.423 117.587 134.17 117.587" fill="#D29180"/>
<path d="M109.107 127.117C106.342 127.117 103.315 126.234 103.788 124.354C104.069 123.232 106.103 122.01 107.657 121.822C108.08 121.768 108.515 121.745 108.949 121.745C111.607 121.745 114.206 122.685 114.406 124.149C114.633 125.855 113.114 126.818 110.145 127.074C109.807 127.101 109.457 127.117 109.107 127.117" fill="#D29180"/>
<path d="M81.0071 119.881C80.7372 118.648 80.7846 117.447 81.2624 116.439C81.8313 116.862 82.1851 117.356 82.2106 117.896C82.258 118.796 81.8423 119.454 81.0071 119.881Z" fill="#D29180"/>
</g>
<defs>
<filter id="filter0_d_228_1350" x="15.1348" y="65" width="140.326" height="80" filterUnits="userSpaceOnUse" color-interpolation-filters="sRGB">
<feFlood flood-opacity="0" result="BackgroundImageFix"/>
<feColorMatrix in="SourceAlpha" type="matrix" values="0 0 0 0 0 0 0 0 0 0 0 0 0 0 0 0 0 0 127 0" result="hardAlpha"/>
<feOffset dy="4"/>
<feGaussianBlur stdDeviation="2"/>
<feComposite in2="hardAlpha" operator="out"/>
<feColorMatrix type="matrix" values="0 0 0 0 0 0 0 0 0 0 0 0 0 0 0 0 0 0 0.25 0"/>
<feBlend mode="normal" in2="BackgroundImageFix" result="effect1_dropShadow_228_1350"/>
<feBlend mode="normal" in="SourceGraphic" in2="effect1_dropShadow_228_1350" result="shape"/>
</filter>
</defs>
</svg>
