<svg width="165" height="165" viewBox="0 0 165 165" fill="none" xmlns="http://www.w3.org/2000/svg">
<g filter="url(#filter0_d_246_2)">
<path d="M37.0663 92.1345C37.0663 92.1345 34.9712 88.5842 37.0171 86.9932C39.6359 84.9548 41.868 83.986 41.868 83.986L40.2792 78.974L31.2452 77.7275C31.2452 77.7275 28.2186 74.5073 29.9375 70.4975C31.9728 65.7439 37.0663 62.9926 40.6096 61.4758C44.6837 59.7295 50.0901 60.3538 52.1535 62.0572C56.0342 65.2581 55.6475 70.5956 55.6475 70.5956L60.6918 70.8877C60.6918 70.8877 64.0207 65.2894 67.0965 63.7058C70.4922 61.9591 74.8299 62.0382 78.0604 63.902C80.5843 65.3566 84.7498 69.6556 83.3964 74.2823C81.9903 79.0862 76.3625 81.2202 76.3625 81.2202L66.0314 79.9094C66.0314 79.9094 64.6218 82.4811 64.7659 82.9188C64.9136 83.3543 67.1457 84.8591 65.5428 89.2254C63.9434 93.5912 71.1249 88.4981 71.1249 88.4981L78.1096 83.2587L85.5301 76.4164L86.8413 66.8108L80.5843 59.2437L70.1055 56.6241L59.335 61.8635L56.1327 57.6432L48.2727 54.7319L36.6304 57.6432L29.0622 64.9186L25.2764 73.7969L29.4981 77.7275L34.5916 79.7635L30.8093 86.7493L37.0663 92.1345" fill="#95C250"/>
<path d="M88.7338 64.4832C84.7735 59.2031 83.6369 59.6794 83.6369 59.6794L85.6757 70.5958L80.7281 79.9093L71.4117 81.5101L67.7747 89.9527L53.0738 97.2303L43.0329 96.5007L34.5904 92.2805L30.8077 86.7493L34.5904 79.7633L37.0659 77.2898L27.3163 76.2705L22.9511 71.6148C22.9511 72.0503 22.0774 77.1439 22.0774 77.1439C22.0774 77.1439 21.2108 79.3353 25.2776 82.3831C28.19 84.5675 31.0989 84.5675 31.0989 84.5675C31.0989 84.5675 28.769 84.2755 28.4777 88.0603C28.19 91.8451 26.9043 95.4167 28.4777 97.6657C30.5164 100.577 35.9365 105.173 44.3436 105.962C53.6599 106.836 62.0989 106.836 68.2115 101.74C74.9422 96.1296 75.3435 90.9717 75.3435 90.9717C75.3435 90.9717 79.3535 90.9767 82.9088 89.3688C87.4232 87.3329 90.6233 82.821 91.5006 79.3282C92.3708 75.835 92.8077 69.9163 88.7338 64.4832" fill="#95C250"/>
<path d="M83.9759 71.1773C83.5893 75.1555 82.1349 77.2896 79.8043 78.3566C75.0191 80.5506 69.2299 76.8543 69.2299 76.8543L66.0303 79.9092C66.0303 79.9092 69.2299 82.2394 67.1938 86.6057C65.6437 89.9217 59.3331 95.1919 50.4543 95.0461C41.8734 94.9049 34.0092 91.6989 34.0092 86.8952C34.0092 81.7442 40.2807 78.9738 40.2807 78.9738L38.5355 75.4812C38.5355 75.4812 30.735 77.1438 28.7698 74.9618C26.8082 72.7778 27.8972 67.2487 31.8276 63.756C35.758 60.263 42.9979 55.2919 50.0215 57.2057C56.4208 58.952 56.325 64.1913 56.325 64.1913L61.018 64.347C61.018 64.347 66.0126 58.0694 73.742 58.952C78.8359 59.5334 84.586 64.9522 83.9759 71.1773V71.1773ZM80.6663 57.361C68.6588 52.1217 60.3653 59.1077 60.3653 59.1077C60.3653 59.1077 55.9312 54.055 50.7487 53.2774C44.9276 52.4041 38.0956 53.4328 32.2036 58.6721C27.9611 62.4425 20.6324 69.8038 23.6902 75.0431C26.7479 80.2827 32.2036 79.8471 32.2036 79.8471C32.2036 79.8471 23.1474 90.0242 33.5125 95.5651C45.0695 101.74 60.337 99.3617 65.6046 96.4384C71.4967 93.1632 72.5857 85.522 72.5857 85.522C72.5857 85.522 81.4574 87.8161 86.4022 80.3948C91.2088 73.1918 92.0708 62.3396 80.6663 57.361" fill="#ADD664"/>
<path d="M41.8696 83.9859C41.8696 83.9859 45.6539 82.4333 46.3343 81.3663C47.0113 80.2968 44.9769 75.5433 44.9769 75.5433L41.1893 76.3208L40.28 78.9741L38.6675 80.8806L39.737 81.56L38.6675 83.5002L40.5122 82.6269L39.5408 84.3735L41.8696 83.9859" fill="#D6A374"/>
<path d="M44.973 75.5433C44.487 74.2824 38.5319 75.481 38.5319 75.481L36.5327 76.8064L38.0818 77.096L36.9208 78.1627C36.9208 78.1627 38.2775 78.455 38.5678 78.455C38.8613 78.455 37.5013 79.5217 37.5013 79.5217L40.28 78.9738C40.28 78.9738 45.4589 76.8064 44.973 75.5433" fill="#F2B981"/>
<path d="M63.3113 75.9308C63.3113 75.9308 61.371 78.553 61.6627 79.7155C61.9544 80.8808 64.2849 82.3354 64.7666 82.9188C65.2517 83.5003 66.707 84.2754 66.707 84.2754L66.0285 82.2397L66.8054 82.9188L65.9335 80.7824L66.8054 81.5602V79.8135L63.3113 75.9308Z" fill="#D6A374"/>
<path d="M70.1062 79.814L69.426 78.455L70.9777 79.0364L69.2312 76.8545C69.2312 76.8545 65.933 74.4763 63.7968 75.4477C61.6607 76.4166 66.0287 79.9093 66.0287 79.9093L68.0657 81.9478L67.1942 80.1031L69.3269 80.8807C69.3269 80.8807 68.4554 79.5218 68.1649 79.4261C67.8709 79.3283 70.1062 79.814 70.1062 79.814" fill="#F2B981"/>
<path d="M55.9134 65.5023C55.9134 65.5023 55.4064 70.6676 55.4769 71.323C55.5508 71.9788 56.2794 73.7251 57.6627 73.579C59.0427 73.4333 60.2313 71.9788 60.6913 70.8876C61.1546 69.7943 61.0103 64.629 61.0103 64.629L55.9134 65.5023" fill="#D6A374"/>
<path d="M60.0125 63.5121L59.7204 62.1556L58.9448 63.6102L58.5586 61.8638L57.9744 63.3184L57.1987 61.7658L56.3257 64.1917C56.3257 64.1917 54.8718 67.6845 57.877 67.8782C60.8855 68.0719 61.0165 64.3472 61.0165 64.3472L61.1777 62.0575L60.0125 63.5121" fill="#F2B981"/>
<path d="M82.5 85.7705C82.5 85.7705 82.2701 81.6558 84.814 81.1773C88.0782 80.567 90.5071 80.7276 90.5071 80.7276L91.3883 75.5455L83.929 70.2968C83.929 70.2968 82.7145 66.0477 86.0783 63.2728C90.0704 59.9806 95.8554 59.8684 99.7019 60.1434C104.123 60.4591 108.64 63.4927 109.697 65.9523C111.678 70.5765 108.885 75.1413 108.885 75.1413L113.237 77.7132C113.237 77.7132 118.762 74.2609 122.222 74.2655C126.037 74.2705 129.861 76.3278 131.876 79.4617C133.451 81.9118 135.186 87.644 131.861 91.1345C128.409 94.7588 122.432 94.0769 122.432 94.0769L113.847 88.1773C113.847 88.1773 111.418 89.8185 111.345 90.2733C111.276 90.7277 112.571 93.0865 109.146 96.235C105.721 99.3811 114.437 98.1441 114.437 98.1441L123.049 96.6894L132.78 94.0102L138.347 86.0743L136.255 76.4784L128.137 69.3494L116.168 69.0693L115.256 63.8516L109.602 57.6624L97.9204 54.9135L87.8598 57.9137L80.4273 64.0693L82.3774 69.4976L85.971 73.641L79.4082 78.1174L82.5 85.7705Z" fill="#95C250"/>
<path d="M141.094 84.8714C139.995 78.3638 138.769 78.2682 138.769 78.2682L135.578 88.9048L126.912 94.9143L117.899 92.0697L110.798 97.905L94.3948 97.6344L85.806 92.3855L80.2355 84.7657L79.4067 78.1174L85.9717 73.6414L89.3063 72.5767L81.1029 67.2032L79.3566 61.0623C79.16 61.4497 76.0452 65.5764 76.0452 65.5764C76.0452 65.5764 74.2757 67.1269 76.4923 71.7012C78.0806 74.9764 80.6673 76.3114 80.6673 76.3114C80.6673 76.3114 78.7321 74.9833 76.7391 78.213C74.746 81.4454 71.9666 84.0314 72.3367 86.7518C72.8108 90.2733 75.5209 96.8426 82.6333 101.395C90.5129 106.441 98.0146 110.309 105.782 108.582C114.337 106.68 117.054 102.278 117.054 102.278C117.054 102.278 120.616 104.12 124.518 104.324C129.46 104.58 134.375 102.036 136.749 99.3333C139.128 96.6275 142.227 91.5674 141.094 84.8714" fill="#95C250"/>
<path d="M133.801 88.6437C131.633 92.0002 129.364 93.23 126.804 93.1127C121.546 92.8688 118.095 86.9283 118.095 86.9283L113.848 88.1771C113.848 88.1771 115.625 91.7156 111.815 94.6632C108.918 96.8998 100.891 98.6919 93.069 94.4932C85.5065 90.4358 79.9846 83.9834 82.1879 79.7131C84.5462 75.1341 91.3884 75.5454 91.3884 75.5454L91.4388 71.641C91.4388 71.641 83.7446 69.5453 83.0011 66.7054C82.2538 63.8658 85.7582 59.4495 90.8502 58.1457C95.9461 56.8415 104.659 55.7438 110.022 60.6623C114.912 65.148 112.426 69.7606 112.426 69.7606L116.527 72.0503C116.527 72.0503 123.842 68.7581 130.309 73.0861C134.568 75.9376 137.194 83.3879 133.801 88.6437V88.6437ZM137.19 74.8445C128.918 64.6864 118.343 67.093 118.343 67.093C118.343 67.093 116.725 60.5713 112.469 57.5022C107.695 54.0593 101.154 51.844 93.5182 53.801C88.0157 55.2078 78.1298 58.392 78.4435 64.4494C78.761 70.5072 83.8104 72.6195 83.8104 72.6195C83.8104 72.6195 71.0978 77.5144 77.7736 87.1893C85.2161 97.9767 99.8765 102.859 105.894 102.673C112.636 102.462 117.104 96.1726 117.104 96.1726C117.104 96.1726 123.935 102.276 131.734 97.9476C139.304 93.7443 145.046 84.4954 137.19 74.8445Z" fill="#ADD664"/>
<path d="M90.5052 80.7275C90.5052 80.7275 94.5809 81.0814 95.6723 80.4452C96.7637 79.809 97.1323 74.6483 97.1323 74.6483L93.4144 73.6053L91.3891 75.5458L89.0811 76.5001L89.718 77.5936L87.8823 78.8303L89.9184 78.8976L88.258 80.0051L90.5052 80.7275" fill="#D6A374"/>
<path d="M97.1338 74.6488C97.2806 73.3066 91.4392 71.6415 91.4392 71.6415L89.0519 71.9024L90.2975 72.8713L88.7727 73.2876C88.7727 73.2876 89.8465 74.1677 90.1042 74.302C90.3655 74.4358 88.6689 74.7612 88.6689 74.7612L91.3892 75.5457C91.3892 75.5457 96.9871 75.9931 97.1338 74.6488" fill="#F2B981"/>
<path d="M113.252 83.3975C113.252 83.3975 110.326 84.8381 110.054 86.0053C109.777 87.1728 111.181 89.534 111.343 90.2733C111.509 91.0126 112.449 92.3691 112.449 92.3691L112.777 90.2471L113.157 91.2064L113.356 88.9097L113.779 90.0006L114.579 88.4479L113.252 83.3975" fill="#D6A374"/>
<path d="M117.511 89.9601L117.529 88.4408L118.643 89.6704L118.093 86.9288C118.093 86.9288 116.249 83.3043 113.908 83.1896C111.567 83.0724 113.845 88.1777 113.845 88.1777L114.724 90.9241L114.791 88.8834L116.335 90.5534C116.335 90.5534 116.179 88.9457 115.964 88.7257C115.748 88.5053 117.511 89.9601 117.511 89.9601" fill="#F2B981"/>
<path d="M111.461 70.7367C111.461 70.7367 108.641 75.0955 108.404 75.7106C108.167 76.3253 108.016 78.2105 109.313 78.7154C110.607 79.22 112.33 78.4715 113.239 77.713C114.148 76.9545 116.388 72.2943 116.388 72.2943L111.461 70.7367" fill="#D6A374"/>
<path d="M116.014 70.8472L116.377 69.5076L115.021 70.4452L115.477 68.7156L114.291 69.7417L114.313 68.005L112.424 69.761C112.424 69.761 109.531 72.199 112.117 73.749C114.699 75.302 116.525 72.0504 116.525 72.0504L117.714 70.0866L116.014 70.8472Z" fill="#F2B981"/>
</g>
<g filter="url(#filter1_d_246_2)">
<path d="M56.6485 136.986C56.6485 136.986 53.3158 135.735 53.7137 133.577C54.2218 130.812 55.0891 128.969 55.0891 128.969L51.2518 126.47L44.8234 130.475C44.8234 130.475 41.0869 129.943 39.9115 126.343C38.5165 122.076 40.1902 117.51 41.5788 114.599C43.1741 111.25 46.9524 108.773 49.222 108.806C53.4888 108.867 56.2582 112.642 56.2582 112.642L59.6195 110.136C59.6195 110.136 58.5671 104.612 59.6217 101.907C60.787 98.921 63.5803 96.6511 66.6798 96.167C69.1006 95.7877 74.168 96.4304 75.9234 100.247C77.7455 104.211 75.3847 108.65 75.3847 108.65L68.098 113.306C68.098 113.306 68.6572 115.78 68.9957 115.995C69.3353 116.207 71.5995 116.018 73.0497 119.794C74.5019 123.568 76.1761 116.319 76.1761 116.319L77.6429 109.077L78.4807 100.531L73.8867 93.4092L65.6483 91.7022L57.529 95.5624L53.6632 104.831L49.2505 103.725L42.6258 105.988L36.8928 114.168L36.2061 123.083L38.8213 131.044L43.7163 131.41L48.0937 130.043L49.6423 136.738L56.6485 136.986" fill="#95C250"/>
<path d="M73.7713 90.8404C68.2799 89.4321 67.8287 90.359 67.8287 90.359L75.2858 96.5631L77.4106 105.437L72.4113 111.495L74.8748 119.085L69.6697 131.821L62.8952 136.71L55.1621 138.41L49.6414 136.739L48.0928 130.044L48.2646 127.065L41.511 131.605L36.1156 130.83C36.3616 131.122 38.6846 134.994 38.6846 134.994C38.6846 134.994 39.3731 136.922 43.6713 136.782C46.7505 136.682 48.5937 135.124 48.5937 135.124C48.5937 135.124 46.9524 136.177 48.9054 138.862C50.8606 141.546 52.063 144.621 54.3302 145.282C57.2663 146.136 63.2963 146.306 69.0693 142.331C75.4658 137.927 80.8132 133.408 81.8086 126.729C82.905 119.376 80.2463 115.713 80.2463 115.713C80.2463 115.713 82.79 113.57 84.1348 110.591C85.8455 106.813 85.3252 102.084 83.9085 99.2803C82.4871 96.4797 79.4212 92.2901 73.7713 90.8404" fill="#95C250"/>
<path d="M74.537 97.8617C76.5387 100.728 76.8224 102.933 75.9483 104.894C74.1551 108.922 68.3993 109.552 68.3993 109.552L68.0972 113.307C68.0972 113.307 71.4406 113.151 72.6164 117.159C73.5069 120.205 72.4845 127.107 66.7761 131.763C61.2591 136.264 54.4652 138.332 51.7523 135.122C48.8432 131.679 51.2525 126.469 51.2525 126.469L48.1741 125.07C48.1741 125.07 44.1704 130.358 41.6928 129.952C39.2164 129.542 36.7838 125.264 37.3018 120.825C37.8195 116.386 39.5997 109.187 45.131 106.705C50.1722 104.446 53.0704 107.999 53.0704 107.999L56.1321 105.59C56.1321 105.59 55.7516 98.7199 61.1479 95.1709C64.704 92.8319 71.4079 93.3746 74.537 97.8617V97.8617ZM64.637 90.4C54.0694 93.3279 52.7596 102.438 52.7596 102.438C52.7596 102.438 47.0963 101.435 43.3733 103.69C39.1915 106.224 35.4433 110.569 34.6688 117.226C34.1099 122.018 33.6234 130.862 38.52 132.726C43.4167 134.59 46.6277 131.378 46.6277 131.378C46.6277 131.378 46.6369 143.029 56.334 141.182C67.1444 139.12 75.4756 129.356 77.1625 124.582C79.0463 119.238 75.4209 113.548 75.4209 113.548C75.4209 113.548 82.3381 110.331 81.2802 102.723C80.2578 95.3351 74.6751 87.6207 64.637 90.4" fill="#ADD664"/>
<path d="M55.0899 128.968C55.0899 128.968 56.611 125.904 56.4395 124.827C56.2645 123.75 52.2908 121.662 52.2908 121.662L50.3298 124.21L51.2521 126.47L51.3071 128.608L52.3685 128.489L52.7866 130.358L53.4623 128.787L53.8331 130.475L55.0899 128.968" fill="#D6A374"/>
<path d="M52.2883 121.664C51.2683 121.082 48.1717 125.071 48.1717 125.071L47.6535 127.028L48.7986 126.392L48.6654 127.726C48.6654 127.726 49.6901 127.195 49.8741 127.04C50.0601 126.883 49.8008 128.324 49.8008 128.324L51.252 126.47C51.252 126.47 53.3096 122.248 52.2883 121.664" fill="#F2B981"/>
<path d="M64.1272 112.104C64.1272 112.104 64.3786 114.895 65.2201 115.516C66.063 116.139 68.3612 115.863 68.996 115.995C69.6317 116.124 70.9916 115.863 70.9916 115.863L69.412 114.865L70.2878 114.903L68.5288 113.942L69.5205 113.995L68.5341 112.828L64.1272 112.104Z" fill="#D6A374"/>
<path d="M70.6261 111.061L69.4277 110.517L70.7392 110.074L68.4003 109.551C68.4003 109.551 64.9672 109.728 64.1622 111.521C63.3559 113.312 68.0963 113.308 68.0963 113.308L70.5382 113.579L68.9442 112.813L70.7348 112.191C70.7348 112.191 69.415 111.749 69.1769 111.841C68.9354 111.933 70.6261 111.061 70.6261 111.061" fill="#F2B981"/>
<path d="M53.55 109.095C53.55 109.095 56.1459 112.819 56.5607 113.219C56.9779 113.618 58.4258 114.395 59.2199 113.557C60.012 112.72 59.9437 111.112 59.6189 110.136C59.2951 109.157 56.2864 105.783 56.2864 105.783L53.55 109.095" fill="#D6A374"/>
<path d="M55.0236 105.57L54.0724 104.82L54.4024 106.208L53.1714 105.247L53.6227 106.532L52.2544 105.91L53.0713 107.999C53.0713 107.999 54.1226 111.111 56.1362 109.632C58.152 108.15 56.1314 105.591 56.1314 105.591L54.9404 103.974L55.0236 105.57" fill="#F2B981"/>
<path d="M81.8434 108.405C81.8434 108.405 79.3739 105.778 80.7157 104.097C82.4393 101.941 84.0691 100.747 84.0691 100.747L81.7008 96.8123L74.0099 97.2986C74.0099 97.2986 70.8406 95.109 71.4049 91.4533C72.0753 87.1155 75.6776 83.9428 78.2703 82.067C81.2501 79.9107 85.8255 79.5194 87.8846 80.5971C91.7513 82.627 92.5596 87.1733 92.5596 87.1733L96.7698 86.5618C96.7698 86.5618 98.3208 81.2963 100.516 79.447C102.936 77.4071 106.521 76.7347 109.568 77.7502C111.949 78.5445 116.286 81.4462 116.15 85.5597C116.01 89.8302 111.838 92.5747 111.838 92.5747L103.066 93.2291C103.066 93.2291 102.453 95.6266 102.664 95.9695C102.877 96.3101 105.03 97.1932 104.638 101.131C104.244 105.068 109.068 99.5743 109.068 99.5743L113.704 93.9904L118.357 86.9892L117.403 78.7047L110.658 73.4115L101.487 72.9939L93.7452 79.2154L90.2207 76.2165L83.1421 75.1079L74.1878 79.5256L69.5072 86.9178L68.274 95.0115L72.5754 97.5953L77.1926 98.4402L75.5621 104.946L81.8434 108.405Z" fill="#95C250"/>
<path d="M118.464 76.4296C114.093 72.6687 113.262 73.2612 113.262 73.2612L117.246 82.0791L115.149 90.7358L107.832 93.6607L106.628 101.363L96.081 109.965L87.6743 111.056L79.8412 108.946L75.5613 104.947L77.1934 98.4399L78.705 95.9428L70.4722 96.7441L65.8974 93.575C65.9916 93.9392 66.3486 98.3651 66.3486 98.3651C66.3486 98.3651 66.103 100.349 70.0909 102.219C72.9471 103.558 75.3401 103.065 75.3401 103.065C75.3401 103.065 73.3638 103.213 73.9249 106.439C74.4876 109.666 74.1868 112.883 75.9577 114.503C78.247 116.603 83.6743 119.542 90.7523 118.776C98.5948 117.929 105.533 116.498 109.48 111.184C113.826 105.333 113.062 100.935 113.062 100.935C113.062 100.935 116.359 100.259 118.946 98.3062C122.222 95.831 123.901 91.4994 123.879 88.4213C123.858 85.3393 122.964 80.298 118.464 76.4296" fill="#95C250"/>
<path d="M115.973 82.8557C116.495 86.2601 115.752 88.2971 114.064 89.5892C110.594 92.2419 105.052 90.1191 105.052 90.1191L103.066 93.2283C103.066 93.2283 106.191 94.6415 105.441 98.6517C104.869 101.697 100.794 107.193 93.4667 108.576C86.3832 109.913 79.2402 108.558 78.2247 104.524C77.1329 100.201 81.7008 96.812 81.7008 96.812L79.5276 94.1756C79.5276 94.1756 73.4686 96.8949 71.3937 95.395C69.3164 93.8974 69.0428 89.0694 71.5331 85.4715C74.0256 81.8712 78.9264 76.4723 85.1025 76.8878C90.7348 77.267 91.7646 81.6809 91.7646 81.6809L95.6562 81.0154C95.6562 81.0154 98.4319 74.8984 104.974 74.3283C109.283 73.9533 115.155 77.5267 115.973 82.8557V82.8557ZM110.327 71.819C99.3491 69.4588 94.0073 76.7298 94.0073 76.7298C94.0073 76.7298 89.2984 73.2379 84.8685 73.4653C79.8987 73.7209 74.5033 75.7424 70.7699 81.1392C68.0778 85.0257 63.6118 92.4473 67.2316 96.3277C70.854 100.206 75.2465 98.9143 75.2465 98.9143C75.2465 98.9143 69.9556 108.993 79.6497 111.884C90.458 115.109 102.505 110.522 106.213 107.175C110.366 103.425 109.645 96.8281 109.645 96.8281C109.645 96.8281 117.42 97.2495 119.918 90.181C122.341 83.3182 120.756 74.062 110.327 71.819Z" fill="#ADD664"/>
<path d="M84.068 100.748C84.068 100.748 86.8505 98.8026 87.1827 97.793C87.515 96.7834 84.834 93.137 84.834 93.137L81.889 94.4307L81.7016 96.8121L80.7781 98.6857L81.7993 99.0755L81.3345 100.885L82.6627 99.8397L82.2361 101.469L84.068 100.748" fill="#D6A374"/>
<path d="M84.8349 93.1364C84.1699 92.1607 79.5282 94.1757 79.5282 94.1757L78.1628 95.6284L79.4993 95.609L78.7682 96.7037C78.7682 96.7037 79.9456 96.7169 80.1847 96.6686C80.4259 96.6182 79.5346 97.7441 79.5346 97.7441L81.7014 96.8119C81.7014 96.8119 85.5012 94.1134 84.8349 93.1364" fill="#F2B981"/>
<path d="M99.9897 90.3527C99.9897 90.3527 98.9492 92.8823 99.4355 93.8084C99.9198 94.7367 102.143 95.5629 102.663 95.9702C103.186 96.3755 104.548 96.7789 104.548 96.7789L103.557 95.1851L104.339 95.6229L103.168 93.9814L104.053 94.4835L103.683 93.0176L99.9897 90.3527" fill="#D6A374"/>
<path d="M106.394 92.4583L105.548 91.4329L106.948 91.6587L105.051 90.1205C105.051 90.1205 101.836 88.6854 100.288 89.8624C98.7379 91.0377 103.065 93.2299 103.065 93.2299L105.173 94.5945L104.063 93.1949L105.984 93.4846C105.984 93.4846 104.977 92.4936 104.717 92.4618C104.456 92.4297 106.394 92.4583 106.394 92.4583" fill="#F2B981"/>
<path d="M91.7038 82.8503C91.7038 82.8503 92.3784 87.2737 92.5759 87.8115C92.7731 88.349 93.7418 89.6901 94.8491 89.3328C95.9538 88.9773 96.6226 87.5547 96.7704 86.5608C96.9182 85.567 95.7058 81.253 95.7058 81.253L91.7038 82.8503" fill="#D6A374"/>
<path d="M94.6512 80.4863L94.1247 79.3966L93.7951 80.7492L93.107 79.3493L92.9353 80.6698L91.9686 79.4972L91.7631 81.6825C91.7631 81.6825 91.3067 84.8611 93.8206 84.5124C96.3338 84.1677 95.6547 81.0167 95.6547 81.0167L95.2992 79.0675L94.6512 80.4863Z" fill="#F2B981"/>
</g>
<path d="M165 155C165 160.523 160.523 165 155 165L10 165C4.47716 165 3.70928e-06 160.523 3.87334e-06 155L8.18078e-06 9.99999C8.34485e-06 4.47715 4.47716 -2.94834e-06 10 -1.94459e-06L155 2.44086e-05C160.523 2.54123e-05 165 4.47718 165 10L165 155Z" fill="white"/>
<path d="M155 164.5L10 164.5C4.7533 164.5 0.5 160.247 0.5 155L0.500005 10C0.500005 4.7533 4.7533 0.500001 10 0.500002L155 0.500029C160.247 0.50003 164.5 4.75333 164.5 10L164.5 155C164.5 160.247 160.247 164.5 155 164.5Z" stroke="#8F9BBA" stroke-opacity="0.2"/>
<path d="M33.308 26.18C32.396 26.18 31.544 26.018 30.752 25.694C29.96 25.358 29.264 24.896 28.664 24.308C28.076 23.708 27.614 23.018 27.278 22.238C26.942 21.458 26.774 20.612 26.774 19.7C26.774 18.788 26.942 17.942 27.278 17.162C27.614 16.382 28.076 15.698 28.664 15.11C29.264 14.51 29.96 14.048 30.752 13.724C31.544 13.388 32.396 13.22 33.308 13.22C33.896 13.22 34.466 13.286 35.018 13.418C35.57 13.55 36.068 13.742 36.512 13.994C36.668 14.078 36.782 14.192 36.854 14.336C36.926 14.468 36.962 14.6 36.962 14.732C36.962 14.984 36.878 15.206 36.71 15.398C36.554 15.578 36.356 15.668 36.116 15.668C36.032 15.668 35.942 15.656 35.846 15.632C35.762 15.608 35.684 15.578 35.612 15.542C35.276 15.374 34.916 15.248 34.532 15.164C34.148 15.068 33.74 15.02 33.308 15.02C32.444 15.02 31.664 15.23 30.968 15.65C30.272 16.058 29.72 16.616 29.312 17.324C28.916 18.032 28.718 18.824 28.718 19.7C28.718 20.564 28.916 21.356 29.312 22.076C29.72 22.784 30.272 23.348 30.968 23.768C31.664 24.176 32.444 24.38 33.308 24.38C33.728 24.38 34.172 24.332 34.64 24.236C35.108 24.128 35.504 23.99 35.828 23.822L35.684 24.308V20.888L35.972 21.14H33.614C33.35 21.14 33.128 21.056 32.948 20.888C32.78 20.72 32.696 20.504 32.696 20.24C32.696 19.976 32.78 19.76 32.948 19.592C33.128 19.424 33.35 19.34 33.614 19.34H36.728C36.98 19.34 37.19 19.43 37.358 19.61C37.538 19.778 37.628 19.994 37.628 20.258V24.254C37.628 24.446 37.58 24.608 37.484 24.74C37.388 24.872 37.28 24.98 37.16 25.064C36.62 25.4 36.02 25.67 35.36 25.874C34.712 26.078 34.028 26.18 33.308 26.18ZM40.3332 26C40.0692 26 39.8532 25.916 39.6852 25.748C39.5172 25.568 39.4332 25.346 39.4332 25.082V17.45C39.4332 17.186 39.5172 16.97 39.6852 16.802C39.8532 16.622 40.0692 16.532 40.3332 16.532C40.5852 16.532 40.7952 16.622 40.9632 16.802C41.1432 16.97 41.2332 17.186 41.2332 17.45V19.466L41.0532 18.692C41.1492 18.356 41.2932 18.044 41.4852 17.756C41.6892 17.468 41.9292 17.216 42.2052 17C42.4812 16.784 42.7872 16.616 43.1232 16.496C43.4712 16.376 43.8312 16.316 44.2032 16.316C44.5152 16.316 44.7852 16.4 45.0132 16.568C45.2412 16.736 45.3552 16.946 45.3552 17.198C45.3552 17.522 45.2712 17.762 45.1032 17.918C44.9352 18.062 44.7492 18.134 44.5452 18.134C44.3652 18.134 44.1912 18.098 44.0232 18.026C43.8552 17.942 43.6572 17.9 43.4292 17.9C43.1772 17.9 42.9192 17.966 42.6552 18.098C42.3912 18.23 42.1512 18.428 41.9352 18.692C41.7192 18.944 41.5452 19.244 41.4132 19.592C41.2932 19.94 41.2332 20.33 41.2332 20.762V25.082C41.2332 25.346 41.1432 25.568 40.9632 25.748C40.7952 25.916 40.5852 26 40.3332 26ZM50.6023 26.18C49.6063 26.18 48.7423 25.976 48.0103 25.568C47.2783 25.148 46.7083 24.578 46.3003 23.858C45.9043 23.126 45.7063 22.292 45.7063 21.356C45.7063 20.3 45.9163 19.4 46.3363 18.656C46.7683 17.9 47.3263 17.324 48.0103 16.928C48.6943 16.52 49.4203 16.316 50.1883 16.316C50.7763 16.316 51.3343 16.436 51.8623 16.676C52.3903 16.904 52.8583 17.228 53.2663 17.648C53.6863 18.056 54.0163 18.542 54.2563 19.106C54.4963 19.658 54.6223 20.264 54.6343 20.924C54.6223 21.164 54.5263 21.362 54.3463 21.518C54.1663 21.674 53.9563 21.752 53.7163 21.752H46.7143L46.2823 20.222H53.0503L52.7083 20.546V20.096C52.6843 19.676 52.5463 19.31 52.2943 18.998C52.0423 18.674 51.7303 18.428 51.3583 18.26C50.9863 18.08 50.5963 17.99 50.1883 17.99C49.8283 17.99 49.4803 18.05 49.1443 18.17C48.8203 18.278 48.5263 18.458 48.2623 18.71C48.0103 18.962 47.8063 19.298 47.6503 19.718C47.5063 20.126 47.4343 20.636 47.4343 21.248C47.4343 21.908 47.5723 22.484 47.8483 22.976C48.1243 23.468 48.4963 23.852 48.9643 24.128C49.4323 24.392 49.9483 24.524 50.5123 24.524C50.9563 24.524 51.3223 24.482 51.6103 24.398C51.8983 24.302 52.1383 24.188 52.3303 24.056C52.5223 23.924 52.6903 23.798 52.8343 23.678C53.0143 23.57 53.1943 23.516 53.3743 23.516C53.5903 23.516 53.7703 23.594 53.9143 23.75C54.0583 23.894 54.1303 24.068 54.1303 24.272C54.1303 24.536 53.9983 24.776 53.7343 24.992C53.4103 25.304 52.9603 25.58 52.3843 25.82C51.8203 26.06 51.2263 26.18 50.6023 26.18ZM60.7189 26.18C59.7229 26.18 58.8589 25.976 58.1269 25.568C57.3949 25.148 56.8249 24.578 56.4169 23.858C56.0209 23.126 55.8229 22.292 55.8229 21.356C55.8229 20.3 56.0329 19.4 56.4529 18.656C56.8849 17.9 57.4429 17.324 58.1269 16.928C58.8109 16.52 59.5369 16.316 60.3049 16.316C60.8929 16.316 61.4509 16.436 61.9789 16.676C62.5069 16.904 62.9749 17.228 63.3829 17.648C63.8029 18.056 64.1329 18.542 64.3729 19.106C64.6129 19.658 64.7389 20.264 64.7509 20.924C64.7389 21.164 64.6429 21.362 64.4629 21.518C64.2829 21.674 64.0729 21.752 63.8329 21.752H56.8309L56.3989 20.222H63.1669L62.8249 20.546V20.096C62.8009 19.676 62.6629 19.31 62.4109 18.998C62.1589 18.674 61.8469 18.428 61.4749 18.26C61.1029 18.08 60.7129 17.99 60.3049 17.99C59.9449 17.99 59.5969 18.05 59.2609 18.17C58.9369 18.278 58.6429 18.458 58.3789 18.71C58.1269 18.962 57.9229 19.298 57.7669 19.718C57.6229 20.126 57.5509 20.636 57.5509 21.248C57.5509 21.908 57.6889 22.484 57.9649 22.976C58.2409 23.468 58.6129 23.852 59.0809 24.128C59.5489 24.392 60.0649 24.524 60.6289 24.524C61.0729 24.524 61.4389 24.482 61.7269 24.398C62.0149 24.302 62.2549 24.188 62.4469 24.056C62.6389 23.924 62.8069 23.798 62.9509 23.678C63.1309 23.57 63.3109 23.516 63.4909 23.516C63.7069 23.516 63.8869 23.594 64.0309 23.75C64.1749 23.894 64.2469 24.068 64.2469 24.272C64.2469 24.536 64.1149 24.776 63.8509 24.992C63.5269 25.304 63.0769 25.58 62.5009 25.82C61.9369 26.06 61.3429 26.18 60.7189 26.18ZM71.3035 16.316C72.1555 16.316 72.8155 16.496 73.2835 16.856C73.7515 17.204 74.0755 17.678 74.2555 18.278C74.4475 18.866 74.5435 19.526 74.5435 20.258V25.082C74.5435 25.346 74.4535 25.568 74.2735 25.748C74.1055 25.916 73.8955 26 73.6435 26C73.3795 26 73.1635 25.916 72.9955 25.748C72.8275 25.568 72.7435 25.346 72.7435 25.082V20.276C72.7435 19.844 72.6835 19.46 72.5635 19.124C72.4435 18.776 72.2335 18.5 71.9335 18.296C71.6455 18.08 71.2375 17.972 70.7095 17.972C70.2175 17.972 69.7855 18.08 69.4135 18.296C69.0415 18.5 68.7475 18.776 68.5315 19.124C68.3275 19.46 68.2255 19.844 68.2255 20.276V25.082C68.2255 25.346 68.1355 25.568 67.9555 25.748C67.7875 25.916 67.5775 26 67.3255 26C67.0615 26 66.8455 25.916 66.6775 25.748C66.5095 25.568 66.4255 25.346 66.4255 25.082V17.45C66.4255 17.186 66.5095 16.97 66.6775 16.802C66.8455 16.622 67.0615 16.532 67.3255 16.532C67.5775 16.532 67.7875 16.622 67.9555 16.802C68.1355 16.97 68.2255 17.186 68.2255 17.45V18.458L67.9015 18.638C67.9855 18.374 68.1295 18.11 68.3335 17.846C68.5495 17.57 68.8075 17.318 69.1075 17.09C69.4075 16.85 69.7435 16.664 70.1155 16.532C70.4875 16.388 70.8835 16.316 71.3035 16.316ZM86.6064 13.4C87.2424 13.4 87.8304 13.574 88.3704 13.922C88.9104 14.258 89.3424 14.72 89.6664 15.308C89.9904 15.896 90.1524 16.556 90.1524 17.288C90.1524 18.02 89.9904 18.686 89.6664 19.286C89.3424 19.874 88.9104 20.348 88.3704 20.708C87.8304 21.056 87.2424 21.23 86.6064 21.23H83.1324L83.2764 20.942V25.082C83.2764 25.346 83.1924 25.568 83.0244 25.748C82.8684 25.916 82.6584 26 82.3944 26C82.1424 26 81.9324 25.916 81.7644 25.748C81.6084 25.568 81.5304 25.346 81.5304 25.082V14.318C81.5304 14.054 81.6204 13.838 81.8004 13.67C81.9804 13.49 82.1964 13.4 82.4484 13.4H86.6064ZM86.6064 19.502C86.9184 19.502 87.2004 19.4 87.4524 19.196C87.7164 18.992 87.9264 18.722 88.0824 18.386C88.2504 18.05 88.3344 17.684 88.3344 17.288C88.3344 16.892 88.2504 16.532 88.0824 16.208C87.9264 15.884 87.7164 15.626 87.4524 15.434C87.2004 15.23 86.9184 15.128 86.6064 15.128H83.0964L83.2764 14.858V19.736L83.1144 19.502H86.6064ZM96.0172 26.18C95.0212 26.18 94.1572 25.976 93.4252 25.568C92.6932 25.148 92.1232 24.578 91.7152 23.858C91.3192 23.126 91.1212 22.292 91.1212 21.356C91.1212 20.3 91.3312 19.4 91.7512 18.656C92.1832 17.9 92.7412 17.324 93.4252 16.928C94.1092 16.52 94.8352 16.316 95.6032 16.316C96.1912 16.316 96.7492 16.436 97.2772 16.676C97.8052 16.904 98.2732 17.228 98.6812 17.648C99.1012 18.056 99.4312 18.542 99.6712 19.106C99.9112 19.658 100.037 20.264 100.049 20.924C100.037 21.164 99.9412 21.362 99.7612 21.518C99.5812 21.674 99.3712 21.752 99.1312 21.752H92.1292L91.6972 20.222H98.4652L98.1232 20.546V20.096C98.0992 19.676 97.9612 19.31 97.7092 18.998C97.4572 18.674 97.1452 18.428 96.7732 18.26C96.4012 18.08 96.0112 17.99 95.6032 17.99C95.2432 17.99 94.8952 18.05 94.5592 18.17C94.2352 18.278 93.9412 18.458 93.6772 18.71C93.4252 18.962 93.2212 19.298 93.0652 19.718C92.9212 20.126 92.8492 20.636 92.8492 21.248C92.8492 21.908 92.9872 22.484 93.2632 22.976C93.5392 23.468 93.9112 23.852 94.3792 24.128C94.8472 24.392 95.3632 24.524 95.9272 24.524C96.3712 24.524 96.7372 24.482 97.0252 24.398C97.3132 24.302 97.5532 24.188 97.7452 24.056C97.9372 23.924 98.1052 23.798 98.2492 23.678C98.4292 23.57 98.6092 23.516 98.7892 23.516C99.0052 23.516 99.1852 23.594 99.3292 23.75C99.4732 23.894 99.5452 24.068 99.5452 24.272C99.5452 24.536 99.4132 24.776 99.1492 24.992C98.8252 25.304 98.3752 25.58 97.7992 25.82C97.2352 26.06 96.6412 26.18 96.0172 26.18ZM106.494 16.37C107.334 16.37 108.078 16.58 108.726 17C109.386 17.42 109.908 17.996 110.292 18.728C110.676 19.448 110.868 20.288 110.868 21.248C110.868 22.208 110.676 23.06 110.292 23.804C109.908 24.536 109.392 25.112 108.744 25.532C108.096 25.952 107.364 26.162 106.548 26.162C106.092 26.162 105.66 26.09 105.252 25.946C104.844 25.802 104.484 25.616 104.172 25.388C103.86 25.148 103.602 24.896 103.398 24.632C103.206 24.368 103.086 24.122 103.038 23.894L103.524 23.66V28.682C103.524 28.946 103.434 29.162 103.254 29.33C103.086 29.51 102.876 29.6 102.624 29.6C102.36 29.6 102.144 29.51 101.976 29.33C101.808 29.162 101.724 28.946 101.724 28.682V17.414C101.724 17.162 101.808 16.946 101.976 16.766C102.144 16.586 102.36 16.496 102.624 16.496C102.876 16.496 103.086 16.586 103.254 16.766C103.434 16.946 103.524 17.162 103.524 17.414V18.656L103.236 18.494C103.272 18.266 103.386 18.032 103.578 17.792C103.77 17.54 104.01 17.306 104.298 17.09C104.598 16.874 104.934 16.7 105.306 16.568C105.69 16.436 106.086 16.37 106.494 16.37ZM106.296 18.026C105.72 18.026 105.216 18.17 104.784 18.458C104.364 18.734 104.034 19.112 103.794 19.592C103.554 20.072 103.434 20.624 103.434 21.248C103.434 21.86 103.554 22.418 103.794 22.922C104.034 23.414 104.364 23.804 104.784 24.092C105.216 24.368 105.72 24.506 106.296 24.506C106.86 24.506 107.352 24.368 107.772 24.092C108.192 23.804 108.522 23.414 108.762 22.922C109.014 22.418 109.14 21.86 109.14 21.248C109.14 20.636 109.014 20.09 108.762 19.61C108.522 19.118 108.192 18.734 107.772 18.458C107.352 18.17 106.86 18.026 106.296 18.026ZM117.313 16.37C118.153 16.37 118.897 16.58 119.545 17C120.205 17.42 120.727 17.996 121.111 18.728C121.495 19.448 121.687 20.288 121.687 21.248C121.687 22.208 121.495 23.06 121.111 23.804C120.727 24.536 120.211 25.112 119.563 25.532C118.915 25.952 118.183 26.162 117.367 26.162C116.911 26.162 116.479 26.09 116.071 25.946C115.663 25.802 115.303 25.616 114.991 25.388C114.679 25.148 114.421 24.896 114.217 24.632C114.025 24.368 113.905 24.122 113.857 23.894L114.343 23.66V28.682C114.343 28.946 114.253 29.162 114.073 29.33C113.905 29.51 113.695 29.6 113.443 29.6C113.179 29.6 112.963 29.51 112.795 29.33C112.627 29.162 112.543 28.946 112.543 28.682V17.414C112.543 17.162 112.627 16.946 112.795 16.766C112.963 16.586 113.179 16.496 113.443 16.496C113.695 16.496 113.905 16.586 114.073 16.766C114.253 16.946 114.343 17.162 114.343 17.414V18.656L114.055 18.494C114.091 18.266 114.205 18.032 114.397 17.792C114.589 17.54 114.829 17.306 115.117 17.09C115.417 16.874 115.753 16.7 116.125 16.568C116.509 16.436 116.905 16.37 117.313 16.37ZM117.115 18.026C116.539 18.026 116.035 18.17 115.603 18.458C115.183 18.734 114.853 19.112 114.613 19.592C114.373 20.072 114.253 20.624 114.253 21.248C114.253 21.86 114.373 22.418 114.613 22.922C114.853 23.414 115.183 23.804 115.603 24.092C116.035 24.368 116.539 24.506 117.115 24.506C117.679 24.506 118.171 24.368 118.591 24.092C119.011 23.804 119.341 23.414 119.581 22.922C119.833 22.418 119.959 21.86 119.959 21.248C119.959 20.636 119.833 20.09 119.581 19.61C119.341 19.118 119.011 18.734 118.591 18.458C118.171 18.17 117.679 18.026 117.115 18.026ZM127.773 26.18C126.777 26.18 125.913 25.976 125.181 25.568C124.449 25.148 123.879 24.578 123.471 23.858C123.075 23.126 122.877 22.292 122.877 21.356C122.877 20.3 123.087 19.4 123.507 18.656C123.939 17.9 124.497 17.324 125.181 16.928C125.865 16.52 126.591 16.316 127.359 16.316C127.947 16.316 128.505 16.436 129.033 16.676C129.561 16.904 130.029 17.228 130.437 17.648C130.857 18.056 131.187 18.542 131.427 19.106C131.667 19.658 131.793 20.264 131.805 20.924C131.793 21.164 131.697 21.362 131.517 21.518C131.337 21.674 131.127 21.752 130.887 21.752H123.885L123.453 20.222H130.221L129.879 20.546V20.096C129.855 19.676 129.717 19.31 129.465 18.998C129.213 18.674 128.901 18.428 128.529 18.26C128.157 18.08 127.767 17.99 127.359 17.99C126.999 17.99 126.651 18.05 126.315 18.17C125.991 18.278 125.697 18.458 125.433 18.71C125.181 18.962 124.977 19.298 124.821 19.718C124.677 20.126 124.605 20.636 124.605 21.248C124.605 21.908 124.743 22.484 125.019 22.976C125.295 23.468 125.667 23.852 126.135 24.128C126.603 24.392 127.119 24.524 127.683 24.524C128.127 24.524 128.493 24.482 128.781 24.398C129.069 24.302 129.309 24.188 129.501 24.056C129.693 23.924 129.861 23.798 130.005 23.678C130.185 23.57 130.365 23.516 130.545 23.516C130.761 23.516 130.941 23.594 131.085 23.75C131.229 23.894 131.301 24.068 131.301 24.272C131.301 24.536 131.169 24.776 130.905 24.992C130.581 25.304 130.131 25.58 129.555 25.82C128.991 26.06 128.397 26.18 127.773 26.18ZM134.38 26C134.116 26 133.9 25.916 133.732 25.748C133.564 25.568 133.48 25.346 133.48 25.082V17.45C133.48 17.186 133.564 16.97 133.732 16.802C133.9 16.622 134.116 16.532 134.38 16.532C134.632 16.532 134.842 16.622 135.01 16.802C135.19 16.97 135.28 17.186 135.28 17.45V19.466L135.1 18.692C135.196 18.356 135.34 18.044 135.532 17.756C135.736 17.468 135.976 17.216 136.252 17C136.528 16.784 136.834 16.616 137.17 16.496C137.518 16.376 137.878 16.316 138.25 16.316C138.562 16.316 138.832 16.4 139.06 16.568C139.288 16.736 139.402 16.946 139.402 17.198C139.402 17.522 139.318 17.762 139.15 17.918C138.982 18.062 138.796 18.134 138.592 18.134C138.412 18.134 138.238 18.098 138.07 18.026C137.902 17.942 137.704 17.9 137.476 17.9C137.224 17.9 136.966 17.966 136.702 18.098C136.438 18.23 136.198 18.428 135.982 18.692C135.766 18.944 135.592 19.244 135.46 19.592C135.34 19.94 135.28 20.33 135.28 20.762V25.082C135.28 25.346 135.19 25.568 135.01 25.748C134.842 25.916 134.632 26 134.38 26ZM140.085 24.524C139.977 24.356 139.929 24.164 139.941 23.948C139.953 23.72 140.079 23.528 140.319 23.372C140.487 23.264 140.661 23.222 140.841 23.246C141.033 23.258 141.213 23.348 141.381 23.516C141.717 23.888 142.089 24.182 142.497 24.398C142.917 24.614 143.421 24.722 144.009 24.722C144.249 24.71 144.495 24.674 144.747 24.614C144.999 24.542 145.215 24.422 145.395 24.254C145.575 24.074 145.665 23.816 145.665 23.48C145.665 23.18 145.569 22.94 145.377 22.76C145.185 22.58 144.933 22.436 144.621 22.328C144.309 22.208 143.973 22.1 143.613 22.004C143.229 21.896 142.839 21.776 142.443 21.644C142.059 21.512 141.711 21.344 141.399 21.14C141.087 20.924 140.829 20.648 140.625 20.312C140.433 19.976 140.337 19.562 140.337 19.07C140.337 18.506 140.493 18.02 140.805 17.612C141.129 17.204 141.543 16.886 142.047 16.658C142.563 16.43 143.121 16.316 143.721 16.316C144.069 16.316 144.435 16.364 144.819 16.46C145.203 16.544 145.575 16.682 145.935 16.874C146.295 17.066 146.607 17.318 146.871 17.63C146.991 17.786 147.057 17.972 147.069 18.188C147.093 18.404 146.997 18.596 146.781 18.764C146.637 18.884 146.463 18.938 146.259 18.926C146.055 18.914 145.887 18.848 145.755 18.728C145.527 18.44 145.233 18.218 144.873 18.062C144.513 17.894 144.105 17.81 143.649 17.81C143.421 17.81 143.181 17.846 142.929 17.918C142.689 17.978 142.485 18.092 142.317 18.26C142.149 18.428 142.065 18.674 142.065 18.998C142.065 19.298 142.161 19.538 142.353 19.718C142.557 19.898 142.821 20.048 143.145 20.168C143.469 20.288 143.823 20.396 144.207 20.492C144.579 20.588 144.945 20.702 145.305 20.834C145.677 20.966 146.007 21.14 146.295 21.356C146.595 21.56 146.835 21.83 147.015 22.166C147.207 22.49 147.303 22.904 147.303 23.408C147.303 23.996 147.129 24.5 146.781 24.92C146.445 25.328 146.013 25.64 145.485 25.856C144.969 26.072 144.423 26.18 143.847 26.18C143.163 26.18 142.479 26.06 141.795 25.82C141.123 25.568 140.553 25.136 140.085 24.524Z" fill="#6C7693"/>
<rect x="10" y="39" width="145" height="118" rx="10" fill="#FAFAFC"/>
<rect x="10" y="39" width="145" height="118" rx="10" fill="#FFB68C" fill-opacity="0.5"/>
<g filter="url(#filter2_d_246_2)">
<path d="M46.3167 92.5896C46.3167 92.5896 44.4649 89.4516 46.2732 88.0454C48.5878 86.2437 50.5607 85.3874 50.5607 85.3874L49.1564 80.9575L41.1716 79.8558C41.1716 79.8558 38.4965 77.0096 40.0158 73.4655C41.8147 69.264 46.3167 66.8322 49.4485 65.4915C53.0494 63.948 57.8279 64.4998 59.6517 66.0054C63.0817 68.8346 62.7399 73.5522 62.7399 73.5522L67.1984 73.8103C67.1984 73.8103 70.1407 68.8622 72.8592 67.4626C75.8605 65.9187 79.6945 65.9886 82.5498 67.6359C84.7806 68.9216 88.4623 72.7214 87.2661 76.8107C86.0233 81.0567 81.0491 82.9429 81.0491 82.9429L71.9178 81.7843C71.9178 81.7843 70.6719 84.0573 70.7993 84.4441C70.9298 84.8291 72.9027 86.1592 71.486 90.0183C70.0723 93.8771 76.4198 89.3755 76.4198 89.3755L82.5933 84.7446L89.152 78.6969L90.3109 70.2069L84.7805 63.5186L75.5188 61.2033L65.9991 65.8342L63.1687 62.104L56.2216 59.5309L45.9314 62.104L39.2422 68.5345L35.896 76.3816L39.6274 79.8558L44.1294 81.6554L40.7863 87.8298L46.3167 92.5896" fill="#95C250"/>
<path d="M91.9834 68.1495C88.4831 63.4826 87.4786 63.9036 87.4786 63.9036L89.2805 73.5522L84.9075 81.7841L76.6731 83.199L73.4585 90.661L60.465 97.0935L51.5902 96.4486L44.1281 92.7185L40.7848 87.8297L44.1281 81.6551L46.3162 79.4689L37.6989 78.5679L33.8407 74.4529C33.8407 74.8378 33.0684 79.3398 33.0684 79.3398C33.0684 79.3398 32.3024 81.2768 35.8969 83.9706C38.4711 85.9013 41.0422 85.9013 41.0422 85.9013C41.0422 85.9013 38.9828 85.6432 38.7254 88.9884C38.4711 92.3337 37.3347 95.4905 38.7254 97.4783C40.5274 100.052 45.3179 104.114 52.7486 104.811C60.983 105.583 68.4419 105.583 73.8446 101.079C79.7936 96.1206 80.1483 91.5617 80.1483 91.5617C80.1483 91.5617 83.6926 91.5661 86.835 90.145C90.825 88.3455 93.6536 84.3577 94.429 81.2705C95.1981 78.183 95.5842 72.9517 91.9834 68.1495" fill="#95C250"/>
<path d="M87.7783 74.0661C87.4366 77.5824 86.1511 79.4686 84.0912 80.4117C79.8617 82.3508 74.7449 79.0839 74.7449 79.0839L71.9169 81.784C71.9169 81.784 74.7449 83.8435 72.9453 87.7028C71.5752 90.6337 65.9975 95.2918 58.1498 95.1629C50.5656 95.0381 43.6146 92.2044 43.6146 87.9586C43.6146 83.4059 49.1578 80.9572 49.1578 80.9572L47.6152 77.8702C47.6152 77.8702 40.7207 79.3397 38.9838 77.4112C37.25 75.4808 38.2125 70.5938 41.6864 67.5068C45.1603 64.4195 51.5594 60.0257 57.7673 61.7172C63.4234 63.2607 63.3387 67.8915 63.3387 67.8915L67.4867 68.0291C67.4867 68.0291 71.9012 62.4806 78.733 63.2607C83.2353 63.7745 88.3176 68.564 87.7783 74.0661V74.0661ZM84.8531 61.8545C74.2402 57.2237 66.9098 63.3983 66.9098 63.3983C66.9098 63.3983 62.9907 58.9324 58.41 58.2451C53.265 57.4732 47.2265 58.3825 42.0187 63.0133C38.2689 66.3458 31.7914 72.8522 34.494 77.483C37.1967 82.1141 42.0187 81.7291 42.0187 81.7291C42.0187 81.7291 34.0144 90.7243 43.1757 95.6216C53.3905 101.079 66.8848 98.9773 71.5407 96.3935C76.7484 93.4987 77.7109 86.7449 77.7109 86.7449C77.7109 86.7449 85.5523 88.7725 89.9229 82.2132C94.1712 75.8467 94.9331 66.2549 84.8531 61.8545" fill="#ADD664"/>
<path d="M50.5622 85.3874C50.5622 85.3874 53.907 84.0151 54.5083 83.072C55.1067 82.1267 53.3086 77.9253 53.3086 77.9253L49.9609 78.6124L49.1572 80.9576L47.7319 82.6427L48.6773 83.2432L47.7319 84.9581L49.3624 84.1862L48.5038 85.73L50.5622 85.3874" fill="#D6A374"/>
<path d="M53.3047 77.9252C52.8752 76.8108 47.6117 77.8702 47.6117 77.8702L45.8447 79.0416L47.2139 79.2976L46.1878 80.2405C46.1878 80.2405 47.3869 80.4988 47.6434 80.4988C47.9029 80.4988 46.7008 81.4417 46.7008 81.4417L49.1568 80.9574C49.1568 80.9574 53.7342 79.0416 53.3047 77.9252" fill="#F2B981"/>
<path d="M69.5134 78.2678C69.5134 78.2678 67.7983 80.5855 68.0562 81.613C68.3141 82.6429 70.3739 83.9286 70.7996 84.4443C71.2284 84.9582 72.5146 85.6433 72.5146 85.6433L71.915 83.844L72.6016 84.4443L71.831 82.556L72.6016 83.2435V81.6997L69.5134 78.2678Z" fill="#D6A374"/>
<path d="M75.5195 81.7L74.9183 80.4989L76.2898 81.0127L74.7461 79.0842C74.7461 79.0842 71.8309 76.9822 69.9429 77.8408C68.0548 78.6972 71.9155 81.7843 71.9155 81.7843L73.716 83.5859L72.9456 81.9555L74.8307 82.6428C74.8307 82.6428 74.0604 81.4417 73.8036 81.3571C73.5438 81.2707 75.5195 81.7 75.5195 81.7" fill="#F2B981"/>
<path d="M62.9747 69.0505C62.9747 69.0505 62.5266 73.6159 62.589 74.1952C62.6542 74.7748 63.2982 76.3182 64.5209 76.1891C65.7406 76.0603 66.7911 74.7748 67.1977 73.8103C67.6072 72.844 67.4796 68.2786 67.4796 68.2786L62.9747 69.0505" fill="#D6A374"/>
<path d="M66.5977 67.2913L66.3395 66.0923L65.654 67.3779L65.3127 65.8344L64.7963 67.12L64.1107 65.7477L63.3391 67.892C63.3391 67.892 62.054 70.979 64.7102 71.1503C67.3693 71.3215 67.4851 68.0294 67.4851 68.0294L67.6275 66.0056L66.5977 67.2913" fill="#F2B981"/>
<path d="M86.4734 86.9646C86.4734 86.9646 86.2703 83.3278 88.5187 82.9049C91.4038 82.3655 93.5506 82.5074 93.5506 82.5074L94.3295 77.9272L87.7365 73.288C87.7365 73.288 86.6631 69.5324 89.6362 67.0797C93.1646 64.1699 98.2778 64.0707 101.678 64.3138C105.585 64.5929 109.578 67.2741 110.512 69.448C112.263 73.5352 109.794 77.5699 109.794 77.5699L113.641 79.8431C113.641 79.8431 118.524 76.7918 121.582 76.7958C124.954 76.8002 128.334 78.6186 130.115 81.3886C131.507 83.554 133.041 88.6205 130.102 91.7057C127.051 94.9091 121.768 94.3063 121.768 94.3063L114.18 89.0919C114.18 89.0919 112.033 90.5425 111.968 90.9445C111.907 91.3461 113.052 93.431 110.025 96.2138C106.997 98.9946 114.701 97.9011 114.701 97.9011L122.313 96.6154L130.914 94.2474L135.834 87.2332L133.986 78.7517L126.81 72.4506L116.232 72.2031L115.426 67.5914L110.428 62.1209L100.103 59.6913L91.2108 62.3431L84.6415 67.7837L86.365 72.5817L89.5414 76.2439L83.7407 80.2003L86.4734 86.9646Z" fill="#95C250"/>
<path d="M138.262 86.1699C137.291 80.4181 136.208 80.3336 136.208 80.3336L133.387 89.735L125.727 95.0465L117.761 92.5323L111.485 97.6899L96.9869 97.4507L89.3955 92.8114L84.472 86.0766L83.7394 80.2004L89.542 76.2442L92.4893 75.3032L85.2386 70.5538L83.6951 65.126C83.5214 65.4684 80.7683 69.1159 80.7683 69.1159C80.7683 69.1159 79.2044 70.4863 81.1635 74.5294C82.5673 77.4242 84.8536 78.6041 84.8536 78.6041C84.8536 78.6041 83.1432 77.4303 81.3816 80.2849C79.6201 83.1419 77.1634 85.4275 77.4905 87.832C77.9096 90.9445 80.3049 96.7509 86.5913 100.775C93.5557 105.234 100.186 108.654 107.052 107.127C114.613 105.446 117.015 101.555 117.015 101.555C117.015 101.555 120.163 103.183 123.611 103.363C127.979 103.589 132.324 101.341 134.423 98.9523C136.525 96.5607 139.264 92.0884 138.262 86.1699" fill="#95C250"/>
<path d="M131.817 89.5043C129.9 92.471 127.895 93.558 125.632 93.4543C120.985 93.2387 117.935 87.9881 117.935 87.9881L114.181 89.0919C114.181 89.0919 115.751 92.2194 112.384 94.8247C109.824 96.8015 102.729 98.3855 95.8151 94.6744C89.1309 91.0883 84.2503 85.3853 86.1977 81.6109C88.2821 77.5637 94.3297 77.9272 94.3297 77.9272L94.3742 74.4762C94.3742 74.4762 87.5736 72.6239 86.9165 70.1138C86.2559 67.6041 89.3533 63.7007 93.854 62.5483C98.3581 61.3956 106.059 60.4253 110.799 64.7726C115.122 68.7373 112.924 72.8142 112.924 72.8142L116.549 74.838C116.549 74.838 123.014 71.9281 128.73 75.7535C132.495 78.2739 134.815 84.8589 131.817 89.5043V89.5043ZM134.812 77.3077C127.501 68.3293 118.154 70.4564 118.154 70.4564C118.154 70.4564 116.723 64.6922 112.962 61.9795C108.742 58.9365 102.961 56.9784 96.2121 58.7082C91.3487 59.9516 82.6109 62.766 82.8881 68.1199C83.1688 73.4741 87.6318 75.3411 87.6318 75.3411C87.6318 75.3411 76.3955 79.6676 82.296 88.2188C88.8742 97.7534 101.832 102.069 107.151 101.904C113.109 101.718 117.059 96.1588 117.059 96.1588C117.059 96.1588 123.096 101.553 129.989 97.7277C136.68 94.0125 141.756 85.8377 134.812 77.3077Z" fill="#ADD664"/>
<path d="M93.5492 82.5075C93.5492 82.5075 97.1516 82.8203 98.1162 82.2579C99.0809 81.6956 99.4066 77.1343 99.4066 77.1343L96.1205 76.2124L94.3304 77.9275L92.2905 78.771L92.8534 79.7376L91.231 80.8306L93.0306 80.8901L91.563 81.8689L93.5492 82.5075" fill="#D6A374"/>
<path d="M99.408 77.1345C99.5378 75.9482 94.3748 74.4765 94.3748 74.4765L92.2647 74.7072L93.3657 75.5635L92.018 75.9315C92.018 75.9315 92.9671 76.7094 93.1948 76.828C93.4258 76.9463 91.9263 77.2339 91.9263 77.2339L94.3306 77.9273C94.3306 77.9273 99.2783 78.3228 99.408 77.1345" fill="#F2B981"/>
<path d="M113.655 84.8672C113.655 84.8672 111.068 86.1405 110.827 87.1721C110.583 88.204 111.824 90.291 111.967 90.9444C112.114 91.5978 112.944 92.7969 112.944 92.7969L113.234 90.9213L113.57 91.7692L113.746 89.7392L114.12 90.7034L114.827 89.3311L113.655 84.8672" fill="#D6A374"/>
<path d="M117.418 90.6678L117.435 89.3249L118.419 90.4117L117.933 87.9885C117.933 87.9885 116.303 84.7849 114.234 84.6836C112.165 84.58 114.178 89.0924 114.178 89.0924L114.956 91.5198L115.015 89.7161L116.379 91.1922C116.379 91.1922 116.241 89.7712 116.051 89.5767C115.861 89.3819 117.418 90.6678 117.418 90.6678" fill="#F2B981"/>
<path d="M112.071 73.6768C112.071 73.6768 109.578 77.5294 109.369 78.0731C109.16 78.6164 109.026 80.2826 110.173 80.7289C111.317 81.1749 112.839 80.5133 113.643 79.8429C114.447 79.1725 116.426 75.0536 116.426 75.0536L112.071 73.6768" fill="#D6A374"/>
<path d="M116.095 73.7745L116.416 72.5905L115.218 73.4192L115.62 71.8904L114.573 72.7974L114.592 71.2624L112.922 72.8145C112.922 72.8145 110.365 74.9693 112.65 76.3393C114.933 77.7119 116.547 74.838 116.547 74.838L117.598 73.1023L116.095 73.7745Z" fill="#F2B981"/>
</g>
<g filter="url(#filter3_d_246_2)">
<path d="M63.6246 132.232C63.6246 132.232 60.679 131.127 61.0306 129.219C61.4798 126.775 62.2463 125.146 62.2463 125.146L58.8547 122.938L53.1728 126.477C53.1728 126.477 49.8703 126.007 48.8314 122.825C47.5985 119.054 49.0777 115.018 50.3051 112.445C51.7151 109.485 55.0546 107.295 57.0606 107.325C60.8319 107.379 63.2796 110.715 63.2796 110.715L66.2505 108.5C66.2505 108.5 65.3204 103.618 66.2526 101.227C67.2824 98.5879 69.7513 96.5817 72.4909 96.1538C74.6305 95.8185 79.1095 96.3866 80.661 99.7602C82.2715 103.263 80.1848 107.187 80.1848 107.187L73.7444 111.303C73.7444 111.303 74.2387 113.489 74.5379 113.679C74.838 113.867 76.8393 113.699 78.121 117.037C79.4046 120.373 80.8843 113.965 80.8843 113.965L82.1808 107.565L82.9213 100.011L78.8608 93.7163L71.5791 92.2075L64.4028 95.6195L60.986 103.812L57.0858 102.834L51.2305 104.835L46.1633 112.064L45.5563 119.944L47.8678 126.98L52.1944 127.304L56.0633 126.096L57.4321 132.013L63.6246 132.232" fill="#95C250"/>
<path d="M78.7585 91.4457C73.9049 90.2009 73.5061 91.0202 73.5061 91.0202L80.0971 96.5038L81.9751 104.347L77.5565 109.702L79.7338 116.41L75.1332 127.667L69.1455 131.988L62.3105 133.49L57.431 132.013L56.0623 126.096L56.214 123.464L50.2448 127.476L45.4761 126.791C45.6934 127.049 47.7467 130.471 47.7467 130.471C47.7467 130.471 48.3552 132.176 52.1542 132.051C54.8758 131.963 56.5049 130.587 56.5049 130.587C56.5049 130.587 55.0543 131.517 56.7804 133.89C58.5086 136.262 59.5713 138.981 61.5752 139.565C64.1703 140.319 69.5001 140.469 74.6026 136.957C80.2562 133.063 84.9826 129.069 85.8624 123.166C86.8314 116.667 84.4815 113.43 84.4815 113.43C84.4815 113.43 86.7298 111.535 87.9184 108.903C89.4304 105.564 88.9706 101.384 87.7184 98.9054C86.462 96.4301 83.7522 92.7271 78.7585 91.4457" fill="#95C250"/>
<path d="M79.4353 97.6515C81.2045 100.184 81.4553 102.133 80.6826 103.867C79.0978 107.427 74.0104 107.984 74.0104 107.984L73.7433 111.303C73.7433 111.303 76.6985 111.165 77.7377 114.708C78.5248 117.4 77.6212 123.5 72.5757 127.616C67.6994 131.594 61.6946 133.422 59.2967 130.584C56.7255 127.541 58.855 122.937 58.855 122.937L56.1341 121.7C56.1341 121.7 52.5953 126.373 50.4056 126.015C48.2167 125.653 46.0666 121.871 46.5245 117.948C46.9821 114.024 48.5555 107.661 53.4444 105.468C57.9001 103.471 60.4618 106.611 60.4618 106.611L63.1679 104.482C63.1679 104.482 62.8316 98.41 67.6011 95.2732C70.7442 93.2059 76.6696 93.6855 79.4353 97.6515V97.6515ZM70.685 91.0564C61.3447 93.6442 60.1871 101.696 60.1871 101.696C60.1871 101.696 55.1815 100.81 51.8908 102.803C48.1947 105.042 44.8819 108.883 44.1973 114.767C43.7033 119.002 43.2733 126.819 47.6012 128.467C51.9292 130.115 54.7673 127.275 54.7673 127.275C54.7673 127.275 54.7754 137.573 63.3463 135.941C72.9012 134.118 80.2649 125.488 81.7559 121.268C83.4209 116.545 80.2165 111.516 80.2165 111.516C80.2165 111.516 86.3303 108.672 85.3953 101.948C84.4917 95.4184 79.5574 88.5999 70.685 91.0564" fill="#ADD664"/>
<path d="M62.2469 125.146C62.2469 125.146 63.5913 122.438 63.4397 121.485C63.285 120.533 59.7728 118.688 59.7728 118.688L58.0396 120.94L58.8548 122.937L58.9034 124.827L59.8415 124.722L60.211 126.374L60.8083 124.985L61.1361 126.477L62.2469 125.146" fill="#D6A374"/>
<path d="M59.7709 118.69C58.8694 118.175 56.1324 121.701 56.1324 121.701L55.6744 123.43L56.6865 122.868L56.5688 124.048C56.5688 124.048 57.4745 123.578 57.637 123.441C57.8014 123.302 57.5723 124.576 57.5723 124.576L58.855 122.937C58.855 122.937 60.6736 119.206 59.7709 118.69" fill="#F2B981"/>
<path d="M70.2346 110.24C70.2346 110.24 70.4568 112.707 71.2005 113.256C71.9456 113.806 73.9769 113.562 74.5379 113.679C75.0998 113.793 76.3018 113.562 76.3018 113.562L74.9057 112.681L75.6797 112.714L74.125 111.865L75.0016 111.911L74.1297 110.88L70.2346 110.24Z" fill="#D6A374"/>
<path d="M75.9787 109.318L74.9194 108.837L76.0787 108.446L74.0113 107.983C74.0113 107.983 70.977 108.14 70.2655 109.724C69.5528 111.308 73.7426 111.304 73.7426 111.304L75.901 111.544L74.4921 110.867L76.0747 110.317C76.0747 110.317 74.9083 109.926 74.6978 110.007C74.4844 110.089 75.9787 109.318 75.9787 109.318" fill="#F2B981"/>
<path d="M60.8861 107.581C60.8861 107.581 63.1805 110.872 63.5472 111.225C63.9159 111.578 65.1956 112.265 65.8975 111.524C66.5976 110.784 66.5372 109.363 66.2501 108.5C65.9639 107.635 63.3047 104.652 63.3047 104.652L60.8861 107.581" fill="#D6A374"/>
<path d="M62.1881 104.465L61.3473 103.802L61.639 105.028L60.551 104.179L60.9499 105.315L59.7404 104.765L60.4625 106.611C60.4625 106.611 61.3917 109.362 63.1715 108.055C64.9531 106.745 63.1672 104.483 63.1672 104.483L62.1145 103.054L62.1881 104.465" fill="#F2B981"/>
<path d="M85.8934 106.971C85.8934 106.971 83.7107 104.649 84.8966 103.162C86.4201 101.257 87.8606 100.202 87.8606 100.202L85.7674 96.7241L78.9697 97.1538C78.9697 97.1538 76.1685 95.2186 76.6672 91.9874C77.2597 88.1534 80.4436 85.3492 82.7352 83.6912C85.3689 81.7853 89.413 81.4395 91.233 82.392C94.6506 84.1862 95.365 88.2045 95.365 88.2045L99.0863 87.664C99.0863 87.664 100.457 83.0101 102.397 81.3755C104.537 79.5725 107.705 78.9782 110.398 79.8757C112.503 80.5778 116.336 83.1425 116.216 86.7783C116.092 90.5529 112.404 92.9786 112.404 92.9786L104.651 93.5569C104.651 93.5569 104.11 95.676 104.296 95.9791C104.484 96.2801 106.387 97.0607 106.04 100.542C105.692 104.021 109.956 99.1652 109.956 99.1652L114.054 94.2299L118.167 88.0418L117.323 80.7194L111.361 76.041L103.256 75.6719L96.413 81.1708L93.2978 78.5202L87.0412 77.5404L79.1268 81.445L74.9899 87.9786L73.8999 95.1324L77.7017 97.4161L81.7827 98.1629L80.3416 103.913L85.8934 106.971Z" fill="#95C250"/>
<path d="M118.261 78.7085C114.397 75.3844 113.663 75.9081 113.663 75.9081L117.185 83.7019L115.331 91.3532L108.863 93.9384L107.799 100.746L98.4776 108.349L91.0472 109.313L84.1238 107.449L80.341 103.914L81.7835 98.1626L83.1196 95.9555L75.8429 96.6638L71.7994 93.8627C71.8827 94.1846 72.1982 98.0965 72.1982 98.0965C72.1982 98.0965 71.9812 99.8498 75.506 101.503C78.0304 102.686 80.1455 102.25 80.1455 102.25C80.1455 102.25 78.3987 102.382 78.8947 105.233C79.392 108.085 79.1261 110.928 80.6914 112.36C82.7148 114.216 87.5118 116.814 93.7678 116.137C100.699 115.389 106.832 114.123 110.32 109.427C114.162 104.255 113.486 100.368 113.486 100.368C113.486 100.368 116.401 99.7706 118.687 98.0444C121.583 95.8567 123.066 92.0281 123.047 89.3075C123.028 86.5835 122.238 82.1276 118.261 78.7085" fill="#95C250"/>
<path d="M116.06 84.3884C116.521 87.3974 115.864 89.1978 114.372 90.3398C111.305 92.6844 106.407 90.8082 106.407 90.8082L104.651 93.5563C104.651 93.5563 107.413 94.8053 106.751 98.3498C106.245 101.042 102.644 105.899 96.167 107.121C89.9061 108.304 83.5927 107.105 82.6951 103.54C81.7301 99.7192 85.7675 96.7238 85.7675 96.7238L83.8467 94.3936C83.8467 94.3936 78.4914 96.7971 76.6574 95.4714C74.8214 94.1477 74.5796 89.8804 76.7806 86.7003C78.9837 83.5182 83.3153 78.7463 88.7741 79.1136C93.7523 79.4487 94.6625 83.35 94.6625 83.35L98.1021 82.7618C98.1021 82.7618 100.555 77.3552 106.338 76.8513C110.147 76.5198 115.336 79.6783 116.06 84.3884V84.3884ZM111.069 74.6334C101.366 72.5474 96.6447 78.9739 96.6447 78.9739C96.6447 78.9739 92.4828 75.8875 88.5673 76.0886C84.1747 76.3145 79.4059 78.1012 76.1061 82.8712C73.7266 86.3064 69.7793 92.866 72.9787 96.2958C76.1804 99.7239 80.0628 98.5819 80.0628 98.5819C80.0628 98.5819 75.3864 107.49 83.9546 110.046C93.5077 112.896 104.156 108.841 107.433 105.883C111.103 102.568 110.466 96.7381 110.466 96.7381C110.466 96.7381 117.339 97.1105 119.546 90.8629C121.688 84.7972 120.287 76.6159 111.069 74.6334Z" fill="#ADD664"/>
<path d="M87.8594 100.203C87.8594 100.203 90.3188 98.4833 90.6124 97.5909C90.9061 96.6986 88.5364 93.4757 88.5364 93.4757L85.9335 94.6191L85.7679 96.7239L84.9516 98.3799L85.8542 98.7245L85.4434 100.324L86.6173 99.3999L86.2403 100.84L87.8594 100.203" fill="#D6A374"/>
<path d="M88.5372 93.475C87.9494 92.6127 83.8468 94.3936 83.8468 94.3936L82.64 95.6776L83.8212 95.6605L83.175 96.628C83.175 96.628 84.2158 96.6397 84.4271 96.597C84.6402 96.5525 83.8525 97.5476 83.8525 97.5476L85.7676 96.7236C85.7676 96.7236 89.1261 94.3386 88.5372 93.475" fill="#F2B981"/>
<path d="M101.932 91.0146C101.932 91.0146 101.012 93.2505 101.442 94.069C101.87 94.8895 103.835 95.6197 104.295 95.9797C104.757 96.3379 105.96 96.6945 105.96 96.6945L105.085 95.2858L105.776 95.6728L104.741 94.2219L105.523 94.6657L105.196 93.3701L101.932 91.0146" fill="#D6A374"/>
<path d="M107.593 92.8756L106.845 91.9693L108.082 92.1689L106.406 90.8093C106.406 90.8093 103.564 89.5409 102.196 90.5812C100.826 91.62 104.65 93.5576 104.65 93.5576L106.514 94.7638L105.532 93.5267L107.23 93.7827C107.23 93.7827 106.341 92.9068 106.11 92.8787C105.88 92.8503 107.593 92.8756 107.593 92.8756" fill="#F2B981"/>
<path d="M94.6087 84.3836C94.6087 84.3836 95.2049 88.2932 95.3795 88.7685C95.5538 89.2436 96.41 90.4289 97.3887 90.1132C98.3651 89.7989 98.9562 88.5415 99.0869 87.6631C99.2175 86.7847 98.1459 82.9717 98.1459 82.9717L94.6087 84.3836" fill="#D6A374"/>
<path d="M97.2137 82.294L96.7483 81.3309L96.457 82.5264L95.8488 81.2891L95.6971 82.4563L94.8426 81.4199L94.661 83.3513C94.661 83.3513 94.2576 86.1608 96.4795 85.8526C98.7008 85.5479 98.1006 82.7628 98.1006 82.7628L97.7864 81.04L97.2137 82.294Z" fill="#F2B981"/>
</g>
<defs>
<filter id="filter0_d_246_2" x="18" y="53" width="127.335" height="64" filterUnits="userSpaceOnUse" color-interpolation-filters="sRGB">
<feFlood flood-opacity="0" result="BackgroundImageFix"/>
<feColorMatrix in="SourceAlpha" type="matrix" values="0 0 0 0 0 0 0 0 0 0 0 0 0 0 0 0 0 0 127 0" result="hardAlpha"/>
<feOffset dy="4"/>
<feGaussianBlur stdDeviation="2"/>
<feComposite in2="hardAlpha" operator="out"/>
<feColorMatrix type="matrix" values="0 0 0 0 0 0 0 0 0 0 0 0 0 0 0 0 0 0 0.25 0"/>
<feBlend mode="normal" in2="BackgroundImageFix" result="effect1_dropShadow_246_2"/>
<feBlend mode="normal" in="SourceGraphic" in2="effect1_dropShadow_246_2" result="shape"/>
</filter>
<filter id="filter1_d_246_2" x="30.3281" y="71.3477" width="97.5508" height="82.4321" filterUnits="userSpaceOnUse" color-interpolation-filters="sRGB">
<feFlood flood-opacity="0" result="BackgroundImageFix"/>
<feColorMatrix in="SourceAlpha" type="matrix" values="0 0 0 0 0 0 0 0 0 0 0 0 0 0 0 0 0 0 127 0" result="hardAlpha"/>
<feOffset dy="4"/>
<feGaussianBlur stdDeviation="2"/>
<feComposite in2="hardAlpha" operator="out"/>
<feColorMatrix type="matrix" values="0 0 0 0 0 0 0 0 0 0 0 0 0 0 0 0 0 0 0.25 0"/>
<feBlend mode="normal" in2="BackgroundImageFix" result="effect1_dropShadow_246_2"/>
<feBlend mode="normal" in="SourceGraphic" in2="effect1_dropShadow_246_2" result="shape"/>
</filter>
<filter id="filter2_d_246_2" x="29" y="58" width="113.476" height="57.4963" filterUnits="userSpaceOnUse" color-interpolation-filters="sRGB">
<feFlood flood-opacity="0" result="BackgroundImageFix"/>
<feColorMatrix in="SourceAlpha" type="matrix" values="0 0 0 0 0 0 0 0 0 0 0 0 0 0 0 0 0 0 127 0" result="hardAlpha"/>
<feOffset dy="4"/>
<feGaussianBlur stdDeviation="2"/>
<feComposite in2="hardAlpha" operator="out"/>
<feColorMatrix type="matrix" values="0 0 0 0 0 0 0 0 0 0 0 0 0 0 0 0 0 0 0.25 0"/>
<feBlend mode="normal" in2="BackgroundImageFix" result="effect1_dropShadow_246_2"/>
<feBlend mode="normal" in="SourceGraphic" in2="effect1_dropShadow_246_2" result="shape"/>
</filter>
<filter id="filter3_d_246_2" x="39.896" y="74.2168" width="87.1509" height="73.7878" filterUnits="userSpaceOnUse" color-interpolation-filters="sRGB">
<feFlood flood-opacity="0" result="BackgroundImageFix"/>
<feColorMatrix in="SourceAlpha" type="matrix" values="0 0 0 0 0 0 0 0 0 0 0 0 0 0 0 0 0 0 127 0" result="hardAlpha"/>
<feOffset dy="4"/>
<feGaussianBlur stdDeviation="2"/>
<feComposite in2="hardAlpha" operator="out"/>
<feColorMatrix type="matrix" values="0 0 0 0 0 0 0 0 0 0 0 0 0 0 0 0 0 0 0.25 0"/>
<feBlend mode="normal" in2="BackgroundImageFix" result="effect1_dropShadow_246_2"/>
<feBlend mode="normal" in="SourceGraphic" in2="effect1_dropShadow_246_2" result="shape"/>
</filter>
</defs>
</svg>
