<svg width="165" height="165" viewBox="0 0 165 165" fill="none" xmlns="http://www.w3.org/2000/svg">
<path d="M165 155C165 160.523 160.523 165 155 165L10 165C4.47716 165 3.70928e-06 160.523 3.87334e-06 155L8.18078e-06 9.99999C8.34485e-06 4.47715 4.47716 -2.94834e-06 10 -1.94459e-06L155 2.44086e-05C160.523 2.54123e-05 165 4.47718 165 10L165 155Z" fill="white"/>
<path d="M155 164.5L10 164.5C4.7533 164.5 0.5 160.247 0.5 155L0.500005 10C0.500005 4.7533 4.7533 0.500001 10 0.500002L155 0.500029C160.247 0.50003 164.5 4.75333 164.5 10L164.5 155C164.5 160.247 160.247 164.5 155 164.5Z" stroke="#8F9BBA" stroke-opacity="0.2"/>
<path d="M38.394 13.382C38.538 13.382 38.688 13.418 38.844 13.49C39 13.562 39.12 13.664 39.204 13.796L43.776 20.762L43.002 20.726L47.664 13.796C47.856 13.52 48.102 13.382 48.402 13.382C48.642 13.382 48.852 13.472 49.032 13.652C49.224 13.82 49.32 14.036 49.32 14.3V25.082C49.32 25.346 49.236 25.568 49.068 25.748C48.9 25.916 48.678 26 48.402 26C48.114 26 47.88 25.916 47.7 25.748C47.532 25.568 47.448 25.346 47.448 25.082V15.956L48.024 16.082L44.064 22.112C43.98 22.22 43.872 22.316 43.74 22.4C43.608 22.472 43.47 22.502 43.326 22.49C43.194 22.502 43.056 22.472 42.912 22.4C42.78 22.316 42.672 22.22 42.588 22.112L38.772 16.172L39.204 15.452V25.082C39.204 25.346 39.12 25.568 38.952 25.748C38.796 25.916 38.586 26 38.322 26C38.07 26 37.86 25.916 37.692 25.748C37.536 25.568 37.458 25.346 37.458 25.082V14.3C37.458 14.048 37.548 13.832 37.728 13.652C37.92 13.472 38.142 13.382 38.394 13.382ZM58.7568 16.532C59.0088 16.532 59.2188 16.622 59.3868 16.802C59.5668 16.97 59.6568 17.186 59.6568 17.45V22.184C59.6568 23.432 59.3088 24.41 58.6128 25.118C57.9168 25.814 56.9328 26.162 55.6608 26.162C54.4008 26.162 53.4228 25.814 52.7268 25.118C52.0428 24.41 51.7008 23.432 51.7008 22.184V17.45C51.7008 17.186 51.7848 16.97 51.9528 16.802C52.1208 16.622 52.3368 16.532 52.6008 16.532C52.8528 16.532 53.0628 16.622 53.2308 16.802C53.4108 16.97 53.5008 17.186 53.5008 17.45V22.184C53.5008 22.964 53.6808 23.546 54.0408 23.93C54.4128 24.314 54.9528 24.506 55.6608 24.506C56.3808 24.506 56.9268 24.314 57.2988 23.93C57.6708 23.546 57.8568 22.964 57.8568 22.184V17.45C57.8568 17.186 57.9408 16.97 58.1088 16.802C58.2768 16.622 58.4928 16.532 58.7568 16.532ZM61.2418 24.524C61.1338 24.356 61.0858 24.164 61.0978 23.948C61.1098 23.72 61.2358 23.528 61.4758 23.372C61.6438 23.264 61.8178 23.222 61.9978 23.246C62.1898 23.258 62.3698 23.348 62.5378 23.516C62.8738 23.888 63.2458 24.182 63.6538 24.398C64.0738 24.614 64.5778 24.722 65.1658 24.722C65.4058 24.71 65.6518 24.674 65.9038 24.614C66.1558 24.542 66.3718 24.422 66.5518 24.254C66.7318 24.074 66.8218 23.816 66.8218 23.48C66.8218 23.18 66.7258 22.94 66.5338 22.76C66.3418 22.58 66.0898 22.436 65.7778 22.328C65.4658 22.208 65.1298 22.1 64.7698 22.004C64.3858 21.896 63.9958 21.776 63.5998 21.644C63.2158 21.512 62.8678 21.344 62.5558 21.14C62.2438 20.924 61.9858 20.648 61.7818 20.312C61.5898 19.976 61.4938 19.562 61.4938 19.07C61.4938 18.506 61.6498 18.02 61.9618 17.612C62.2858 17.204 62.6998 16.886 63.2038 16.658C63.7198 16.43 64.2778 16.316 64.8778 16.316C65.2258 16.316 65.5918 16.364 65.9758 16.46C66.3598 16.544 66.7318 16.682 67.0918 16.874C67.4518 17.066 67.7638 17.318 68.0278 17.63C68.1478 17.786 68.2138 17.972 68.2258 18.188C68.2498 18.404 68.1538 18.596 67.9378 18.764C67.7938 18.884 67.6198 18.938 67.4158 18.926C67.2118 18.914 67.0438 18.848 66.9118 18.728C66.6838 18.44 66.3898 18.218 66.0298 18.062C65.6698 17.894 65.2618 17.81 64.8058 17.81C64.5778 17.81 64.3378 17.846 64.0858 17.918C63.8458 17.978 63.6418 18.092 63.4738 18.26C63.3058 18.428 63.2218 18.674 63.2218 18.998C63.2218 19.298 63.3178 19.538 63.5098 19.718C63.7138 19.898 63.9778 20.048 64.3018 20.168C64.6258 20.288 64.9798 20.396 65.3638 20.492C65.7358 20.588 66.1018 20.702 66.4618 20.834C66.8338 20.966 67.1638 21.14 67.4518 21.356C67.7518 21.56 67.9918 21.83 68.1718 22.166C68.3638 22.49 68.4598 22.904 68.4598 23.408C68.4598 23.996 68.2858 24.5 67.9378 24.92C67.6018 25.328 67.1698 25.64 66.6418 25.856C66.1258 26.072 65.5798 26.18 65.0038 26.18C64.3198 26.18 63.6358 26.06 62.9518 25.82C62.2798 25.568 61.7098 25.136 61.2418 24.524ZM74.8055 16.37C75.6335 16.37 76.2755 16.55 76.7315 16.91C77.1875 17.258 77.5055 17.732 77.6855 18.332C77.8775 18.932 77.9735 19.592 77.9735 20.312V25.082C77.9735 25.346 77.8835 25.568 77.7035 25.748C77.5355 25.916 77.3255 26 77.0735 26C76.8095 26 76.5935 25.916 76.4255 25.748C76.2575 25.568 76.1735 25.346 76.1735 25.082V20.312C76.1735 19.892 76.1135 19.508 75.9935 19.16C75.8855 18.812 75.6875 18.536 75.3995 18.332C75.1235 18.128 74.7335 18.026 74.2295 18.026C73.7615 18.026 73.3415 18.128 72.9695 18.332C72.6095 18.536 72.3275 18.812 72.1235 19.16C71.9315 19.508 71.8355 19.892 71.8355 20.312V25.082C71.8355 25.346 71.7455 25.568 71.5655 25.748C71.3975 25.916 71.1875 26 70.9355 26C70.6715 26 70.4555 25.916 70.2875 25.748C70.1195 25.568 70.0355 25.346 70.0355 25.082V13.598C70.0355 13.334 70.1195 13.118 70.2875 12.95C70.4555 12.77 70.6715 12.68 70.9355 12.68C71.1875 12.68 71.3975 12.77 71.5655 12.95C71.7455 13.118 71.8355 13.334 71.8355 13.598V18.512L71.5115 18.692C71.5955 18.428 71.7335 18.158 71.9255 17.882C72.1295 17.606 72.3755 17.354 72.6635 17.126C72.9635 16.898 73.2935 16.718 73.6535 16.586C74.0135 16.442 74.3975 16.37 74.8055 16.37ZM81.0169 26C80.7529 26 80.5369 25.916 80.3689 25.748C80.2009 25.568 80.1169 25.346 80.1169 25.082V17.45C80.1169 17.186 80.2009 16.97 80.3689 16.802C80.5369 16.622 80.7529 16.532 81.0169 16.532C81.2689 16.532 81.4789 16.622 81.6469 16.802C81.8269 16.97 81.9169 17.186 81.9169 17.45V19.466L81.7369 18.692C81.8329 18.356 81.9769 18.044 82.1689 17.756C82.3729 17.468 82.6129 17.216 82.8889 17C83.1649 16.784 83.4709 16.616 83.8069 16.496C84.1549 16.376 84.5149 16.316 84.8869 16.316C85.1989 16.316 85.4689 16.4 85.6969 16.568C85.9249 16.736 86.0389 16.946 86.0389 17.198C86.0389 17.522 85.9549 17.762 85.7869 17.918C85.6189 18.062 85.4329 18.134 85.2289 18.134C85.0489 18.134 84.8749 18.098 84.7069 18.026C84.5389 17.942 84.3409 17.9 84.1129 17.9C83.8609 17.9 83.6029 17.966 83.3389 18.098C83.0749 18.23 82.8349 18.428 82.6189 18.692C82.4029 18.944 82.2289 19.244 82.0969 19.592C81.9769 19.94 81.9169 20.33 81.9169 20.762V25.082C81.9169 25.346 81.8269 25.568 81.6469 25.748C81.4789 25.916 81.2689 26 81.0169 26ZM95.948 21.266C95.948 22.226 95.738 23.078 95.318 23.822C94.898 24.554 94.328 25.13 93.608 25.55C92.888 25.97 92.078 26.18 91.178 26.18C90.278 26.18 89.468 25.97 88.748 25.55C88.028 25.13 87.452 24.554 87.02 23.822C86.6 23.078 86.39 22.226 86.39 21.266C86.39 20.294 86.6 19.442 87.02 18.71C87.452 17.966 88.028 17.384 88.748 16.964C89.468 16.532 90.278 16.316 91.178 16.316C92.078 16.316 92.888 16.532 93.608 16.964C94.328 17.384 94.898 17.966 95.318 18.71C95.738 19.442 95.948 20.294 95.948 21.266ZM94.148 21.266C94.148 20.606 94.016 20.036 93.752 19.556C93.488 19.064 93.128 18.68 92.672 18.404C92.228 18.116 91.73 17.972 91.178 17.972C90.626 17.972 90.122 18.116 89.666 18.404C89.21 18.68 88.85 19.064 88.586 19.556C88.322 20.036 88.19 20.606 88.19 21.266C88.19 21.902 88.322 22.466 88.586 22.958C88.85 23.45 89.21 23.834 89.666 24.11C90.122 24.386 90.626 24.524 91.178 24.524C91.73 24.524 92.228 24.386 92.672 24.11C93.128 23.834 93.488 23.45 93.752 22.958C94.016 22.466 94.148 21.902 94.148 21.266ZM106.697 21.266C106.697 22.226 106.487 23.078 106.067 23.822C105.647 24.554 105.077 25.13 104.357 25.55C103.637 25.97 102.827 26.18 101.927 26.18C101.027 26.18 100.217 25.97 99.4974 25.55C98.7774 25.13 98.2014 24.554 97.7694 23.822C97.3494 23.078 97.1394 22.226 97.1394 21.266C97.1394 20.294 97.3494 19.442 97.7694 18.71C98.2014 17.966 98.7774 17.384 99.4974 16.964C100.217 16.532 101.027 16.316 101.927 16.316C102.827 16.316 103.637 16.532 104.357 16.964C105.077 17.384 105.647 17.966 106.067 18.71C106.487 19.442 106.697 20.294 106.697 21.266ZM104.897 21.266C104.897 20.606 104.765 20.036 104.501 19.556C104.237 19.064 103.877 18.68 103.421 18.404C102.977 18.116 102.479 17.972 101.927 17.972C101.375 17.972 100.871 18.116 100.415 18.404C99.9594 18.68 99.5994 19.064 99.3354 19.556C99.0714 20.036 98.9394 20.606 98.9394 21.266C98.9394 21.902 99.0714 22.466 99.3354 22.958C99.5994 23.45 99.9594 23.834 100.415 24.11C100.871 24.386 101.375 24.524 101.927 24.524C102.479 24.524 102.977 24.386 103.421 24.11C103.877 23.834 104.237 23.45 104.501 22.958C104.765 22.466 104.897 21.902 104.897 21.266ZM113.127 16.37C114.015 16.37 114.699 16.592 115.179 17.036C115.659 17.468 115.977 18.056 116.133 18.8L115.845 18.71L115.971 18.422C116.127 18.11 116.361 17.798 116.673 17.486C116.997 17.162 117.381 16.898 117.825 16.694C118.269 16.478 118.743 16.37 119.247 16.37C120.075 16.37 120.717 16.55 121.173 16.91C121.629 17.258 121.947 17.732 122.127 18.332C122.307 18.92 122.397 19.58 122.397 20.312V25.082C122.397 25.346 122.313 25.568 122.145 25.748C121.977 25.916 121.761 26 121.497 26C121.245 26 121.029 25.916 120.849 25.748C120.681 25.568 120.597 25.346 120.597 25.082V20.33C120.597 19.91 120.537 19.526 120.417 19.178C120.309 18.83 120.111 18.554 119.823 18.35C119.547 18.134 119.163 18.026 118.671 18.026C118.203 18.026 117.783 18.134 117.411 18.35C117.051 18.554 116.769 18.83 116.565 19.178C116.361 19.526 116.259 19.91 116.259 20.33V25.082C116.259 25.346 116.175 25.568 116.007 25.748C115.839 25.916 115.623 26 115.359 26C115.095 26 114.879 25.916 114.711 25.748C114.543 25.568 114.459 25.346 114.459 25.082V20.312C114.459 19.892 114.399 19.508 114.279 19.16C114.171 18.812 113.979 18.536 113.703 18.332C113.427 18.128 113.043 18.026 112.551 18.026C112.083 18.026 111.669 18.128 111.309 18.332C110.949 18.536 110.667 18.812 110.463 19.16C110.271 19.508 110.175 19.892 110.175 20.312V25.082C110.175 25.346 110.085 25.568 109.905 25.748C109.737 25.916 109.527 26 109.275 26C109.011 26 108.795 25.916 108.627 25.748C108.459 25.568 108.375 25.346 108.375 25.082V17.45C108.375 17.186 108.459 16.97 108.627 16.802C108.795 16.622 109.011 16.532 109.275 16.532C109.527 16.532 109.737 16.622 109.905 16.802C110.085 16.97 110.175 17.186 110.175 17.45V18.512L109.833 18.71C109.917 18.446 110.055 18.176 110.247 17.9C110.439 17.624 110.679 17.372 110.967 17.144C111.267 16.916 111.597 16.73 111.957 16.586C112.317 16.442 112.707 16.37 113.127 16.37ZM123.998 24.524C123.89 24.356 123.842 24.164 123.854 23.948C123.866 23.72 123.992 23.528 124.232 23.372C124.4 23.264 124.574 23.222 124.754 23.246C124.946 23.258 125.126 23.348 125.294 23.516C125.63 23.888 126.002 24.182 126.41 24.398C126.83 24.614 127.334 24.722 127.922 24.722C128.162 24.71 128.408 24.674 128.66 24.614C128.912 24.542 129.128 24.422 129.308 24.254C129.488 24.074 129.578 23.816 129.578 23.48C129.578 23.18 129.482 22.94 129.29 22.76C129.098 22.58 128.846 22.436 128.534 22.328C128.222 22.208 127.886 22.1 127.526 22.004C127.142 21.896 126.752 21.776 126.356 21.644C125.972 21.512 125.624 21.344 125.312 21.14C125 20.924 124.742 20.648 124.538 20.312C124.346 19.976 124.25 19.562 124.25 19.07C124.25 18.506 124.406 18.02 124.718 17.612C125.042 17.204 125.456 16.886 125.96 16.658C126.476 16.43 127.034 16.316 127.634 16.316C127.982 16.316 128.348 16.364 128.732 16.46C129.116 16.544 129.488 16.682 129.848 16.874C130.208 17.066 130.52 17.318 130.784 17.63C130.904 17.786 130.97 17.972 130.982 18.188C131.006 18.404 130.91 18.596 130.694 18.764C130.55 18.884 130.376 18.938 130.172 18.926C129.968 18.914 129.8 18.848 129.668 18.728C129.44 18.44 129.146 18.218 128.786 18.062C128.426 17.894 128.018 17.81 127.562 17.81C127.334 17.81 127.094 17.846 126.842 17.918C126.602 17.978 126.398 18.092 126.23 18.26C126.062 18.428 125.978 18.674 125.978 18.998C125.978 19.298 126.074 19.538 126.266 19.718C126.47 19.898 126.734 20.048 127.058 20.168C127.382 20.288 127.736 20.396 128.12 20.492C128.492 20.588 128.858 20.702 129.218 20.834C129.59 20.966 129.92 21.14 130.208 21.356C130.508 21.56 130.748 21.83 130.928 22.166C131.12 22.49 131.216 22.904 131.216 23.408C131.216 23.996 131.042 24.5 130.694 24.92C130.358 25.328 129.926 25.64 129.398 25.856C128.882 26.072 128.336 26.18 127.76 26.18C127.076 26.18 126.392 26.06 125.708 25.82C125.036 25.568 124.466 25.136 123.998 24.524Z" fill="#6C7693"/>
<rect x="10" y="39" width="145" height="118" rx="10" fill="#FFB68C" fill-opacity="0.5"/>
<g filter="url(#filter0_d_229_2133)">
<path d="M33.3182 84.2532C35.0168 78.7865 42.5483 77.8079 47.9161 74.8521C51.5655 72.8433 56.2397 70.6702 60.4606 69.7578C62.6913 69.2766 64.8353 68.8411 67.1172 68.8608C68.7094 68.8746 70.3174 69.2809 71.8268 69.2537L77.9434 69.0212C81.5141 72.7317 77.3523 76.2019 73.0683 78.6103C71.279 79.6153 70.4159 79.1786 69.6434 78.742C69.2099 78.4972 68.8 78.2525 68.2719 78.2611C66.5063 78.2903 65.6038 79.1936 65.0599 80.6916C64.3072 82.7473 69.7972 83.2853 71.5904 83.9746C73.3087 84.6355 75.8744 85.4103 76.6232 86.999C77.7188 89.3203 75.232 91.3153 73.2141 92.5055C71.2554 93.6622 68.7015 94.6558 66.057 94.8394C63.5308 95.0152 62.8253 94.4205 60.9888 93.2748C57.9738 91.3933 56.0545 89.8307 52.7558 88.3871C52.7597 88.8352 50.2216 89.5528 49.9812 90.3348C49.7408 91.1167 51.802 91.962 51.6286 92.4101C50.801 94.5143 44.7514 97.3752 39.8683 96.7265C37.5903 96.4242 31.9782 96.5337 29.5702 90.9295C28.6007 88.6755 32.5969 86.5741 33.3182 84.2532" fill="#634E40"/>
<path d="M37.6457 83.5617C40.7345 78.1672 46.8421 74.486 53.2881 72.0597C57.7734 70.3725 63.9316 67.2911 68.8332 68.6978C70.2764 69.1121 72.0192 70.1943 72.7039 71.3392C73.1746 72.1227 73.2096 74.1043 72.4588 74.4338L71.8986 75.2134C70.9416 74.9252 69.4323 74.9995 68.4014 75.4935C68.1407 75.6188 67.4327 76.3003 67.1409 76.489C66.5885 76.843 66.2656 76.8387 65.7638 77.2849C65.4137 77.5954 65.4176 78.1314 64.8885 78.4967C64.375 78.8515 63.5425 78.7908 62.9901 79.2359C61.897 80.1209 62.6711 81.1517 61.4846 81.8967C60.4109 82.5709 58.5203 82.2893 57.6139 83.1046C57.2054 83.475 57.5322 84.0352 57.1043 84.4374C56.6997 84.8202 55.7233 85.0369 55.1709 85.245C53.9572 85.7017 52.6229 85.9732 51.6931 86.7785C51.273 87.1422 51.2263 87.6771 50.6583 88.0187C50.1176 88.3416 49.2189 88.1618 48.6626 88.445C47.9974 88.7831 47.9585 89.2017 47.4256 89.5728C46.7176 90.0676 46.3169 89.9731 45.5349 90.3151C44.9358 90.5765 44.6363 91.0674 43.9906 91.3537C43.3681 91.6276 42.4889 91.551 41.8198 91.7105C39.6297 92.2325 37.8363 93.0475 36.2491 91.1386C34.2301 88.7084 36.288 85.9398 37.6457 83.5617" fill="#8C735B"/>
<path d="M76.2124 86.4974C74.1683 82.4665 59.4839 78.8986 59.8793 77.0344C60.2707 75.1697 66.6363 72.1229 69.827 72.8884C73.0217 73.6534 67.5576 75.8704 70.3569 77.3894C71.5825 78.0564 83.5823 71.2203 75.9594 67.2392C69.3526 63.7899 57.0642 63.3 41.5257 73.2905C28.1065 81.9212 26.7266 88.9867 31.5147 92.4392C39.786 98.4047 50.1489 91.4191 49.8801 90.7667C49.6389 90.1914 48.5595 90.471 47.1797 90.7509C45.2541 91.1419 42.7474 91.5329 41.1501 89.59C39.9086 88.0769 45.3609 83.6763 49.7852 84.6723C52.968 85.3872 63.3033 94.7012 66.3912 93.6779C69.4791 92.6547 77.5765 89.1816 76.2124 86.4974Z" fill="#A28362"/>
<path d="M73.91 68.1326C73.91 68.1326 73.8944 68.1275 73.875 68.1193L73.8711 68.1115C73.9022 68.1263 73.9139 68.1326 73.91 68.1326Z" fill="#BF9E7C"/>
<path d="M39.1822 84.7007C36.2544 84.7007 35.8685 81.7722 37.3967 79.9894C38.8703 78.2682 41.2795 76.7108 43.1703 75.3623C47.6496 72.1734 52.2303 69.8753 57.6764 68.34C60.3781 67.5795 63.9997 66.9709 67.3641 66.9709C69.6837 66.9709 71.8746 67.2594 73.5548 67.9849C73.5977 68.004 73.7927 68.0851 73.8745 68.1174L74.2721 69.5766C74.5606 71.5184 68.1087 71.0308 66.6624 71.1773C63.9023 71.4569 59.9453 71.8756 57.8012 73.4891C54.9709 75.6185 55.5634 78.0172 57.9571 79.8163C59.0604 80.6439 61.0486 81.5356 60.0038 83.0185C59.3917 83.8801 58.0546 84.0902 56.8655 84.0902C56.4874 84.0902 56.1249 84.0688 55.8052 84.0403C52.9242 83.7826 50.4682 81.7379 47.5716 81.7379C47.365 81.7379 47.1584 81.748 46.944 81.7706C44.102 82.07 42.4335 84.3771 39.7084 84.6714C39.5252 84.6909 39.3498 84.7007 39.1822 84.7007" fill="#BF9E7C"/>
<path d="M133.556 98.1855C130.754 91.1314 122.302 91.3509 115.887 88.4497C111.526 86.4778 106.013 84.494 101.209 84.1253C98.678 83.9302 96.2417 83.7811 93.7323 84.2765C91.9835 84.622 90.282 85.5024 88.6191 85.7753L81.8472 86.7155C78.5515 92.4746 83.7249 96.3207 88.8511 98.7029C92.1898 100.254 92.439 97.5157 94.0718 97.2454C96.0183 96.9227 97.1612 97.9617 98.0206 99.8781C99.198 102.508 93.2468 104.364 91.3905 105.665C89.6116 106.913 86.9261 108.49 86.3718 110.794C85.564 114.163 88.6405 116.355 91.0597 117.553C93.4187 118.718 96.3964 119.539 99.3355 119.246C102.146 118.965 102.82 118.015 104.646 116.086C107.646 112.919 109.489 110.408 112.875 107.775C112.944 108.383 115.861 108.834 116.261 109.844C116.656 110.854 114.534 112.422 114.804 112.993C116.072 115.673 123.218 118.306 128.481 116.425C130.935 115.549 137.131 114.545 138.824 106.459C139.503 103.208 134.75 101.181 133.556 98.1855" fill="#634E40"/>
<path d="M128.678 98.1372C124.355 91.464 117.008 87.7314 109.495 85.7685C104.274 84.4035 96.9699 81.4947 91.8166 84.4061C90.3004 85.2638 88.5671 87.0866 88.0092 88.7783C87.6301 89.9359 87.924 92.6275 88.8098 92.9196L89.5594 93.8596C90.5645 93.2731 92.234 93.0644 93.4563 93.5219C93.7629 93.6373 94.6573 94.4158 95.0151 94.6113C95.6795 94.9776 96.0372 94.9056 96.6633 95.4064C97.102 95.7552 97.1871 96.4826 97.8345 96.8681C98.4606 97.2429 99.3677 96.9899 100.049 97.4801C101.403 98.4545 100.726 100.01 102.162 100.775C103.456 101.468 105.492 100.698 106.625 101.617C107.136 102.034 106.876 102.86 107.417 103.317C107.928 103.752 109.035 103.846 109.679 104.014C111.097 104.383 112.609 104.477 113.771 105.377C114.291 105.783 114.436 106.498 115.126 106.844C115.462 107.013 115.88 106.98 116.297 106.946C116.684 106.914 117.072 106.883 117.391 107.012C118.179 107.334 118.294 107.893 118.942 108.286C119.806 108.811 120.232 108.601 121.152 108.903C121.855 109.134 122.268 109.737 123.03 109.993C123.465 110.137 123.976 110.096 124.478 110.055C124.823 110.027 125.164 109.999 125.475 110.031C127.979 110.288 130.091 111.023 131.51 108.112C133.315 104.407 130.581 101.078 128.678 98.1372" fill="#8C735B"/>
<path d="M86.7376 110.031C88.3021 104.151 103.848 96.3046 103.098 93.8601C102.348 91.4155 94.8273 88.5951 91.4397 90.2872C88.0564 91.9797 94.448 93.8601 91.6293 96.4925C90.3924 97.6472 76.0189 90.8513 83.7293 83.8943C90.4097 77.8656 103.848 74.6802 122.652 85.0222C138.9 93.9575 141.624 103.244 136.944 108.903C128.858 118.681 116.26 111.347 116.45 110.407C116.605 109.627 117.713 109.721 119.148 109.814C121.363 109.96 124.367 110.105 125.85 107.022C126.958 104.718 120.208 99.8771 115.51 102.134C112.131 103.755 102.348 118.493 98.7751 117.741C95.2022 116.988 85.6989 113.946 86.7376 110.031" fill="#A28362"/>
<path d="M86.1335 84.6841C86.1296 84.6841 86.1415 84.6729 86.1732 84.6471V84.6579C86.1494 84.6738 86.1335 84.6841 86.1335 84.6841Z" fill="#BF9E7C"/>
<path d="M106.325 102.931C105.413 102.931 104.54 102.699 103.984 101.992C102.585 100.198 104.616 98.5825 105.689 97.235C108.018 94.3064 108.255 90.9362 104.782 88.6332C103.021 87.4673 100.46 87.1899 98.0379 87.1899C96.8333 87.1899 95.6585 87.2582 94.6363 87.3205C93.6651 87.3795 90.7513 88.1179 88.5713 88.1179C87.1165 88.1179 85.9925 87.79 85.9883 86.7144L86.1749 84.657C86.2597 84.5963 86.4591 84.4466 86.5015 84.4114C89.5128 82.0969 94.4582 81.2627 98.9497 81.2627C100.774 81.2627 102.525 81.4005 104.039 81.6333C110.291 82.5948 115.728 84.7668 121.204 88.1667C123.515 89.6045 126.429 91.2204 128.346 93.2486C130.446 95.4689 130.408 99.8633 126.603 100.064C126.518 100.069 126.433 100.071 126.349 100.071C124.932 100.071 123.689 99.4566 122.434 98.842C121.178 98.2279 119.906 97.6129 118.434 97.6129C118.337 97.6129 118.239 97.6159 118.142 97.6214C114.592 97.8207 112.132 101.506 108.781 102.514C108.086 102.723 107.191 102.931 106.325 102.931" fill="#BF9E7C"/>
<path d="M38.1068 106.958C41.1454 100.689 48.6306 101.514 54.5528 99.3245C58.5778 97.8362 63.6289 96.4223 67.9204 96.4386C70.1835 96.447 72.363 96.4899 74.5545 97.1302C76.0818 97.5769 77.5256 98.5104 78.9812 98.8842L84.9193 100.248C87.4091 105.779 82.5171 108.927 77.7801 110.736C74.6938 111.913 74.6818 109.381 73.254 109.012C71.5517 108.572 70.454 109.441 69.5472 111.138C68.2983 113.466 73.4409 115.609 74.9841 116.941C76.4716 118.218 78.7387 119.864 79.0529 122.021C79.5102 125.173 76.6108 126.959 74.3676 127.88C72.1841 128.775 69.4756 129.309 66.8863 128.822C64.4125 128.357 63.8875 127.434 62.4119 125.528C59.9937 122.399 58.546 119.958 55.742 117.291C55.6346 117.844 53.0056 118.042 52.5761 118.94C52.1465 119.837 53.9125 121.434 53.6301 121.938C52.2977 124.305 45.7471 126.195 41.213 124.079C39.1011 123.093 33.6761 121.713 32.7971 114.165C32.4391 111.13 36.8221 109.62 38.1068 106.958" fill="#634E40"/>
<path d="M42.4488 107.276C46.7982 101.468 53.6151 98.584 60.4398 97.3365C65.1782 96.4694 71.8929 94.3383 76.2463 97.3923C77.531 98.2917 78.9258 100.094 79.2912 101.688C79.5427 102.779 79.0712 105.227 78.2619 105.431L77.5232 106.238C76.6784 105.626 75.209 105.31 74.0892 105.64C73.8063 105.723 72.9538 106.372 72.6237 106.525C72.0029 106.813 71.6925 106.72 71.0953 107.134C70.6788 107.422 70.5492 108.083 69.9441 108.389C69.3548 108.687 68.5729 108.388 67.9285 108.787C66.6516 109.582 67.1349 111.059 65.8029 111.657C65.2411 111.907 64.5692 111.857 63.8973 111.807C63.1194 111.75 62.3493 111.692 61.7678 112.1C61.2806 112.445 61.4535 113.222 60.9388 113.602C60.4477 113.964 59.4536 113.967 58.8721 114.074C57.5834 114.309 56.2318 114.283 55.1356 115.024C54.6366 115.359 54.4559 116.004 53.8194 116.27C53.5051 116.401 53.1357 116.339 52.7664 116.277C52.4246 116.22 52.0867 116.162 51.792 116.258C51.0652 116.494 50.9237 117 50.3147 117.313C49.5053 117.73 49.1478 117.506 48.307 117.716C47.6626 117.876 47.2501 118.399 46.5546 118.577C46.1578 118.677 45.7099 118.603 45.2698 118.528C44.9595 118.477 44.6608 118.425 44.378 118.431C42.1345 118.483 40.2014 119.002 39.1641 116.224C37.8479 112.689 40.5354 109.836 42.4488 107.276" fill="#8C735B"/>
<path d="M78.781 121.295C77.8469 115.781 64.6379 107.428 65.4962 105.239C66.3504 103.05 73.2483 101.017 76.1264 102.821C79.0005 104.625 73.1804 105.878 75.4797 108.504C76.4896 109.656 89.7784 104.478 83.4674 97.5204C77.9946 91.4919 66.3025 87.5748 48.8064 95.6806C33.6894 102.684 30.5558 111.008 34.2762 116.55C40.707 126.124 52.4589 120.322 52.3671 119.445C52.1635 117.592 46.052 120.485 44.2757 115.643C43.4653 113.445 49.8323 109.5 53.8361 111.918C56.7142 113.657 64.2707 127.911 67.5001 127.484C70.7295 127.057 79.4077 124.966 78.781 121.295" fill="#A28362"/>
<path d="M81.2708 98.0649C81.2708 98.0649 81.259 98.0547 81.2393 98.0385V98.0283C81.2668 98.0547 81.2747 98.0649 81.2708 98.0649Z" fill="#BF9E7C"/>
<path d="M62.2791 113.344C61.4084 113.344 60.4748 113.045 59.7815 112.765C56.886 111.592 54.9832 108.026 51.8435 107.581C51.6268 107.55 51.4101 107.536 51.2013 107.536C50.0431 107.536 48.9834 107.962 47.9316 108.387C46.8797 108.813 45.8397 109.239 44.7209 109.239C44.5318 109.239 44.3348 109.226 44.1418 109.199C40.7775 108.733 41.0809 104.696 43.1176 102.813C44.973 101.092 47.6873 99.8237 49.854 98.6746C54.9753 95.9575 59.9706 94.3648 65.6 93.9444C66.2264 93.8976 66.8961 93.8732 67.5934 93.8732C72.1474 93.8732 77.9187 94.9273 80.96 97.7905C80.9994 97.826 81.1648 97.978 81.2357 98.0403L81.2436 99.943C81.1688 100.783 80.4163 101.066 79.4 101.066C77.4302 101.066 74.4599 99.999 73.5144 99.8603C72.1159 99.6555 70.4062 99.4101 68.7358 99.4101C67.1522 99.4101 65.6079 99.6307 64.4024 100.316C61.1406 102.174 61.0893 105.286 62.9369 108.147C63.7839 109.463 65.4661 111.096 64.0834 112.64C63.6146 113.16 62.9645 113.344 62.2791 113.344" fill="#BF9E7C"/>
</g>
<defs>
<filter id="filter0_d_229_2133" x="25" y="65" width="118" height="72.0063" filterUnits="userSpaceOnUse" color-interpolation-filters="sRGB">
<feFlood flood-opacity="0" result="BackgroundImageFix"/>
<feColorMatrix in="SourceAlpha" type="matrix" values="0 0 0 0 0 0 0 0 0 0 0 0 0 0 0 0 0 0 127 0" result="hardAlpha"/>
<feOffset dy="4"/>
<feGaussianBlur stdDeviation="2"/>
<feComposite in2="hardAlpha" operator="out"/>
<feColorMatrix type="matrix" values="0 0 0 0 0 0 0 0 0 0 0 0 0 0 0 0 0 0 0.25 0"/>
<feBlend mode="normal" in2="BackgroundImageFix" result="effect1_dropShadow_229_2133"/>
<feBlend mode="normal" in="SourceGraphic" in2="effect1_dropShadow_229_2133" result="shape"/>
</filter>
</defs>
</svg>
