<svg width="200" height="200" viewBox="0 0 200 200" fill="none" xmlns="http://www.w3.org/2000/svg">
<g clip-path="url(#clip0_228_441)">
<path fill-rule="evenodd" clip-rule="evenodd" d="M198 100C198 154.124 154.124 198 100 198C45.8761 198 2 154.124 2 100C2 45.8761 45.8761 2 100 2C154.124 2 198 45.8761 198 100ZM200 100C200 155.228 155.228 200 100 200C44.7715 200 0 155.228 0 100C0 44.7715 44.7715 0 100 0C155.228 0 200 44.7715 200 100ZM102.666 91.5375L100.822 95.5333L101.96 96.0583L101.5 99H160C160 103.267 159.472 107.495 158.443 111.603L156.599 111.26C155.629 116.469 151.786 124.861 144.172 132.66C143.77 132.328 143.332 132.04 142.865 131.803C142.058 131.392 141.183 131.139 140.288 131.059C139.394 130.979 138.499 131.073 137.653 131.336C136.808 131.599 136.029 132.026 135.361 132.591C134.693 133.157 134.15 133.851 133.761 134.634C133.373 135.416 133.147 136.272 133.097 137.152C133.046 138.032 133.173 138.92 133.469 139.764C133.613 140.176 133.797 140.574 134.016 140.952C127.795 144.976 120.148 148.304 110.89 150.163C101.325 152.084 88.3168 150.644 76.5786 144.909C72.8212 143.073 69.2176 140.809 65.9119 138.094L67.8016 135.527C61.9119 131.13 57.3527 123.219 54.732 114.834C52.1011 106.416 51.5802 98.028 53.2443 92.8376L49.4625 91.6462C47.4321 97.9791 48.1918 107.308 50.938 116.095C51.458 117.759 52.0549 119.422 52.7267 121.058C51.8109 119.056 51.0131 116.944 50.3482 114.721L46.1832 115.966C46.1643 115.904 46.1455 115.841 46.1268 115.779L45.82 115.871C44.5894 112.281 43.7487 108.563 43.3232 104.773C42.7226 99.4237 42.9632 94.0528 44.0094 88.8268L47.4275 88.8267C47.4275 83.2507 49.8365 77.43 54.1209 71.7865C55.0956 70.5025 56.1592 69.2391 57.2997 68.0025L55.9202 69.6655C56.6264 70.2299 57.4357 70.6561 58.302 70.9197C59.1683 71.1833 60.0746 71.2793 60.9691 71.202C61.8636 71.1248 62.7288 70.8758 63.5153 70.4695C64.3019 70.0631 64.9943 69.5072 65.5532 68.8336C66.112 68.1599 66.5262 67.3817 66.7723 66.5434C67.0183 65.705 67.0914 64.8229 66.9872 63.9475C66.883 63.0721 66.6036 62.2205 66.165 61.4413C65.9816 61.1154 65.7719 60.8049 65.5383 60.5126C67.3055 59.1468 69.1535 57.8435 71.0592 56.6149C77.7426 52.3062 85.0086 48.9987 91.7627 47.1414C98.5936 45.263 104.533 44.9672 108.764 46.2339L109.286 44.4893C109.526 44.5196 109.765 44.5513 110.005 44.5844L102.666 91.5375ZM136.475 34.9899L137.178 33.4667L130.822 30.5333L102.666 91.5375L101.96 96.0583L107.178 98.4667L109.358 93.7432L113.25 95.2999L137.25 35.2999L136.475 34.9899ZM136.475 34.9899L109.358 93.7432L106.75 92.7001L130.75 32.7001L136.475 34.9899ZM110.003 39.313C110.261 39.3804 110.518 39.4521 110.771 39.528L109.286 44.4893C97.7092 43.0276 85.9257 44.8574 75.4564 49.751C64.7704 54.746 55.9648 62.6942 50.2211 72.5291C47.2312 77.6488 45.1454 83.1524 44.0094 88.8268L40.4275 88.8268C40.4275 88.518 40.4329 88.2099 40.4436 87.9022L42.98 87.9022C42.98 75.5048 52.7846 62.5569 66.7511 53.2378C80.6649 43.9539 97.3397 39.2125 109.39 41.9806L110.003 39.313ZM110.003 39.313L110.957 35.1582C96.2921 31.7896 77.6201 37.5704 62.8659 47.415C48.1644 57.2245 35.98 72.0114 35.98 87.9023L40.4436 87.9022C40.6951 80.6399 43.8844 73.6937 48.5456 67.5539C53.4167 61.1374 60.0565 55.3797 67.2663 50.7316C74.4813 46.0802 82.3946 42.4577 89.9067 40.3919C97.0284 38.4335 104.13 37.7818 110.003 39.313ZM65.5383 60.5126C65.2132 60.1059 64.8419 59.7345 64.4311 59.4061L60.1756 64.5358L57.2997 68.0025C59.7336 65.3637 62.5181 62.8468 65.5383 60.5126ZM45.8838 116.056L46.1832 115.966C46.9352 118.448 47.843 120.809 48.8883 123.048C47.7183 120.786 46.7143 118.449 45.8838 116.056ZM161.044 112.088C161.271 110.302 161.133 108.916 160.767 107.96L167.302 105.453C168.925 109.683 168.08 115.015 166.056 120.184C163.974 125.5 160.4 131.289 155.62 136.826C146.063 147.896 131.35 158.341 113.105 162.006C101.099 164.417 85.4239 162.264 71.4537 155.181C57.4096 148.061 44.8103 135.809 39.4203 117.784L45.82 115.871C45.8412 115.932 45.8624 115.994 45.8838 116.056L43.6417 116.726C48.688 133.602 60.4222 144.806 73.5055 151.198C86.5121 157.553 101.079 159.274 112.268 157.026C146.076 150.237 161.086 125.399 163.481 112.542L161.044 112.088ZM161.044 112.088C160.847 113.64 160.375 115.494 159.538 117.631C157.796 122.079 154.684 127.198 150.321 132.252C141.59 142.365 128.185 151.837 111.726 155.143C101.448 157.207 87.3665 155.401 74.6193 148.938C63.9858 143.546 54.4744 135.017 48.8883 123.048C51.0952 127.316 53.8925 131.321 57.2293 134.953C65.0304 143.444 75.4069 149.488 86.9667 152.276C98.5265 155.063 110.716 154.46 121.901 150.547C133.086 146.634 142.73 139.599 149.54 130.385C153.76 124.675 156.767 118.298 158.443 111.603L161.044 112.088ZM52.7267 121.058C55.9078 128.015 60.5124 133.658 65.9119 138.094L65.4102 138.775C59.8918 134.655 55.6158 128.097 52.7267 121.058ZM134.016 140.952C137.959 138.402 141.329 135.572 144.172 132.66C144.466 132.901 144.74 133.167 144.992 133.453L139.906 137.762L134.821 142.07C134.516 141.723 134.246 141.348 134.016 140.952ZM141.387 47.7388C147.301 49.0604 152.768 53.5269 156.662 59.116C160.584 64.7436 162.555 70.9903 162.079 75.4346L162.572 75.4868C163.066 70.8759 161.028 64.5072 157.067 58.8229C153.128 53.1694 147.567 48.6029 141.496 47.2461L141.387 47.7388ZM142.364 43.3051L142.473 42.8125C149.961 44.4858 156.366 49.9519 160.71 56.1854C165.027 62.3804 167.66 69.8461 167.006 75.9566L166.513 75.9044C167.15 69.9605 164.582 62.6167 160.305 56.4784C156.007 50.3094 149.695 44.9433 142.364 43.3051ZM62.3515 98.2961C64.0475 100.578 67.2469 101.019 69.4976 99.2816C71.7483 97.5443 72.198 94.2864 70.502 92.0049C68.806 89.7233 65.6066 89.2821 63.3559 91.0194C61.1052 92.7566 60.6555 96.0145 62.3515 98.2961ZM92.9791 67.0621C90.7284 68.7994 87.5289 68.3581 85.8329 66.0766C84.1369 63.795 84.5866 60.5371 86.8373 58.7999C89.088 57.0626 92.2875 57.5038 93.9835 59.7854C95.6795 62.067 95.2298 65.3249 92.9791 67.0621ZM79.8266 133.245C81.5226 135.526 84.722 135.968 86.9727 134.23C89.2234 132.493 89.6731 129.235 87.9771 126.954C86.2811 124.672 83.0817 124.231 80.831 125.968C78.5803 127.705 78.1306 130.963 79.8266 133.245ZM146.499 116.755C144.248 118.493 141.049 118.051 139.353 115.77C137.657 113.488 138.107 110.23 140.357 108.493C142.608 106.756 145.807 107.197 147.503 109.479C149.199 111.76 148.75 115.018 146.499 116.755ZM104.557 67.1684C103.665 67.0189 102.751 67.0403 101.866 67.2314C100.981 67.4225 100.142 67.7796 99.3983 68.2823C98.6544 68.7849 98.0196 69.4233 97.5302 70.161C97.0407 70.8987 96.7062 71.7213 96.5457 72.5817C96.3852 73.4421 96.4019 74.3235 96.5949 75.1756C96.7878 76.0278 97.1532 76.8339 97.6702 77.548C98.1871 78.2622 98.8456 78.8703 99.6079 79.3377C100.37 79.8051 101.221 80.1227 102.113 80.2722L103.335 73.7203L104.557 67.1684ZM104.642 103.961C104.321 103.114 104.164 102.213 104.18 101.309L110.841 101.545L117.502 101.78C117.486 102.684 117.299 103.572 116.95 104.396C116.601 105.219 116.097 105.96 115.468 106.578C114.838 107.195 114.095 107.676 113.281 107.993C112.467 108.311 111.598 108.458 110.723 108.427C109.848 108.396 108.985 108.188 108.183 107.813C107.381 107.439 106.655 106.906 106.047 106.245C105.44 105.584 104.962 104.808 104.642 103.961ZM90.2831 91.3284L89.6739 87.9597L86.6565 86.4498L84.2484 88.3086L84.8576 91.6772L87.8749 93.1872L90.2831 91.3284ZM119.163 123.455L119.772 126.824L117.364 128.682L114.347 127.172L113.738 123.804L116.146 121.945L119.163 123.455ZM105.028 148.121L104.419 144.752L101.402 143.243L98.9935 145.101L99.6028 148.47L102.62 149.98L105.028 148.121ZM66.1905 117.994L66.7997 121.363L64.3915 123.222L61.3742 121.712L60.765 118.343L63.1731 116.484L66.1905 117.994ZM92.4671 113.717L91.8579 110.349L88.8406 108.839L86.4325 110.697L87.0417 114.066L90.059 115.576L92.4671 113.717Z" fill="#ff8c42"/>
</g>
<defs>
<clipPath id="clip0_228_441">
<rect width="200" height="200" fill="#ff8c42"/>
</clipPath>
</defs>
</svg>
