<svg width="200" height="200" viewBox="0 0 200 200" fill="none" xmlns="http://www.w3.org/2000/svg">
<g clip-path="url(#clip0_228_443)">
<path fill-rule="evenodd" clip-rule="evenodd" d="M198 100C198 154.124 154.124 198 100 198C45.8761 198 2 154.124 2 100C2 45.8761 45.8761 2 100 2C154.124 2 198 45.8761 198 100ZM200 100C200 155.228 155.228 200 100 200C44.7715 200 0 155.228 0 100C0 44.7715 44.7715 0 100 0C155.228 0 200 44.7715 200 100ZM97.2713 94.4779L95.8377 97.4999L96.7413 97.9286L96.5 99.5H100.054L102.162 100.5L102.637 99.5H166C166 104.899 165.313 110.247 163.976 115.431L162.296 115.119C161.114 121.533 156.481 131.752 147.345 141.235C146.734 140.637 146.037 140.132 145.276 139.741C144.315 139.246 143.272 138.941 142.206 138.845C141.141 138.748 140.074 138.862 139.067 139.179C138.06 139.495 137.132 140.009 136.336 140.691C135.54 141.373 134.893 142.209 134.43 143.152C133.967 144.095 133.698 145.126 133.638 146.187C133.578 147.248 133.729 148.317 134.081 149.333C134.33 150.05 134.675 150.731 135.107 151.357C127.621 156.26 118.424 160.31 107.298 162.57C95.7552 164.914 80.1164 163.153 66.0149 156.185C51.9926 149.255 39.7057 137.292 34.4091 119.377L30.5598 120.51C28.9835 115.981 27.9132 111.278 27.3839 106.48C26.6989 100.27 26.9351 94.0358 28.0552 87.9557L30.8983 87.9606C30.8983 81.0226 33.8595 73.8534 39.0219 66.9758C41.5014 63.6725 44.4531 60.4861 47.7424 57.4862L46.7594 58.6846L41.6895 64.8659C42.5308 65.546 43.4951 66.0595 44.5272 66.3772C45.5593 66.6949 46.639 66.8105 47.7048 66.7174C48.7705 66.6243 49.8013 66.3243 50.7384 65.8346C51.6755 65.3449 52.5005 64.6751 53.1663 63.8634C53.8321 63.0516 54.3257 62.1139 54.6188 61.1037C54.912 60.0935 54.999 59.0306 54.8748 57.9758C54.7507 56.9209 54.4178 55.8947 53.8953 54.9557C53.5634 54.3593 53.1592 53.8056 52.6928 53.3067C54.8336 51.6303 57.0719 50.0326 59.379 48.5283C67.3931 43.3028 76.1108 39.2876 84.2275 37.0301C92.422 34.751 99.6312 34.3652 104.833 35.9404L105.548 33.5659C105.68 33.5825 105.811 33.5994 105.943 33.6167L106.111 33.6389C106.275 33.6609 106.44 33.6834 106.604 33.7065L97.2713 94.4779ZM138.03 24.8864L139.162 22.5L132.838 19.5L97.2713 94.4779L96.7413 97.9286L100.054 99.5H102.637L104.811 94.9173L108.208 96.4005L139.208 25.4005L138.03 24.8864ZM138.03 24.8864L104.811 94.9173L101.792 93.5995L132.792 22.5995L138.03 24.8864ZM105.962 28.9885C106.261 29.0674 106.557 29.1512 106.85 29.2401L105.548 33.5659C91.8593 31.8461 77.9362 34.0656 65.5593 39.9535C52.8639 45.9929 42.4026 55.6029 35.5789 67.4943C31.8964 73.9117 29.3684 80.8278 28.0552 87.9557L23.8993 87.9487C23.8993 87.5798 23.9057 87.2115 23.9185 86.8437L25.6031 86.8466C25.6031 71.53 37.5373 55.7373 54.241 44.4648C70.9017 33.2214 90.9511 27.4145 105.543 30.8045L105.962 28.9885ZM105.962 28.9885L107.115 23.9852C89.8779 19.9806 67.8145 26.8529 50.3198 38.6592C32.868 50.4365 18.604 68.064 18.604 86.8347L23.9185 86.8437C24.2157 78.3038 27.9281 70.0858 33.4222 62.7663C39.165 55.1156 47.0098 48.2299 55.5499 42.6615C64.0947 37.09 73.4617 32.7546 82.3419 30.2848C90.7759 27.9392 99.1157 27.1817 105.962 28.9885ZM52.6928 53.3067C50.9749 54.6518 49.3199 56.0476 47.7424 57.4862L51.8294 52.5034C52.1364 52.7515 52.4249 53.0201 52.6928 53.3067ZM29.439 120.84L30.5598 120.51C33.4158 128.716 37.9331 136.355 43.9049 142.97C53.1728 153.236 65.5005 160.545 79.2339 163.915C92.9673 167.285 107.449 166.556 120.737 161.825C134.025 157.094 145.483 148.588 153.573 137.448C158.444 130.741 161.954 123.273 163.976 115.431L167.598 116.105C167.35 118.054 166.765 120.342 165.762 122.933C163.651 128.385 159.895 134.623 154.655 140.763C144.168 153.048 128.07 164.553 108.298 168.57C95.8957 171.089 78.9754 168.881 63.6757 161.035C48.5017 153.254 35.1846 140.067 29.439 120.84ZM29.439 120.84L27.6977 121.352C33.6414 141.455 47.4642 154.821 62.9233 162.46C78.3033 170.061 95.5176 172.109 108.702 169.43C148.712 161.304 166.379 131.601 169.179 116.399L167.598 116.105C167.886 113.841 167.72 112.034 167.228 110.737L173.772 108.263C175.606 113.1 174.676 119.304 172.289 125.471C169.844 131.785 165.634 138.69 159.981 145.314C148.679 158.554 131.277 171.048 109.702 175.43C95.5543 178.304 77.0228 175.742 60.491 167.264C43.8828 158.747 29.0258 144.118 22.6719 122.628L29.3833 120.653L29.439 120.84ZM135.107 151.357C139.857 148.247 143.918 144.793 147.345 141.235C147.441 141.33 147.535 141.426 147.626 141.525C147.688 141.592 147.75 141.66 147.81 141.729L141.751 146.921L135.692 152.113C135.483 151.871 135.287 151.619 135.107 151.357ZM143.615 37.9515C150.818 39.5794 157.425 45.0626 162.111 51.8637C166.823 58.7032 169.238 66.3542 168.653 71.8769L169.143 71.9278C169.746 66.2379 167.265 58.4647 162.514 51.5685C157.784 44.703 151.084 39.1195 143.725 37.4563L143.615 37.9515ZM144.6 33.495L144.709 32.9999C153.475 34.9809 161.011 41.4664 166.141 48.9114C171.244 56.318 174.316 65.1905 173.554 72.3864L173.064 72.3354C173.808 65.3069 170.802 56.5565 165.738 49.2067C160.653 41.826 153.209 35.4407 144.6 33.495ZM39.9068 119.415C43.0437 129.566 48.513 139.19 55.6232 144.559L53.2156 147.811C45.2054 141.763 39.3878 131.271 36.1184 120.691C32.8589 110.143 31.978 99 34.3597 91.4865L38.135 92.6533C36.1151 99.0252 36.7599 109.231 39.9068 119.415ZM49.3518 99.3647C51.3725 102.114 55.1843 102.646 57.8658 100.552C60.5474 98.4589 61.0831 94.5331 59.0625 91.7839C57.0419 89.0346 53.23 88.5029 50.5485 90.5963C47.8669 92.6897 47.3312 96.6154 49.3518 99.3647ZM85.8439 61.729C83.1624 63.8224 79.3505 63.2907 77.3299 60.5415C75.3092 57.7922 75.845 53.8665 78.5265 51.7731C81.208 49.6797 85.0199 50.2114 87.0405 52.9606C89.0612 55.7099 88.5254 59.6356 85.8439 61.729ZM70.1726 141.478C72.1933 144.227 76.0051 144.759 78.6866 142.666C81.3682 140.572 81.9039 136.646 79.8833 133.897C77.8627 131.148 74.0508 130.616 71.3693 132.71C68.6877 134.803 68.152 138.729 70.1726 141.478ZM149.607 121.609C146.926 123.702 143.114 123.171 141.093 120.421C139.072 117.672 139.608 113.746 142.29 111.653C144.971 109.56 148.783 110.091 150.804 112.841C152.824 115.59 152.289 119.516 149.607 121.609ZM99.6364 61.857C98.5741 61.6768 97.4846 61.7026 96.4301 61.9329C95.3755 62.1632 94.3766 62.5935 93.4903 63.1992C92.6039 63.8049 91.8476 64.5742 91.2645 65.4631C90.6814 66.352 90.2828 67.3431 90.0916 68.3799C89.9004 69.4167 89.9203 70.4788 90.1502 71.5056C90.3801 72.5325 90.8154 73.5039 91.4313 74.3644C92.0472 75.2249 92.8317 75.9577 93.7399 76.5209C94.6482 77.0842 95.6623 77.4668 96.7246 77.647L98.1805 69.752L99.6364 61.857ZM99.7368 106.191C99.3549 105.171 99.1679 104.085 99.1863 102.996L107.122 103.279L115.059 103.562C115.04 104.652 114.817 105.723 114.401 106.715C113.985 107.707 113.385 108.6 112.635 109.344C111.885 110.088 111 110.667 110.03 111.05C109.06 111.432 108.024 111.61 106.982 111.573C105.94 111.535 104.912 111.284 103.956 110.833C103 110.382 102.136 109.74 101.412 108.943C100.688 108.147 100.119 107.211 99.7368 106.191ZM82.6295 90.9689L81.9037 86.9097L78.3089 85.0902L75.4398 87.33L76.1656 91.3893L79.7605 93.2087L82.6295 90.9689ZM117.039 129.681L117.764 133.74L114.895 135.98L111.3 134.161L110.575 130.102L113.444 127.862L117.039 129.681ZM100.197 159.403L99.4711 155.344L95.8763 153.525L93.0072 155.764L93.733 159.824L97.3279 161.643L100.197 159.403ZM53.9262 123.101L54.652 127.16L51.783 129.4L48.1881 127.581L47.4622 123.521L50.3313 121.282L53.9262 123.101ZM85.2321 117.948L84.5063 113.889L80.9114 112.069L78.0423 114.309L78.7682 118.368L82.363 120.188L85.2321 117.948Z" fill="#ff8c42"/>
</g>
<defs>
<clipPath id="clip0_228_443">
<rect width="200" height="200" fill="#ff8c42"/>
</clipPath>
</defs>
</svg>
