<svg width="200" height="200" viewBox="0 0 200 200" fill="none" xmlns="http://www.w3.org/2000/svg">
<g clip-path="url(#clip0_228_440)">
<path fill-rule="evenodd" clip-rule="evenodd" d="M197 100C197 154.124 153.124 198 99 198C44.8761 198 1 154.124 1 100C1 45.8761 44.8761 2 99 2C153.124 2 197 45.8761 197 100ZM199 100C199 155.228 154.228 200 99 200C43.7715 200 -1 155.228 -1 100C-1 44.7715 43.7715 0 99 0C154.228 0 199 44.7715 199 100ZM100.261 89.7776L96.8814 96.4113L99.0724 97.5275L99 98H100L103.119 99.5887L103.928 98H147C147 102.053 146.441 106.065 145.356 109.936L143.86 109.657C143.074 113.924 139.936 120.858 133.698 127.308C133.504 127.177 133.302 127.058 133.094 126.95C132.426 126.606 131.702 126.395 130.962 126.328C130.222 126.261 129.482 126.34 128.782 126.56C128.083 126.78 127.438 127.137 126.886 127.61C126.333 128.084 125.884 128.664 125.562 129.319C125.241 129.974 125.054 130.69 125.012 131.427C124.971 132.163 125.075 132.905 125.32 133.611C125.375 133.77 125.437 133.927 125.506 134.08C120.405 137.431 114.124 140.207 106.507 141.754C98.7423 143.331 88.1235 142.152 78.5269 137.41C75.4393 135.884 72.4802 134.001 69.7689 131.741L71.2064 129.799C66.4066 126.175 62.6619 119.625 60.504 112.641C58.336 105.625 57.9243 98.6815 59.2716 94.4312L55.4964 93.2645C53.8782 98.3691 54.3727 105.705 56.3652 112.734L53.8026 113.488C52.5246 110.063 51.668 106.486 51.2652 102.829C50.8286 98.8644 50.9338 94.8862 51.5605 90.9907L54.7392 90.9961C54.7392 86.4836 56.6684 81.7258 60.1663 77.0658C60.6188 76.463 61.095 75.8654 61.593 75.274C62.0679 75.5914 62.5871 75.8388 63.1338 76.007C63.8504 76.2276 64.6002 76.3079 65.3402 76.2433C66.0803 76.1786 66.7961 75.9703 67.4468 75.6303C68.0975 75.2903 68.6704 74.8251 69.1327 74.2615C69.5951 73.6978 69.9378 73.0466 70.1413 72.3452C70.3449 71.6437 70.4053 70.9056 70.3191 70.1731C70.2329 69.4406 70.0018 68.728 69.6389 68.076C69.5823 67.9743 69.5227 67.8744 69.4601 67.7764C70.9216 66.6318 72.4519 65.5392 74.0316 64.5091C79.5155 60.9335 85.4698 58.1942 90.9894 56.6591C96.5867 55.1023 101.365 54.8852 104.701 55.8955L105.737 52.4553L105.849 52.4707L105.978 52.4887L100.261 89.7776ZM129.368 48.063L130.119 46.5887L123.881 43.4113L100.261 89.7776L99.0724 97.5275L100 98H103.928L104.957 95.9806L108.193 97.4336L130.193 48.4336L129.368 48.063ZM129.368 48.063L104.957 95.9806L101.807 94.5664L123.807 45.5664L129.368 48.063ZM91.2921 52.597C96.0458 51.8558 100.915 51.8003 105.737 52.4553L106.719 49.1952C106.493 49.1268 106.264 49.0624 106.034 49.002L106.835 45.5283C94.4612 42.6535 78.8328 47.5885 66.557 55.8727C54.3243 64.1279 44.0635 76.6488 44.0635 90.2109L47.7528 90.2171C47.7444 90.4723 47.7401 90.728 47.7401 90.9842L51.5605 90.9907C52.4092 85.7156 54.2142 80.5922 56.925 75.8607C58.5795 72.973 60.5436 70.2798 62.7754 67.8196C65.0895 65.632 67.6783 63.5679 70.4783 61.6784C77.0808 57.2227 84.4068 54.0497 91.2921 52.597ZM91.2921 52.597C86.5708 53.3331 81.9637 54.7455 77.6309 56.8099C71.941 59.521 66.9009 63.2721 62.7754 67.8196C55.5978 74.605 51.0626 82.5791 51.0626 90.2227L47.7528 90.2171C47.9594 83.9875 50.6604 78.0603 54.5666 72.8563C58.6449 67.423 64.1926 62.561 70.2026 58.6423C76.2171 54.7206 82.8207 51.6613 89.1038 49.9138C95.0362 48.2639 101.027 47.6892 106.034 49.002L105.263 52.3475C101.148 51.3917 96.3385 51.5322 91.2921 52.597ZM69.4601 67.7764C66.5031 70.0922 63.8276 72.6207 61.593 75.274C61.4453 75.1752 61.3019 75.0697 61.1632 74.9576L64.6838 70.6654L68.2044 66.3731C68.6975 66.7717 69.1217 67.2461 69.4601 67.7764ZM53.6821 113.524L53.8026 113.488C55.7855 118.802 58.7831 123.751 62.6753 128.07C69.0762 135.171 77.5903 140.227 87.0752 142.558C96.5602 144.889 106.562 144.385 115.739 141.112C124.917 137.84 132.83 131.956 138.418 124.249C141.592 119.872 143.929 115.026 145.356 109.936L147.54 110.342C147.388 111.586 147.012 113.106 146.321 114.891C144.907 118.545 142.368 122.775 138.792 126.964C131.635 135.349 120.656 143.188 107.201 145.921C98.8561 147.616 87.3529 146.137 76.9171 140.786C66.5921 135.491 57.5742 126.545 53.6821 113.524ZM53.6821 113.524L50.4216 114.483C54.6478 128.777 64.481 138.272 75.4353 143.685C86.3104 149.06 98.5047 150.526 107.911 148.615C136.152 142.878 148.726 121.889 150.743 110.937L147.54 110.342C147.712 108.936 147.6 107.881 147.337 107.188L153.88 104.715C155.295 108.443 154.54 113.061 152.848 117.429C151.1 121.946 148.107 126.842 144.118 131.516C136.146 140.855 123.862 149.683 108.606 152.782C98.5147 154.831 85.4003 152.998 73.7325 147.014C61.9882 140.992 51.4419 130.622 46.9321 115.369L53.6436 113.394L53.6821 113.524ZM56.3652 112.734L57.1331 112.508C59.5511 120.686 64.1226 127.033 69.7689 131.741L68.7988 133.051C63.099 128.747 59.0061 121.33 56.7155 113.917C56.5941 113.524 56.4772 113.13 56.3652 112.734ZM125.506 134.08C128.682 131.994 131.4 129.684 133.698 127.308C134.125 127.597 134.514 127.941 134.853 128.331L130.646 131.936L126.439 135.541C126.056 135.101 125.742 134.608 125.506 134.08ZM131.773 57.0251C136.535 58.1016 140.981 61.756 144.167 66.3802C147.38 71.0429 148.956 76.1691 148.577 79.7483L149.067 79.7992C149.464 76.0527 147.822 70.8044 144.57 66.085C141.34 61.3963 136.801 57.6417 131.882 56.53L131.773 57.0251ZM132.757 52.5687L132.867 52.0735C139.192 53.5031 144.568 58.1597 148.197 63.428C151.8 68.6577 154.034 75.0054 153.478 80.2578L152.988 80.2068C153.526 75.1217 151.358 68.8962 147.794 63.7232C144.209 58.5194 138.927 53.9629 132.757 52.5687ZM66.4841 98.9137C67.8872 100.823 70.5341 101.192 72.3961 99.7383C74.2582 98.2846 74.6302 95.5586 73.2271 93.6496C71.824 91.7405 69.177 91.3713 67.315 92.8249C65.453 94.2786 65.0809 97.0046 66.4841 98.9137ZM91.8234 72.7795C89.9613 74.2332 87.3144 73.864 85.9113 71.9549C84.5082 70.0458 84.8802 67.3198 86.7422 65.8662C88.6043 64.4125 91.2512 64.7817 92.6543 66.6908C94.0575 68.5999 93.6854 71.3259 91.8234 72.7795ZM80.9421 128.157C82.3452 130.066 84.9921 130.435 86.8542 128.981C88.7162 127.528 89.0882 124.802 87.6851 122.892C86.282 120.983 83.635 120.614 81.773 122.068C79.911 123.521 79.5389 126.247 80.9421 128.157ZM136.101 114.36C134.239 115.813 131.592 115.444 130.189 113.535C128.786 111.626 129.158 108.9 131.02 107.446C132.882 105.993 135.529 106.362 136.932 108.271C138.335 110.18 137.963 112.906 136.101 114.36ZM101.401 72.8682C100.664 72.743 99.9073 72.761 99.175 72.9209C98.4428 73.0808 97.7491 73.3796 97.1337 73.8002C96.5182 74.2208 95.993 74.7549 95.5881 75.3722C95.1832 75.9895 94.9064 76.6777 94.7737 77.3976C94.6409 78.1176 94.6547 78.8551 94.8143 79.5681C94.974 80.2811 95.2762 80.9557 95.7039 81.5532C96.1316 82.1508 96.6764 82.6596 97.307 83.0507C97.9377 83.4418 98.6419 83.7075 99.3795 83.8326L100.391 78.3504L101.401 72.8682ZM101.471 103.654C101.206 102.945 101.076 102.191 101.089 101.435L106.6 101.632L112.111 101.828C112.098 102.585 111.943 103.328 111.654 104.017C111.365 104.706 110.948 105.326 110.428 105.843C109.907 106.359 109.292 106.762 108.619 107.028C107.945 107.293 107.226 107.416 106.502 107.391C105.779 107.365 105.065 107.19 104.401 106.877C103.737 106.564 103.137 106.118 102.634 105.565C102.131 105.012 101.736 104.362 101.471 103.654ZM89.5917 93.0835L89.0877 90.2648L86.5914 89.0014L84.5991 90.5567L85.1031 93.3754L87.5994 94.6388L89.5917 93.0835ZM113.486 119.965L113.99 122.784L111.997 124.339L109.501 123.076L108.997 120.257L110.989 118.702L113.486 119.965ZM101.791 140.604L101.287 137.785L98.7906 136.522L96.7984 138.077L97.3024 140.896L99.7986 142.159L101.791 140.604ZM69.6599 115.396L70.1639 118.214L68.1717 119.77L65.6754 118.506L65.1714 115.688L67.1637 114.132L69.6599 115.396ZM91.3993 111.818L90.8953 108.999L88.399 107.736L86.4068 109.291L86.9108 112.11L89.407 113.373L91.3993 111.818Z" fill="#ff8c42"/>
</g>
<defs>
<clipPath id="clip0_228_440">
<rect width="200" height="200" fill="#ff8c42"/>
</clipPath>
</defs>
</svg>
